<svg width="17" height="17" viewBox="0 0 17 17" fill="none" xmlns="http://www.w3.org/2000/svg">
<path d="M11.5032 5.49699C10.6744 4.66824 9.59067 4.25033 8.49984 4.25033V8.50033L5.4965 11.5037C7.154 13.1612 9.84567 13.1612 11.5103 11.5037C13.1678 9.84616 13.1678 7.15449 11.5032 5.49699ZM8.49984 1.41699C4.58984 1.41699 1.4165 4.59033 1.4165 8.50033C1.4165 12.4103 4.58984 15.5837 8.49984 15.5837C12.4098 15.5837 15.5832 12.4103 15.5832 8.50033C15.5832 4.59033 12.4098 1.41699 8.49984 1.41699ZM8.49984 14.167C5.369 14.167 2.83317 11.6312 2.83317 8.50033C2.83317 5.36949 5.369 2.83366 8.49984 2.83366C11.6307 2.83366 14.1665 5.36949 14.1665 8.50033C14.1665 11.6312 11.6307 14.167 8.49984 14.167Z" fill="#326699"/>
</svg>
