<svg width="17" height="17" viewBox="0 0 17 17" fill="none" xmlns="http://www.w3.org/2000/svg">
<g clip-path="url(#clip0_18465_124008)">
<path d="M12.7927 16.2843H13.9685C14.5635 16.2843 15.0522 15.8309 15.1231 15.2501L16.2918 3.57676H12.7502V0.708008H11.3547V3.57676H7.83433L8.04683 5.23426C9.25808 5.56717 10.3914 6.16926 11.0714 6.83509C12.0914 7.84092 12.7927 8.88217 12.7927 10.5822V16.2843ZM0.708496 15.5759V14.8747H11.3547V15.5759C11.3547 15.9655 11.036 16.2843 10.6393 16.2843H1.42391C1.02725 16.2843 0.708496 15.9655 0.708496 15.5759ZM11.3547 10.6176C11.3547 4.95092 0.708496 4.95092 0.708496 10.6176H11.3547ZM0.722663 12.0413H11.3477V13.458H0.722663V12.0413Z" fill="#326699"/>
</g>
<defs>
<clipPath id="clip0_18465_124008">
<rect width="17" height="17" fill="white"/>
</clipPath>
</defs>
</svg>
