<svg width="17" height="17" viewBox="0 0 17 17" fill="none" xmlns="http://www.w3.org/2000/svg">
<path d="M14.8748 7.63616V5.66699C14.8748 4.49824 13.9186 3.54199 12.7498 3.54199H9.9165C9.37109 3.54199 8.87525 3.75449 8.49984 4.09449C8.12442 3.75449 7.62859 3.54199 7.08317 3.54199H4.24984C3.08109 3.54199 2.12484 4.49824 2.12484 5.66699V7.63616C1.69275 8.02574 1.4165 8.58533 1.4165 9.20866V13.4587H2.83317V12.042H14.1665V13.4587H15.5832V9.20866C15.5832 8.58533 15.3069 8.02574 14.8748 7.63616ZM9.9165 4.95866H12.7498C13.1394 4.95866 13.4582 5.27741 13.4582 5.66699V7.08366H9.20817V5.66699C9.20817 5.27741 9.52692 4.95866 9.9165 4.95866ZM3.5415 5.66699C3.5415 5.27741 3.86025 4.95866 4.24984 4.95866H7.08317C7.47275 4.95866 7.7915 5.27741 7.7915 5.66699V7.08366H3.5415V5.66699ZM2.83317 10.6253V9.20866C2.83317 8.81908 3.15192 8.50033 3.5415 8.50033H13.4582C13.8478 8.50033 14.1665 8.81908 14.1665 9.20866V10.6253H2.83317Z" fill="#326699"/>
</svg>
