<svg width="17" height="17" viewBox="0 0 17 17" fill="none" xmlns="http://www.w3.org/2000/svg">
<path d="M14.1665 4.25033H11.3332V2.83366C11.3332 2.05449 10.6957 1.41699 9.9165 1.41699H7.08317C6.304 1.41699 5.6665 2.05449 5.6665 2.83366V4.25033H2.83317C2.054 4.25033 1.4165 4.88783 1.4165 5.66699V14.167C1.4165 14.9462 2.054 15.5837 2.83317 15.5837H14.1665C14.9457 15.5837 15.5832 14.9462 15.5832 14.167V5.66699C15.5832 4.88783 14.9457 4.25033 14.1665 4.25033ZM7.08317 2.83366H9.9165V4.25033H7.08317V2.83366ZM11.3332 10.6253H9.20817V12.7503H7.7915V10.6253H5.6665V9.20866H7.7915V7.08366H9.20817V9.20866H11.3332V10.6253Z" fill="#326699"/>
</svg>
