<svg width="17" height="17" viewBox="0 0 17 17" fill="none" xmlns="http://www.w3.org/2000/svg">
<path d="M3.54183 7.79199H0.708496V15.5837H3.54183V7.79199Z" fill="#326699"/>
<path d="M11.3335 2.30241C11.7939 1.76408 12.5093 1.41699 13.246 1.41699C14.5564 1.41699 15.5835 2.44408 15.5835 3.75449C15.5835 5.36241 13.5222 7.22533 11.3335 9.20866C9.14475 7.21824 7.0835 5.35533 7.0835 3.75449C7.0835 2.44408 8.11058 1.41699 9.421 1.41699C10.1577 1.41699 10.8731 1.76408 11.3335 2.30241Z" fill="#326699"/>
<path d="M14.1668 12.042H9.2085L7.72808 11.5249L7.96183 10.8591L9.2085 11.3337H11.206C11.6664 11.3337 12.0418 10.9582 12.0418 10.4978C12.0418 10.1507 11.8222 9.83908 11.4964 9.71158L6.35391 7.79199H4.9585V14.1812L9.91683 15.5837L15.5906 13.4587C15.5835 12.6795 14.9531 12.042 14.1668 12.042Z" fill="#326699"/>
</svg>
