<svg width="17" height="17" viewBox="0 0 17 17" fill="none" xmlns="http://www.w3.org/2000/svg">
<path d="M13.4583 2.12467H10.4975C10.2 1.30301 9.42083 0.708008 8.5 0.708008C7.57917 0.708008 6.8 1.30301 6.5025 2.12467H3.54167C2.7625 2.12467 2.125 2.76217 2.125 3.54134V13.458C2.125 14.2372 2.7625 14.8747 3.54167 14.8747H13.4583C14.2375 14.8747 14.875 14.2372 14.875 13.458V3.54134C14.875 2.76217 14.2375 2.12467 13.4583 2.12467ZM9.20833 12.7497H7.79167V11.333H9.20833V12.7497ZM9.20833 9.91634H7.79167V5.66634H9.20833V9.91634ZM8.5 3.54134C8.11042 3.54134 7.79167 3.22259 7.79167 2.83301C7.79167 2.44342 8.11042 2.12467 8.5 2.12467C8.88958 2.12467 9.20833 2.44342 9.20833 2.83301C9.20833 3.22259 8.88958 3.54134 8.5 3.54134Z" fill="#326699"/>
</svg>
