<svg width="140" height="34" viewBox="0 0 140 34" fill="none" xmlns="http://www.w3.org/2000/svg">
<path fill-rule="evenodd" clip-rule="evenodd" d="M15.6077 5.41948H18.416V8.29321H21.2247V11.1669H18.416V14.0406H15.6077V11.1669H12.7993V8.29321H15.6077V5.41948Z" fill="#326699"/>
<path fill-rule="evenodd" clip-rule="evenodd" d="M9.48634 9.55986C9.48634 11.5979 10.2507 13.6725 11.706 15.349C13.0129 16.8547 14.5267 18.3478 16.0404 19.8413L17.0124 20.8013L17.9848 19.8413C19.4982 18.3478 21.012 16.8547 22.3189 15.349C23.7742 13.6725 24.5386 11.5975 24.5386 9.55986C24.5386 7.63395 23.8453 5.73597 22.3938 4.25072C20.9085 2.73046 18.9603 1.96993 17.0124 1.96993C15.0646 1.96993 13.1167 2.73046 11.6311 4.25072C10.18 5.73597 9.48634 7.63395 9.48634 9.55986ZM17.0124 23.5574C14.7651 21.257 12.2662 18.9573 10.2699 16.6576C6.77219 12.6287 6.54572 6.66844 10.2699 2.85793C13.9938 -0.952576 20.0311 -0.952576 23.7553 2.85793C27.4792 6.66844 27.2527 12.6283 23.7553 16.6576C21.7583 18.9573 19.2598 21.257 17.0124 23.5574Z" fill="#FFCC00"/>
<path fill-rule="evenodd" clip-rule="evenodd" d="M19.4518 27.5939L18.5132 26.5037C19.3137 26.5368 20.06 25.8297 20.8425 26.4628C22.0044 27.4031 23.2194 28.0767 25.8725 28.5673C26.3112 28.6484 25.6298 29.1862 23.4109 29.0021C21.5446 28.8475 23.5597 29.4077 21.2135 29.1854C20.398 29.1079 20.8344 29.3019 22.3251 29.5899C23.0722 29.7343 22.8084 30.4024 18.7481 30.1454C15.9936 29.9715 15.4722 30.0687 11.8553 30.2249C10.6406 30.2772 8.70276 29.7229 10.7187 29.3062C11.8295 29.0768 8.01221 28.8329 8.01221 28.5241C8.01221 28.2065 9.8924 27.8103 10.7287 27.5511C12.304 27.0624 13.6066 26.3239 14.1965 25.8589C16.2889 24.2087 16.7737 26.2255 19.4518 27.5939Z" fill="#326699"/>
<path fill-rule="evenodd" clip-rule="evenodd" d="M31.358 28.9566C33.0425 29.4252 34.0187 29.9819 34.0187 30.5791C34.0187 32.2477 26.403 33.6 17.0094 33.6C7.61534 33.6 0 32.2477 0 30.5791C0 29.9819 0.97662 29.4252 2.66071 28.9566C1.8079 29.2772 1.33305 29.6321 1.33305 30.0051C1.33305 31.4412 8.35165 32.6054 17.0094 32.6054C25.6671 32.6054 32.6857 31.4412 32.6857 30.0051C32.6857 29.6321 32.2112 29.2772 31.358 28.9566Z" fill="#FFCC00"/>
<path fill-rule="evenodd" clip-rule="evenodd" d="M28.4888 28.7795C29.8361 29.0904 30.617 29.4594 30.617 29.8548C30.617 30.9604 24.5243 31.8567 17.0089 31.8567C9.49352 31.8567 3.40039 30.9604 3.40039 29.8548C3.40039 29.4594 4.18169 29.0904 5.52935 28.7795C4.84687 28.9924 4.46699 29.2273 4.46699 29.4748C4.46699 30.4265 10.0822 31.1977 17.0089 31.1977C23.9356 31.1977 29.5508 30.4265 29.5508 29.4748C29.5508 29.2273 29.1705 28.9924 28.4888 28.7795Z" fill="#FFCC00"/>
<path d="M42.1644 7.67574H45.7674V12.9206H47.9083V15.9985H45.7674V27.1307H42.1644V15.9985H40.3218V12.9206H42.1644V7.67574Z" fill="#326699"/>
<path d="M56.6909 15.8344C55.571 15.8344 54.6406 16.2225 53.9045 17.0029C53.1643 17.7791 52.7938 18.7777 52.7938 19.9954C52.7938 21.2221 53.1685 22.2305 53.9228 23.024C54.6771 23.8141 55.6026 24.2105 56.705 24.2105C57.8382 24.2105 58.7819 23.8223 59.5271 23.042C60.2765 22.2658 60.652 21.245 60.652 19.9822C60.652 18.7465 60.2765 17.7479 59.5271 16.9799C58.7819 16.2176 57.8332 15.8344 56.6909 15.8344ZM60.4892 12.9166H64.093V27.1275H60.4892V25.6152C59.7847 26.2758 59.0752 26.7484 58.3666 27.038C57.6579 27.3285 56.8853 27.4762 56.0587 27.4762C54.1936 27.4762 52.5861 26.7664 51.227 25.3436C49.8678 23.9249 49.1899 22.1591 49.1899 20.0495C49.1899 17.8595 49.8496 16.0658 51.1638 14.6652C52.4781 13.2694 54.0723 12.5695 55.9507 12.5695C56.8172 12.5695 57.6255 12.7303 58.3848 13.0471C59.1433 13.363 59.8428 13.8446 60.4892 14.4781V12.9166Z" fill="#326699"/>
<path d="M67.7026 12.9207H71.3057V14.5798C71.9246 13.907 72.6108 13.4031 73.3701 13.0733C74.1236 12.7377 74.9502 12.5728 75.8441 12.5728C76.743 12.5728 77.5605 12.7918 78.2832 13.2292C79.0102 13.6657 79.5925 14.3082 80.0353 15.1468C80.6086 14.3082 81.313 13.6657 82.1488 13.2292C82.9845 12.7918 83.9009 12.5728 84.8895 12.5728C85.9146 12.5728 86.8177 12.8091 87.5944 13.2784C88.3762 13.7461 88.9311 14.3615 89.2742 15.1156C89.6132 15.8738 89.7852 17.1046 89.7852 18.8088V27.1307H86.1813V19.9502C86.1813 18.3444 85.9786 17.2564 85.5674 16.6902C85.1561 16.1232 84.5372 15.8385 83.7198 15.8385C83.0925 15.8385 82.5326 16.0125 82.04 16.3595C81.544 16.7033 81.1726 17.185 80.9334 17.7955C80.6949 18.4076 80.5728 19.3881 80.5728 20.7445V27.1307H76.969V20.276C76.969 19.009 76.8743 18.0909 76.6799 17.5239C76.4905 16.9528 76.2013 16.5335 75.8217 16.2529C75.4387 15.9763 74.9726 15.8385 74.431 15.8385C73.8262 15.8385 73.2754 16.0125 72.7828 16.3645C72.286 16.7165 71.9204 17.208 71.672 17.8406C71.4278 18.4741 71.3057 19.4726 71.3057 20.8339V27.1307H67.7026V12.9207Z" fill="#326699"/>
<path d="M100.044 15.8344C98.924 15.8344 97.9928 16.2225 97.2575 17.0029C96.5165 17.7791 96.1468 18.7777 96.1468 19.9954C96.1468 21.2221 96.5215 22.2305 97.2758 23.024C98.0285 23.8141 98.9548 24.2105 100.057 24.2105C101.191 24.2105 102.134 23.8224 102.88 23.042C103.629 22.2658 104.005 21.245 104.005 19.9822C104.005 18.7465 103.629 17.7479 102.88 16.9799C102.134 16.2176 101.186 15.8344 100.044 15.8344ZM103.84 12.9166H107.444V27.1275H103.84V25.6152C103.137 26.2758 102.427 26.7484 101.719 27.038C101.009 27.3285 100.238 27.4762 99.4109 27.4762C97.5466 27.4762 95.9391 26.7664 94.5792 25.3436C93.2209 23.9249 92.543 22.1591 92.543 20.0495C92.543 17.8595 93.2018 16.0658 94.516 14.6652C95.8303 13.2694 97.4253 12.5695 99.302 12.5695C100.17 12.5695 100.979 12.7303 101.736 13.0471C102.495 13.363 103.195 13.8446 103.84 14.4781V12.9166Z" fill="#326699"/>
<path d="M111.086 12.9207H114.69V14.3837C115.506 13.7059 116.253 13.2382 116.917 12.9707C117.58 12.7065 118.262 12.5728 118.958 12.5728C120.383 12.5728 121.599 13.0634 122.592 14.0448C123.427 14.8834 123.848 16.1183 123.848 17.752V27.1307H120.272V20.9184C120.272 19.224 120.194 18.0999 120.041 17.546C119.888 16.9889 119.617 16.5647 119.237 16.275C118.854 15.9846 118.378 15.8385 117.819 15.8385C117.089 15.8385 116.461 16.0789 115.936 16.5606C115.412 17.0422 115.05 17.7118 114.847 18.5586C114.743 19.0049 114.69 19.9633 114.69 21.4403V27.1307H111.086V12.9207Z" fill="#326699"/>
<path d="M127.348 12.9174H131.005V19.7508C131.005 21.0801 131.099 22.0032 131.285 22.5202C131.471 23.0379 131.767 23.4392 132.179 23.7296C132.591 24.0144 133.1 24.1571 133.701 24.1571C134.302 24.1571 134.816 24.0144 135.237 23.7337C135.657 23.4531 135.968 23.0379 136.171 22.4898C136.321 22.0795 136.397 21.2048 136.397 19.8674V12.9174H140V18.9303C140 21.41 139.802 23.1052 139.405 24.0193C138.922 25.1344 138.202 25.9861 137.26 26.5835C136.316 27.1775 135.115 27.4762 133.66 27.4762C132.079 27.4762 130.807 27.1275 129.83 26.4325C128.855 25.7367 128.168 24.7684 127.771 23.5245C127.487 22.6637 127.348 21.0982 127.348 18.8277V12.9174Z" fill="#326699"/>
</svg>
