<?xml version="1.0" encoding="UTF-8" standalone="no"?>
<svg
   xmlns:dc="http://purl.org/dc/elements/1.1/"
   xmlns:cc="http://creativecommons.org/ns#"
   xmlns:rdf="http://www.w3.org/1999/02/22-rdf-syntax-ns#"
   xmlns:svg="http://www.w3.org/2000/svg"
   xmlns="http://www.w3.org/2000/svg"
   version="1.1"
   id="svg2"
   xml:space="preserve"
   width="231.41199"
   height="231.41866"
   viewBox="0 0 231.41199 231.41866"><metadata
     id="metadata8"><rdf:RDF><cc:Work
         rdf:about=""><dc:format>image/svg+xml</dc:format><dc:type
           rdf:resource="http://purl.org/dc/dcmitype/StillImage" /></cc:Work></rdf:RDF></metadata><defs
     id="defs6"><clipPath
       clipPathUnits="userSpaceOnUse"
       id="clipPath18"><path
         d="M 0,283.46 H 283.46 V 0 H 0 Z"
         id="path16" /></clipPath></defs><g
     id="g10"
     transform="matrix(1.3333333,0,0,-1.3333333,-73.267731,304.68253)"><g
       id="g12"><g
         id="g14"
         clip-path="url(#clipPath18)"><g
           id="g20"
           transform="translate(225.6973,141.7329)"><path
             d="m 0,0 c 0,-46.378 -37.594,-83.972 -83.965,-83.972 -46.375,0 -83.969,37.594 -83.969,83.972 0,46.373 37.594,83.967 83.969,83.967 C -37.594,83.967 0,46.373 0,0"
             style="fill:#ffdc24;fill-opacity:1;fill-rule:nonzero;stroke:none"
             id="path22" /></g><g
           id="g24"
           transform="translate(222.8848,141.7329)"><path
             d="m 0,0 c -0.002,22.419 -9.08,42.689 -23.77,57.385 -14.695,14.69 -34.964,23.768 -57.383,23.769 -22.42,-10e-4 -42.691,-9.079 -57.386,-23.769 C -153.23,42.689 -162.308,22.419 -162.309,0 c 0.001,-22.421 9.079,-42.695 23.77,-57.39 14.695,-14.692 34.966,-23.77 57.386,-23.77 22.419,0 42.688,9.078 57.383,23.77 C -9.08,-42.695 -0.002,-22.421 0,0 m 5.625,0 c 0,-23.957 -9.719,-45.671 -25.418,-61.367 -15.695,-15.701 -37.406,-25.42 -61.36,-25.418 -23.955,-0.002 -45.668,9.717 -61.364,25.418 -15.699,15.696 -25.419,37.41 -25.417,61.367 -0.002,23.954 9.718,45.667 25.417,61.362 15.696,15.7 37.409,25.419 61.364,25.417 23.954,0.002 45.665,-9.717 61.36,-25.417 C -4.094,45.667 5.625,23.954 5.625,0 m -133.309,-12.089 v -22.106 h 21.883 v 31.094 h 18.109 v -31.094 h 53.075 v 22.106 l -46.536,70.427 z m 120.026,-13.633 -20.994,12.119 c -0.61,0.357 -1.395,0.146 -1.746,-0.467 -0.358,-0.611 -0.153,-1.396 0.462,-1.748 l 20.995,-12.123 c 0.615,-0.355 1.4,-0.144 1.752,0.469 0.351,0.613 0.146,1.394 -0.469,1.75 M -35.59,-6.16 c -0.351,-0.611 -0.14,-1.396 0.469,-1.748 l 20.994,-12.123 c 0.615,-0.355 1.395,-0.144 1.752,0.469 0.357,0.613 0.141,1.395 -0.469,1.752 l -20.994,12.119 c -0.615,0.356 -1.4,0.145 -1.752,-0.469 m -5.185,7.91 c -0.352,-0.611 -0.147,-1.395 0.468,-1.748 l 20.995,-12.123 c 0.615,-0.351 1.4,-0.144 1.751,0.469 0.352,0.615 0.141,1.395 -0.468,1.752 L -39.023,2.219 c -0.616,0.355 -1.401,0.144 -1.752,-0.469 m -5.186,7.914 c -0.352,-0.615 -0.146,-1.398 0.469,-1.752 L -24.498,-4.21 c 0.615,-0.352 1.394,-0.141 1.746,0.468 0.357,0.616 0.147,1.399 -0.463,1.752 l -20.994,12.119 c -0.615,0.359 -1.4,0.148 -1.752,-0.465 m -5.185,7.91 c -0.352,-0.613 -0.147,-1.398 0.468,-1.75 L -29.684,3.703 c 0.61,-0.355 1.395,-0.144 1.747,0.469 0.357,0.611 0.146,1.394 -0.463,1.748 l -21,12.123 c -0.61,0.355 -1.395,0.144 -1.746,-0.469 m -5.186,7.914 c -0.357,-0.617 -0.147,-1.398 0.469,-1.754 l 20.994,-12.121 c 0.609,-0.355 1.394,-0.148 1.746,0.469 0.352,0.611 0.146,1.395 -0.469,1.748 L -54.58,25.957 c -0.615,0.352 -1.4,0.141 -1.752,-0.469 m -5.186,7.907 c -0.357,-0.61 -0.146,-1.395 0.469,-1.75 l 20.994,-12.122 c 0.61,-0.351 1.395,-0.144 1.746,0.471 0.358,0.61 0.147,1.395 -0.462,1.748 l -21,12.121 c -0.61,0.356 -1.395,0.145 -1.747,-0.468 m -5.185,7.914 c -0.358,-0.614 -0.147,-1.399 0.469,-1.754 L -45.24,27.436 c 0.609,-0.354 1.394,-0.147 1.746,0.468 0.351,0.612 0.146,1.395 -0.469,1.746 l -20.994,12.127 c -0.609,0.352 -1.395,0.141 -1.746,-0.468 m -5.186,7.91 c -0.357,-0.614 -0.146,-1.399 0.469,-1.75 l 20.988,-12.123 c 0.616,-0.354 1.401,-0.143 1.752,0.468 0.352,0.612 0.141,1.395 -0.468,1.749 l -20.995,12.125 c -0.609,0.351 -1.394,0.142 -1.746,-0.469 m -5.185,7.91 c -0.356,-0.613 -0.147,-1.399 0.463,-1.75 l 21,-12.123 c 0.609,-0.354 1.394,-0.143 1.746,0.469 0.351,0.611 0.14,1.396 -0.469,1.752 l -20.994,12.121 c -0.61,0.353 -1.395,0.142 -1.746,-0.469 m -56.583,-70.732 -20.992,-12.119 c -0.609,-0.356 -0.824,-1.137 -0.467,-1.75 0.354,-0.613 1.137,-0.824 1.748,-0.469 l 20.996,12.123 c 0.612,0.352 0.821,1.137 0.469,1.748 -0.355,0.613 -1.137,0.824 -1.754,0.467 m -14.523,-6.428 20.992,12.123 c 0.613,0.352 0.82,1.137 0.469,1.748 -0.354,0.614 -1.137,0.825 -1.748,0.469 l -20.994,-12.119 c -0.614,-0.357 -0.825,-1.139 -0.469,-1.752 0.351,-0.613 1.137,-0.824 1.75,-0.469 m 5.183,7.91 L -122,0.002 c 0.611,0.353 0.824,1.137 0.468,1.748 -0.351,0.613 -1.136,0.824 -1.75,0.469 L -144.276,-9.9 c -0.611,-0.357 -0.822,-1.137 -0.469,-1.752 0.354,-0.613 1.137,-0.82 1.748,-0.469 m 5.188,7.911 20.992,12.122 c 0.613,0.354 0.82,1.137 0.469,1.752 -0.354,0.613 -1.137,0.824 -1.748,0.465 L -139.09,-1.99 c -0.614,-0.353 -0.825,-1.136 -0.469,-1.752 0.355,-0.609 1.141,-0.82 1.75,-0.468 m 5.184,7.913 20.998,12.121 c 0.609,0.352 0.822,1.137 0.466,1.75 -0.351,0.613 -1.136,0.824 -1.75,0.469 L -133.905,5.92 c -0.611,-0.354 -0.822,-1.137 -0.467,-1.748 0.352,-0.613 1.135,-0.824 1.747,-0.469 m 5.189,7.91 20.99,12.121 c 0.617,0.356 0.828,1.137 0.469,1.754 -0.352,0.61 -1.137,0.821 -1.746,0.469 L -128.719,13.83 c -0.61,-0.353 -0.824,-1.137 -0.465,-1.748 0.351,-0.617 1.137,-0.824 1.748,-0.469 m 5.186,7.91 20.994,12.122 c 0.611,0.355 0.822,1.14 0.468,1.75 -0.351,0.613 -1.136,0.824 -1.748,0.468 l -20.996,-12.121 c -0.613,-0.353 -0.82,-1.138 -0.468,-1.748 0.355,-0.615 1.136,-0.822 1.75,-0.471 m 5.187,7.913 20.992,12.119 c 0.613,0.355 0.824,1.14 0.469,1.754 -0.356,0.609 -1.137,0.82 -1.75,0.468 L -118.344,29.65 c -0.614,-0.351 -0.828,-1.134 -0.473,-1.746 0.356,-0.615 1.141,-0.822 1.754,-0.468 m 5.188,7.91 20.99,12.123 c 0.615,0.351 0.822,1.136 0.468,1.75 -0.351,0.611 -1.138,0.82 -1.748,0.469 l -20.996,-12.125 c -0.611,-0.354 -0.82,-1.137 -0.464,-1.749 0.351,-0.611 1.136,-0.822 1.75,-0.468 m 5.183,7.91 20.992,12.123 c 0.614,0.351 0.826,1.137 0.469,1.75 -0.355,0.611 -1.137,0.822 -1.75,0.469 l -20.992,-12.121 c -0.613,-0.356 -0.82,-1.141 -0.469,-1.752 0.354,-0.612 1.137,-0.823 1.75,-0.469 m 3.438,8.379 c -0.356,0.611 -0.147,1.396 0.464,1.748 l 20.998,12.127 c 0.051,0.029 0.106,0.032 0.159,0.053 0.078,0.032 0.154,0.063 0.237,0.08 0.083,0.015 0.161,0.017 0.244,0.017 0.082,0 0.161,-0.002 0.243,-0.017 0.083,-0.017 0.158,-0.047 0.236,-0.08 0.053,-0.021 0.11,-0.024 0.161,-0.053 L -59.52,53.383 c 0.61,-0.352 0.821,-1.137 0.469,-1.748 -0.351,-0.612 -1.137,-0.822 -1.752,-0.469 l -20.349,11.753 -20.352,-11.753 c -0.614,-0.353 -1.399,-0.143 -1.75,0.469"
             style="fill:#4d4c4e;fill-opacity:1;fill-rule:nonzero;stroke:none"
             id="path26" /></g></g></g></g></svg>