<?xml version="1.0" encoding="UTF-8" standalone="no"?>
<svg
   xmlns:dc="http://purl.org/dc/elements/1.1/"
   xmlns:cc="http://creativecommons.org/ns#"
   xmlns:rdf="http://www.w3.org/1999/02/22-rdf-syntax-ns#"
   xmlns:svg="http://www.w3.org/2000/svg"
   xmlns="http://www.w3.org/2000/svg"
   version="1.1"
   id="svg2"
   xml:space="preserve"
   width="231.41733"
   height="231.41466"
   viewBox="0 0 231.41733 231.41466"><metadata
     id="metadata8"><rdf:RDF><cc:Work
         rdf:about=""><dc:format>image/svg+xml</dc:format><dc:type
           rdf:resource="http://purl.org/dc/dcmitype/StillImage" /></cc:Work></rdf:RDF></metadata><defs
     id="defs6"><clipPath
       clipPathUnits="userSpaceOnUse"
       id="clipPath18"><path
         d="M 0,283.46 H 283.46 V 0 H 0 Z"
         id="path16" /></clipPath></defs><g
     id="g10"
     transform="matrix(1.3333333,0,0,-1.3333333,-73.265598,304.68093)"><g
       id="g12"><g
         id="g14"
         clip-path="url(#clipPath18)"><g
           id="g20"
           transform="translate(225.6992,141.729)"><path
             d="m 0,0 c 0,-46.373 -37.594,-83.966 -83.969,-83.966 -46.373,0 -83.969,37.593 -83.969,83.966 0,46.375 37.596,83.969 83.969,83.969 C -37.594,83.969 0,46.375 0,0"
             style="fill:#ffdb00;fill-opacity:1;fill-rule:nonzero;stroke:none"
             id="path22" /></g><g
           id="g24"
           transform="translate(199.1172,84.3447)"><path
             d="m 0,0 c -14.695,-14.69 -34.967,-23.769 -57.387,-23.77 -22.419,0.001 -42.69,9.08 -57.386,23.77 -14.691,14.695 -23.769,34.966 -23.77,57.384 0.001,22.42 9.079,42.691 23.77,57.387 14.696,14.69 34.967,23.768 57.386,23.77 22.42,-0.002 42.692,-9.08 57.387,-23.77 C 14.69,100.075 23.769,79.804 23.77,57.384 23.769,34.966 14.69,14.695 0,0 m 3.977,118.748 c -15.696,15.7 -37.409,25.419 -61.364,25.418 -23.954,0.001 -45.668,-9.718 -61.363,-25.418 -15.7,-15.695 -25.42,-37.408 -25.418,-61.364 -0.002,-23.953 9.718,-45.666 25.418,-61.362 15.695,-15.699 37.409,-25.418 61.363,-25.417 23.955,-0.001 45.668,9.718 61.364,25.417 15.7,15.696 25.419,37.409 25.418,61.362 0.001,23.955 -9.718,45.669 -25.418,61.364 M 5.027,47.865 C 3.865,42.904 2.422,38.705 1.035,35.316 -0.342,31.924 -1.666,29.34 -2.605,27.594 -2.661,27.493 -2.71,27.405 -2.763,27.31 L -4.66,28.4 c 0.045,0.08 0.086,0.154 0.133,0.239 0.91,1.695 2.193,4.199 3.535,7.504 1.344,3.298 2.758,7.388 3.885,12.216 1.113,4.83 1.98,10.406 1.962,16.629 -0.023,3.113 -0.251,6.385 -0.884,9.763 -0.627,3.383 -1.639,6.885 -3.28,10.323 -1.632,3.431 -3.951,6.795 -6.988,9.609 -3.027,2.822 -6.75,5.02 -10.703,6.4 -1.975,0.7 -4.004,1.208 -6.047,1.559 -1.019,0.184 -2.039,0.305 -3.066,0.412 -0.514,0.043 -1.024,0.084 -1.533,0.127 -0.483,0.024 -0.967,0.051 -1.454,0.072 -3.877,0.184 -7.814,0.163 -11.779,-0.146 -7.926,-0.623 -15.977,-2.285 -23.606,-5.352 -7.609,-3.054 -14.844,-7.464 -20.672,-13.547 -2.9,-3.042 -5.437,-6.515 -7.269,-10.455 -0.907,-1.966 -1.637,-4.05 -2.11,-6.22 -0.472,-2.172 -0.672,-4.438 -0.531,-6.705 0.131,-2.262 0.6,-4.518 1.391,-6.627 0.785,-2.115 1.881,-4.074 3.179,-5.793 1.293,-1.724 2.774,-3.224 4.332,-4.508 1.559,-1.285 3.188,-2.371 4.832,-3.31 0.415,-0.223 0.829,-0.451 1.243,-0.674 0.412,-0.205 0.828,-0.406 1.242,-0.613 0.412,-0.201 0.832,-0.383 1.246,-0.565 0.406,-0.17 0.816,-0.345 1.217,-0.515 1.474,-0.6 2.92,-1.19 4.342,-1.77 2.835,-1.166 5.562,-2.308 8.16,-3.428 3.439,-1.483 6.637,-2.933 9.555,-4.35 l -1.244,-1.831 c -2.802,1.355 -5.876,2.747 -9.178,4.174 -2.583,1.113 -5.295,2.248 -8.125,3.41 -1.418,0.578 -2.864,1.168 -4.329,1.765 -0.423,0.18 -0.845,0.36 -1.269,0.541 -0.442,0.186 -0.877,0.375 -1.313,0.596 -0.437,0.213 -0.875,0.424 -1.312,0.641 -0.434,0.238 -0.875,0.474 -1.311,0.715 -1.746,0.992 -3.482,2.148 -5.156,3.531 -1.674,1.379 -3.271,2.996 -4.682,4.877 -1.414,1.873 -2.617,4.019 -3.484,6.334 -0.863,2.32 -1.383,4.798 -1.525,7.273 -0.153,2.482 0.07,4.945 0.58,7.289 0.508,2.351 1.293,4.584 2.265,6.685 1.957,4.2 4.637,7.858 7.668,11.047 6.104,6.365 13.598,10.914 21.444,14.067 7.863,3.158 16.131,4.865 24.252,5.5 4.063,0.316 8.094,0.341 12.053,0.152 0.494,-0.025 0.99,-0.047 1.482,-0.072 0.539,-0.045 1.073,-0.09 1.612,-0.133 1.076,-0.113 2.15,-0.242 3.228,-0.436 2.151,-0.369 4.301,-0.908 6.402,-1.65 4.207,-1.469 8.211,-3.83 11.463,-6.861 C -1.543,93.267 0.934,89.658 2.67,86.023 4.41,82.369 5.471,78.685 6.125,75.154 6.785,71.619 7.023,68.22 7.043,65 7.064,58.554 6.172,52.824 5.027,47.865 M -6.241,29.309 -8.143,30.4 c 0.029,0.053 0.055,0.099 0.084,0.153 0.862,1.597 2.075,3.972 3.352,7.105 1.273,3.131 2.619,7.022 3.695,11.613 1.055,4.584 1.871,9.875 1.854,15.703 -0.022,2.908 -0.237,5.947 -0.821,9.049 -0.574,3.098 -1.494,6.268 -2.951,9.32 -1.453,3.045 -3.472,5.967 -6.101,8.397 -2.617,2.437 -5.821,4.34 -9.305,5.56 -3.48,1.233 -7.23,1.817 -10.961,1.942 -3.711,0.177 -7.488,0.158 -11.275,-0.139 -7.573,-0.59 -15.223,-2.18 -22.421,-5.074 -3.595,-1.438 -7.062,-3.199 -10.328,-5.285 -3.234,-2.108 -6.285,-4.514 -8.933,-7.305 -2.645,-2.783 -4.922,-5.918 -6.528,-9.373 -1.593,-3.44 -2.523,-7.24 -2.281,-11.002 0.111,-1.877 0.498,-3.723 1.148,-5.457 0.645,-1.734 1.541,-3.351 2.631,-4.787 2.166,-2.9 5.004,-5.068 7.928,-6.736 1.459,-0.844 2.988,-1.514 4.484,-2.141 1.475,-0.603 2.928,-1.195 4.352,-1.777 2.855,-1.17 5.605,-2.318 8.227,-3.455 3.68,-1.587 7.111,-3.146 10.245,-4.681 l -1.244,-1.831 c -3.016,1.472 -6.319,2.97 -9.873,4.502 -2.603,1.125 -5.335,2.274 -8.187,3.44 -1.424,0.58 -2.871,1.172 -4.342,1.769 -1.558,0.656 -3.185,1.371 -4.74,2.268 -3.117,1.781 -6.203,4.119 -8.602,7.328 -1.201,1.59 -2.209,3.394 -2.929,5.334 -0.731,1.939 -1.164,4.007 -1.285,6.093 -0.127,2.092 0.058,4.19 0.5,6.213 0.437,2.027 1.121,3.982 1.984,5.844 1.724,3.718 4.148,7.035 6.928,9.961 5.603,5.847 12.619,10.136 20.029,13.109 7.434,2.986 15.303,4.617 23.071,5.227 3.886,0.304 7.75,0.326 11.554,0.144 0.473,-0.021 0.946,-0.047 1.42,-0.07 l 1.477,-0.123 c 0.982,-0.104 1.957,-0.221 2.935,-0.393 1.95,-0.336 3.875,-0.82 5.747,-1.478 3.738,-1.311 7.226,-3.373 10.066,-6.022 2.855,-2.64 5.031,-5.803 6.588,-9.058 1.556,-3.262 2.525,-6.614 3.129,-9.864 0.609,-3.257 0.83,-6.422 0.853,-9.441 C 3.047,58.939 2.201,53.492 1.117,48.775 0.012,44.057 -1.371,40.053 -2.68,36.828 c -1.312,-3.223 -2.562,-5.672 -3.453,-7.322 -0.038,-0.07 -0.072,-0.13 -0.108,-0.197 m -3.423,2.117 c -0.023,-0.041 -0.041,-0.075 -0.064,-0.114 l -1.898,1.089 c 0.013,0.024 0.023,0.042 0.036,0.066 0.813,1.502 1.957,3.74 3.164,6.705 1.207,2.965 2.483,6.662 3.5,11.01 1.004,4.341 1.772,9.347 1.75,14.771 -0.015,2.711 -0.219,5.519 -0.746,8.338 -0.521,2.82 -1.353,5.654 -2.629,8.316 -1.269,2.662 -3,5.144 -5.211,7.193 -2.203,2.049 -4.894,3.655 -7.91,4.713 -1.512,0.535 -3.094,0.936 -4.73,1.219 -0.817,0.141 -1.651,0.244 -2.483,0.33 -0.424,0.041 -0.845,0.074 -1.265,0.107 -0.452,0.02 -0.893,0.043 -1.336,0.067 -3.561,0.168 -7.17,0.148 -10.782,-0.133 -7.212,-0.566 -14.474,-2.082 -21.229,-4.801 -3.38,-1.351 -6.625,-3.004 -9.648,-4.935 -3.004,-1.953 -5.813,-4.172 -8.203,-6.7 -2.399,-2.517 -4.414,-5.314 -5.791,-8.287 -1.373,-2.964 -2.111,-6.107 -1.92,-9.084 0.176,-2.976 1.23,-5.753 2.986,-8.067 1.735,-2.336 4.127,-4.184 6.69,-5.649 1.291,-0.744 2.64,-1.336 4.019,-1.916 1.479,-0.609 2.938,-1.201 4.371,-1.787 2.871,-1.178 5.637,-2.336 8.289,-3.477 3.923,-1.695 7.587,-3.36 10.935,-5.016 l -1.244,-1.83 c -3.229,1.591 -6.764,3.197 -10.558,4.833 -2.633,1.136 -5.392,2.295 -8.252,3.468 -1.429,0.581 -2.888,1.174 -4.365,1.776 -1.441,0.609 -2.891,1.242 -4.271,2.045 -2.756,1.57 -5.391,3.595 -7.366,6.236 -1.988,2.621 -3.226,5.857 -3.418,9.257 -0.218,3.409 0.623,6.905 2.118,10.131 1.5,3.237 3.662,6.217 6.193,8.879 2.529,2.67 5.471,4.99 8.607,7.029 3.147,2.016 6.52,3.727 10.014,5.127 6.997,2.815 14.467,4.368 21.879,4.95 3.703,0.289 7.407,0.31 11.051,0.136 3.633,-0.125 7.158,-0.685 10.432,-1.841 3.277,-1.147 6.246,-2.914 8.676,-5.176 2.437,-2.258 4.33,-4.979 5.701,-7.852 1.371,-2.877 2.25,-5.892 2.802,-8.859 0.555,-2.975 0.766,-5.908 0.784,-8.729 C -0.963,59.322 -1.76,54.16 -2.791,49.684 -3.844,45.207 -5.152,41.398 -6.395,38.346 -7.643,35.287 -8.82,32.979 -9.664,31.426 m -3.522,1.912 c -0.005,-0.011 -0.01,-0.02 -0.017,-0.03 l -1.901,1.092 c 0.754,1.401 1.827,3.495 2.959,6.289 1.141,2.795 2.348,6.293 3.307,10.401 0.949,4.101 1.666,8.824 1.651,13.851 -0.022,2.506 -0.209,5.084 -0.68,7.619 -0.473,2.535 -1.215,5.037 -2.305,7.315 -1.086,2.281 -2.521,4.316 -4.316,5.98 -1.803,1.668 -3.977,2.978 -6.526,3.873 -1.271,0.453 -2.636,0.797 -4.066,1.045 -0.717,0.127 -1.453,0.217 -2.197,0.295 -0.375,0.031 -0.75,0.062 -1.131,0.094 -0.424,0.021 -0.846,0.043 -1.276,0.062 -3.398,0.164 -6.845,0.145 -10.273,-0.127 -6.861,-0.535 -13.727,-1.976 -20.047,-4.521 -3.163,-1.266 -6.176,-2.805 -8.965,-4.586 -2.774,-1.801 -5.332,-3.832 -7.477,-6.094 -2.144,-2.25 -3.898,-4.713 -5.049,-7.203 -1.15,-2.488 -1.701,-4.973 -1.552,-7.162 0.136,-2.192 0.861,-4.131 2.187,-5.894 1.305,-1.768 3.246,-3.305 5.459,-4.565 0.279,-0.152 0.557,-0.304 0.844,-0.457 0.287,-0.14 0.584,-0.287 0.873,-0.427 0.287,-0.147 0.59,-0.28 0.894,-0.405 l 0.45,-0.195 c 0.16,-0.068 0.277,-0.127 0.48,-0.203 1.492,-0.61 2.953,-1.203 4.393,-1.793 2.888,-1.184 5.672,-2.35 8.355,-3.51 4.154,-1.791 8.046,-3.565 11.619,-5.35 l -1.24,-1.826 c -3.452,1.716 -7.217,3.431 -11.246,5.166 -2.666,1.149 -5.443,2.315 -8.32,3.496 -1.436,0.582 -2.901,1.18 -4.381,1.786 -0.33,0.138 -0.656,0.281 -0.985,0.419 -0.324,0.139 -0.648,0.276 -0.957,0.434 -0.312,0.152 -0.632,0.307 -0.943,0.459 -0.305,0.168 -0.609,0.332 -0.916,0.502 -2.406,1.371 -4.592,3.08 -6.133,5.154 -1.558,2.064 -2.465,4.461 -2.617,7.08 -0.178,2.619 0.473,5.463 1.744,8.211 1.279,2.756 3.174,5.396 5.455,7.795 2.28,2.406 4.981,4.541 7.871,6.424 2.918,1.865 6.059,3.464 9.344,4.777 6.557,2.641 13.637,4.123 20.69,4.67 3.527,0.281 7.064,0.297 10.553,0.137 0.437,-0.026 0.871,-0.047 1.301,-0.069 0.406,-0.035 0.808,-0.068 1.203,-0.099 0.8,-0.086 1.591,-0.18 2.363,-0.317 1.539,-0.265 3.023,-0.64 4.426,-1.135 2.804,-0.988 5.261,-2.459 7.277,-4.334 2.027,-1.875 3.621,-4.152 4.809,-6.64 1.187,-2.49 1.98,-5.172 2.476,-7.862 0.504,-2.691 0.703,-5.394 0.723,-8.009 0.014,-5.246 -0.731,-10.125 -1.709,-14.353 -0.99,-4.241 -2.233,-7.85 -3.41,-10.737 -1.174,-2.892 -2.291,-5.062 -3.071,-6.523 m -33.152,0.291 c 4.219,-2.238 7.828,-4.483 10.654,-6.709 1.416,-1.109 2.635,-2.211 3.643,-3.262 1.018,-1.051 1.811,-2.058 2.414,-2.931 0.607,-0.862 1.002,-1.606 1.264,-2.108 0.136,-0.248 0.213,-0.453 0.277,-0.582 0.063,-0.135 0.09,-0.199 0.09,-0.199 0,0 0.129,-0.27 0.332,-0.815 0.215,-0.533 0.48,-1.373 0.699,-2.502 0.209,-1.13 0.317,-2.585 0.102,-4.226 -0.207,-1.639 -0.731,-3.443 -1.61,-5.203 -0.851,-1.779 -2.033,-3.52 -3.433,-5.225 -1.403,-1.713 -3.047,-3.363 -4.879,-4.998 -0.906,-0.826 -1.871,-1.629 -2.873,-2.437 -0.117,-0.1 -0.258,-0.205 -0.401,-0.311 l -0.431,-0.322 c -0.291,-0.211 -0.569,-0.44 -0.879,-0.633 -0.615,-0.391 -1.225,-0.809 -1.887,-1.152 -1.291,-0.741 -2.701,-1.332 -4.158,-1.848 -1.465,-0.51 -2.992,-0.873 -4.561,-1.16 -3.146,-0.512 -6.44,-0.59 -9.752,-0.223 -0.83,0.074 -1.656,0.215 -2.494,0.328 -0.41,0.078 -0.83,0.159 -1.242,0.235 l -0.631,0.113 -0.617,0.145 c -1.67,0.347 -3.321,0.837 -4.975,1.359 -3.295,1.096 -6.576,2.484 -9.762,4.187 -3.193,1.688 -6.304,3.664 -9.299,5.887 -3.003,2.223 -5.865,4.721 -8.589,7.418 -2.702,2.717 -5.262,5.656 -7.588,8.809 -0.558,0.759 -1.105,1.532 -1.64,2.314 l 1.768,1.291 c 0.531,-0.779 1.074,-1.548 1.629,-2.305 2.262,-3.062 4.749,-5.916 7.377,-8.562 2.655,-2.617 5.432,-5.051 8.35,-7.203 2.908,-2.162 5.93,-4.084 9.022,-5.713 3.082,-1.65 6.242,-2.988 9.414,-4.043 6.336,-2.064 12.806,-2.861 18.664,-1.875 1.453,0.264 2.871,0.598 4.211,1.066 1.34,0.479 2.635,1.02 3.813,1.698 0.603,0.312 1.156,0.693 1.716,1.047 0.287,0.173 0.539,0.39 0.799,0.578 0.258,0.195 0.535,0.386 0.772,0.582 0.972,0.789 1.91,1.568 2.787,2.359 3.517,3.145 6.269,6.369 7.805,9.551 0.781,1.576 1.23,3.133 1.402,4.523 0.181,1.389 0.09,2.608 -0.086,3.557 -0.18,0.955 -0.412,1.664 -0.59,2.123 -0.172,0.469 -0.291,0.701 -0.291,0.701 0,0 -0.021,0.059 -0.07,0.17 -0.059,0.111 -0.127,0.287 -0.244,0.508 -0.231,0.435 -0.575,1.082 -1.116,1.853 -1.056,1.565 -2.906,3.61 -5.603,5.709 -2.684,2.119 -6.186,4.299 -10.328,6.5 -0.335,0.178 -0.681,0.356 -1.025,0.535 l 1.241,1.823 c 0.269,-0.141 0.543,-0.281 0.809,-0.422 m 1.461,3.763 c 4.538,-2.386 8.483,-4.803 11.674,-7.316 1.543,-1.211 2.902,-2.435 4.058,-3.637 1.157,-1.201 2.098,-2.384 2.823,-3.427 0.726,-1.037 1.213,-1.957 1.537,-2.573 0.164,-0.31 0.273,-0.568 0.349,-0.732 0.077,-0.164 0.116,-0.246 0.116,-0.246 0,0 0.16,-0.33 0.412,-1.022 0.267,-0.677 0.621,-1.75 0.89,-3.207 0.272,-1.455 0.413,-3.347 0.135,-5.445 -0.035,-0.262 -0.074,-0.527 -0.111,-0.793 -0.053,-0.265 -0.106,-0.531 -0.158,-0.801 -0.106,-0.55 -0.27,-1.074 -0.422,-1.629 -0.34,-1.078 -0.762,-2.179 -1.283,-3.228 -1.03,-2.131 -2.389,-4.125 -3.955,-6.024 -1.565,-1.91 -3.346,-3.691 -5.293,-5.437 -0.971,-0.873 -1.989,-1.723 -3.04,-2.576 l -0.205,-0.16 -0.248,-0.188 -0.5,-0.375 c -0.332,-0.242 -0.66,-0.51 -1.021,-0.734 -0.709,-0.455 -1.42,-0.936 -2.186,-1.334 -1.506,-0.862 -3.125,-1.547 -4.804,-2.139 -1.676,-0.586 -3.422,-1.002 -5.2,-1.32 -3.548,-0.584 -7.215,-0.654 -10.84,-0.258 -0.914,0.078 -1.809,0.234 -2.723,0.363 -0.449,0.084 -0.902,0.164 -1.355,0.248 l -0.684,0.129 -0.664,0.151 c -1.812,0.379 -3.584,0.904 -5.363,1.466 -3.531,1.17 -7.016,2.655 -10.387,4.454 -3.383,1.787 -6.66,3.873 -9.812,6.216 -3.164,2.332 -6.17,4.961 -9.031,7.797 -2.846,2.856 -5.54,5.944 -7.985,9.258 -0.563,0.768 -1.114,1.548 -1.655,2.337 l 1.769,1.292 c 0.538,-0.786 1.086,-1.563 1.648,-2.326 2.379,-3.229 4.996,-6.233 7.766,-9.012 2.789,-2.764 5.714,-5.32 8.794,-7.588 3.065,-2.279 6.248,-4.312 9.534,-6.039 3.265,-1.748 6.638,-3.178 10.037,-4.308 1.717,-0.54 3.42,-1.043 5.154,-1.407 l 0.647,-0.146 0.65,-0.123 c 0.43,-0.082 0.863,-0.158 1.293,-0.241 0.871,-0.119 1.724,-0.269 2.598,-0.345 3.453,-0.381 6.918,-0.301 10.242,0.24 1.668,0.305 3.293,0.691 4.858,1.232 1.552,0.551 3.058,1.188 4.453,1.981 0.703,0.371 1.361,0.816 2.017,1.234 0.332,0.211 0.631,0.457 0.948,0.684 l 0.459,0.342 0.23,0.174 0.195,0.156 c 1.026,0.824 2.012,1.65 2.953,2.496 1.881,1.685 3.586,3.396 5.063,5.199 1.477,1.789 2.736,3.652 3.674,5.592 0.949,1.912 1.545,3.924 1.771,5.767 0.244,1.844 0.121,3.502 -0.113,4.78 -0.242,1.279 -0.551,2.22 -0.789,2.824 -0.227,0.609 -0.365,0.908 -0.365,0.908 0,0 -0.037,0.074 -0.108,0.223 -0.068,0.14 -0.16,0.371 -0.308,0.648 -0.285,0.555 -0.727,1.373 -1.389,2.317 -0.656,0.953 -1.521,2.039 -2.596,3.158 -1.074,1.119 -2.361,2.273 -3.838,3.433 -2.941,2.321 -6.638,4.608 -10.921,6.885 -0.206,0.109 -0.428,0.217 -0.636,0.326 z M -113.415,17.65 c -1.192,1.88 -2.316,3.814 -3.339,5.813 l -0.715,1.406 -0.672,1.426 c -0.457,0.947 -0.854,1.932 -1.276,2.898 -0.791,1.957 -1.541,3.944 -2.162,5.977 -0.652,2.016 -1.164,4.084 -1.634,6.158 -0.424,2.084 -0.809,4.178 -1.041,6.291 -0.27,2.11 -0.391,4.227 -0.471,6.342 -0.01,1.055 -0.022,2.111 0,3.164 0.047,1.054 0.053,2.109 0.146,3.152 l 0.121,1.57 c 0.032,0.522 0.108,1.033 0.166,1.557 0.061,0.517 0.116,1.033 0.186,1.549 0.072,0.513 0.156,1.027 0.236,1.539 0.143,1.029 0.358,2.037 0.553,3.049 l 0.149,0.757 0.175,0.723 c 0.114,0.48 0.231,0.961 0.344,1.441 0.238,0.955 0.465,1.913 0.695,2.866 0.264,0.947 0.557,1.888 0.829,2.83 0.138,0.468 0.279,0.935 0.419,1.404 0.135,0.469 0.276,0.934 0.444,1.395 0.33,0.919 0.652,1.839 0.976,2.755 2.618,7.311 6.305,14.092 10.653,19.969 2.226,2.899 4.539,5.639 7.07,8.016 0.313,0.303 0.625,0.605 0.932,0.906 0.318,0.283 0.638,0.566 0.961,0.85 0.642,0.558 1.267,1.127 1.916,1.66 1.32,1.029 2.593,2.078 3.931,2.974 1.307,0.95 2.651,1.764 3.963,2.579 0.656,0.402 1.334,0.753 1.985,1.125 0.333,0.183 0.66,0.363 0.984,0.546 0.328,0.176 0.662,0.332 0.99,0.496 0.654,0.325 1.307,0.643 1.945,0.958 0.647,0.287 1.295,0.57 1.932,0.847 0.629,0.289 1.268,0.529 1.895,0.774 0.627,0.234 1.242,0.49 1.859,0.699 4.922,1.728 9.373,2.703 13.109,3.203 3.739,0.514 6.746,0.602 8.955,0.516 0.393,-0.014 0.753,-0.034 1.096,-0.058 l -0.344,-2.168 c -0.262,0.016 -0.535,0.03 -0.828,0.04 -2.082,0.078 -4.974,-0.004 -8.584,-0.502 -3.607,-0.478 -7.91,-1.426 -12.668,-3.094 -0.599,-0.201 -1.193,-0.449 -1.802,-0.677 -0.602,-0.233 -1.221,-0.467 -1.829,-0.746 -0.617,-0.272 -1.238,-0.543 -1.871,-0.823 -0.617,-0.304 -1.246,-0.609 -1.879,-0.924 -0.316,-0.158 -0.64,-0.312 -0.957,-0.478 -0.312,-0.176 -0.628,-0.348 -0.945,-0.525 -0.633,-0.36 -1.287,-0.702 -1.922,-1.088 -1.261,-0.789 -2.566,-1.579 -3.824,-2.496 -1.297,-0.866 -2.525,-1.874 -3.803,-2.868 -0.621,-0.517 -1.224,-1.066 -1.851,-1.605 -0.305,-0.274 -0.616,-0.547 -0.936,-0.822 -0.289,-0.289 -0.588,-0.582 -0.89,-0.877 -2.442,-2.291 -4.678,-4.946 -6.84,-7.75 -4.207,-5.696 -7.793,-12.278 -10.348,-19.414 -0.316,-0.891 -0.637,-1.788 -0.953,-2.688 -0.164,-0.445 -0.301,-0.904 -0.436,-1.365 -0.134,-0.455 -0.269,-0.916 -0.408,-1.373 -0.265,-0.918 -0.553,-1.838 -0.808,-2.766 -0.225,-0.933 -0.454,-1.867 -0.68,-2.808 -0.469,-1.856 -0.883,-3.823 -1.192,-5.807 -0.076,-0.498 -0.156,-0.996 -0.234,-1.49 -0.064,-0.502 -0.117,-1.004 -0.176,-1.504 -0.052,-0.504 -0.125,-1.002 -0.158,-1.506 l -0.119,-1.523 c -0.094,-1.008 -0.094,-2.028 -0.139,-3.047 -0.025,-1.019 -0.009,-2.039 0,-3.064 0.076,-2.045 0.188,-4.096 0.457,-6.135 0.221,-2.045 0.592,-4.072 1.006,-6.092 0.457,-2.006 0.951,-4.01 1.584,-5.967 0.598,-1.968 1.326,-3.89 2.096,-5.791 0.406,-0.941 0.787,-1.894 1.234,-2.81 l 0.653,-1.389 0.695,-1.359 c 0.973,-1.899 2.037,-3.739 3.166,-5.527 z m 57.329,105.965 c -0.114,0.005 -0.223,0.011 -0.344,0.015 -1.84,0.073 -4.524,0 -7.891,-0.464 -3.363,-0.45 -7.41,-1.333 -11.871,-2.899 -0.557,-0.191 -1.113,-0.422 -1.682,-0.637 -0.572,-0.22 -1.148,-0.435 -1.72,-0.699 -0.574,-0.252 -1.162,-0.508 -1.75,-0.765 -0.574,-0.29 -1.164,-0.579 -1.762,-0.872 -0.293,-0.146 -0.598,-0.289 -0.896,-0.445 -0.288,-0.164 -0.586,-0.332 -0.885,-0.496 -0.59,-0.334 -1.201,-0.65 -1.793,-1.016 -1.184,-0.738 -2.403,-1.47 -3.58,-2.332 -1.213,-0.808 -2.358,-1.755 -3.553,-2.683 -0.584,-0.483 -1.152,-0.996 -1.732,-1.5 -0.288,-0.256 -0.58,-0.512 -0.87,-0.77 -0.277,-0.269 -0.56,-0.547 -0.835,-0.816 -2.293,-2.149 -4.389,-4.641 -6.417,-7.278 -3.955,-5.349 -7.361,-11.57 -9.796,-18.388 -0.303,-0.854 -0.608,-1.707 -0.912,-2.569 -0.157,-0.427 -0.284,-0.863 -0.413,-1.302 -0.129,-0.444 -0.257,-0.879 -0.392,-1.321 -0.258,-0.88 -0.531,-1.759 -0.778,-2.65 -0.218,-0.9 -0.435,-1.799 -0.652,-2.703 -0.918,-3.6 -1.515,-7.367 -1.777,-11.168 -0.092,-0.951 -0.092,-1.91 -0.137,-2.861 -0.019,-0.961 0,-1.922 0.008,-2.881 0.066,-1.918 0.176,-3.845 0.422,-5.761 0.211,-1.918 0.564,-3.821 0.945,-5.719 0.43,-1.887 0.897,-3.77 1.492,-5.614 0.565,-1.851 1.254,-3.664 1.971,-5.46 0.393,-0.885 0.744,-1.788 1.172,-2.655 l 0.615,-1.306 0.66,-1.289 c 0.875,-1.712 1.828,-3.377 2.842,-4.997 l -1.771,-1.293 c -1.079,1.711 -2.093,3.472 -3.02,5.288 l -0.674,1.324 -0.638,1.353 c -0.438,0.897 -0.805,1.823 -1.208,2.739 -0.746,1.851 -1.457,3.724 -2.039,5.644 -0.615,1.901 -1.095,3.852 -1.546,5.805 -0.395,1.961 -0.758,3.935 -0.977,5.922 -0.254,1.984 -0.367,3.978 -0.438,5.965 -0.009,0.996 -0.031,1.992 -0.003,2.98 0.046,0.988 0.046,1.982 0.14,2.96 l 0.112,1.481 c 0.035,0.488 0.105,0.976 0.152,1.467 0.058,0.486 0.111,0.974 0.176,1.459 l 0.224,1.451 c 0.297,1.932 0.703,3.844 1.164,5.676 0.227,0.92 0.446,1.841 0.668,2.756 0.252,0.912 0.533,1.812 0.797,2.716 0.133,0.45 0.266,0.899 0.403,1.35 0.128,0.449 0.257,0.894 0.423,1.336 0.315,0.881 0.621,1.76 0.936,2.635 2.498,6.99 6,13.408 10.098,18.947 2.101,2.726 4.269,5.305 6.644,7.533 0.293,0.285 0.58,0.568 0.867,0.85 0.301,0.269 0.604,0.531 0.907,0.799 0.605,0.523 1.195,1.056 1.796,1.556 1.235,0.965 2.434,1.947 3.69,2.783 1.219,0.897 2.486,1.655 3.713,2.424 0.613,0.375 1.246,0.707 1.863,1.053 0.307,0.172 0.611,0.344 0.916,0.514 0.311,0.16 0.623,0.308 0.928,0.463 0.619,0.304 1.228,0.603 1.826,0.9 0.615,0.267 1.221,0.535 1.818,0.793 0.59,0.273 1.188,0.5 1.78,0.726 0.587,0.223 1.162,0.463 1.746,0.661 4.623,1.621 8.81,2.539 12.306,3.007 3.496,0.481 6.293,0.557 8.272,0.483 0.212,-0.008 0.411,-0.018 0.605,-0.029 z m -0.632,-3.992 c -1.607,0.053 -4.018,-0.015 -7.056,-0.434 -3.131,-0.412 -6.906,-1.246 -11.074,-2.707 -0.52,-0.174 -1.035,-0.391 -1.57,-0.594 -0.532,-0.203 -1.069,-0.404 -1.602,-0.652 -0.539,-0.235 -1.084,-0.473 -1.633,-0.713 -0.543,-0.268 -1.086,-0.537 -1.64,-0.811 -0.278,-0.136 -0.555,-0.269 -0.834,-0.414 -0.276,-0.154 -0.545,-0.308 -0.827,-0.461 -0.55,-0.314 -1.119,-0.609 -1.671,-0.947 -1.094,-0.689 -2.237,-1.371 -3.329,-2.172 -1.125,-0.748 -2.195,-1.633 -3.308,-2.496 -0.543,-0.449 -1.067,-0.931 -1.613,-1.4 -0.268,-0.237 -0.538,-0.473 -0.813,-0.711 -0.258,-0.256 -0.52,-0.51 -0.779,-0.768 -2.133,-1.994 -4.084,-4.324 -5.989,-6.789 -3.701,-5.017 -6.914,-10.869 -9.24,-17.367 -0.287,-0.814 -0.578,-1.631 -0.867,-2.451 -0.152,-0.404 -0.275,-0.826 -0.402,-1.242 -0.121,-0.422 -0.248,-0.842 -0.368,-1.266 -0.246,-0.842 -0.511,-1.684 -0.746,-2.535 -0.207,-0.865 -0.421,-1.729 -0.629,-2.596 -0.439,-1.746 -0.804,-3.463 -1.072,-5.215 l -0.201,-1.314 c -0.059,-0.442 -0.103,-0.883 -0.16,-1.322 -0.047,-0.446 -0.109,-0.885 -0.143,-1.327 l -0.103,-1.334 c -0.082,-0.89 -0.078,-1.787 -0.121,-2.677 -0.02,-0.896 -0.004,-1.793 0,-2.689 0.066,-1.793 0.172,-3.598 0.4,-5.389 0.193,-1.795 0.527,-3.576 0.885,-5.351 0.404,-1.764 0.836,-3.528 1.394,-5.256 0.534,-1.741 1.18,-3.446 1.858,-5.127 0.365,-0.832 0.697,-1.682 1.101,-2.496 l 0.577,-1.231 0.617,-1.219 c 0.779,-1.525 1.632,-3.009 2.533,-4.46 l -1.774,-1.294 c -0.963,1.542 -1.871,3.126 -2.703,4.752 l -0.642,1.254 -0.598,1.276 c -0.412,0.845 -0.758,1.722 -1.139,2.58 -0.701,1.746 -1.371,3.506 -1.916,5.308 -0.582,1.793 -1.031,3.622 -1.447,5.452 -0.369,1.843 -0.717,3.689 -0.924,5.554 -0.236,1.856 -0.341,3.725 -0.41,5.588 -0.004,0.932 -0.023,1.865 0,2.795 0.043,0.925 0.043,1.857 0.129,2.781 0.258,3.695 0.83,7.328 1.733,10.867 0.21,0.887 0.431,1.77 0.638,2.652 0.246,0.873 0.51,1.739 0.762,2.604 0.129,0.428 0.258,0.861 0.387,1.291 0.123,0.43 0.252,0.859 0.406,1.277 0.297,0.842 0.598,1.68 0.889,2.514 2.388,6.676 5.707,12.725 9.544,17.926 1.973,2.556 4.002,4.976 6.219,7.054 0.274,0.266 0.547,0.53 0.817,0.795 0.283,0.248 0.562,0.496 0.843,0.742 0.563,0.489 1.11,0.985 1.678,1.458 1.154,0.894 2.264,1.814 3.443,2.597 1.137,0.832 2.321,1.537 3.459,2.258 0.581,0.352 1.17,0.658 1.741,0.984 0.289,0.161 0.58,0.321 0.861,0.477 0.291,0.154 0.58,0.291 0.867,0.435 0.574,0.284 1.143,0.565 1.709,0.842 0.571,0.25 1.133,0.5 1.692,0.742 0.55,0.256 1.113,0.467 1.664,0.678 0.558,0.205 1.088,0.436 1.636,0.615 4.327,1.52 8.246,2.383 11.51,2.815 3.252,0.447 5.842,0.516 7.572,0.447 0.044,-10e-4 0.081,-0.004 0.124,-0.005 z m -0.633,-3.999 c -1.386,0.016 -3.402,-0.069 -5.884,-0.412 -2.883,-0.382 -6.398,-1.156 -10.265,-2.511 -0.485,-0.162 -0.969,-0.369 -1.461,-0.553 -0.493,-0.19 -0.993,-0.375 -1.493,-0.604 -0.492,-0.218 -0.998,-0.439 -1.511,-0.662 -0.496,-0.248 -1.004,-0.5 -1.516,-0.75 -0.258,-0.131 -0.519,-0.254 -0.777,-0.386 -0.252,-0.143 -0.504,-0.286 -0.762,-0.426 -0.504,-0.293 -1.037,-0.565 -1.547,-0.879 -1.014,-0.639 -2.074,-1.266 -3.082,-2.01 -1.049,-0.687 -2.031,-1.515 -3.062,-2.306 -0.5,-0.418 -0.987,-0.866 -1.491,-1.299 -0.248,-0.223 -0.502,-0.442 -0.756,-0.66 -0.238,-0.231 -0.476,-0.473 -0.718,-0.709 -1.985,-1.848 -3.787,-4.016 -5.567,-6.309 -3.445,-4.68 -6.48,-10.166 -8.685,-16.346 -0.276,-0.773 -0.549,-1.551 -0.821,-2.328 -0.154,-0.387 -0.269,-0.785 -0.38,-1.189 -0.118,-0.401 -0.241,-0.803 -0.358,-1.205 -0.234,-0.805 -0.49,-1.608 -0.713,-2.422 -0.199,-0.83 -0.398,-1.658 -0.599,-2.492 -0.1,-0.415 -0.2,-0.833 -0.305,-1.25 l -0.146,-0.624 -0.124,-0.605 c -0.152,-0.811 -0.328,-1.617 -0.445,-2.437 l -0.189,-1.225 c -0.057,-0.41 -0.092,-0.82 -0.141,-1.236 -0.047,-0.411 -0.109,-0.821 -0.137,-1.233 l -0.095,-1.246 c -0.077,-0.826 -0.073,-1.658 -0.112,-2.49 -0.023,-0.832 -0.006,-1.666 0,-2.502 0.065,-1.67 0.153,-3.343 0.369,-5.009 0.178,-1.67 0.491,-3.329 0.823,-4.987 0.379,-1.64 0.781,-3.287 1.308,-4.902 1.447,-4.671 3.547,-9.16 6.109,-13.35 l -1.778,-1.298 c -0.848,1.375 -1.653,2.78 -2.389,4.222 l -0.602,1.178 -0.566,1.195 c -0.391,0.797 -0.711,1.617 -1.067,2.426 -0.66,1.635 -1.287,3.287 -1.797,4.971 -0.546,1.679 -0.96,3.39 -1.355,5.101 -0.35,1.723 -0.672,3.446 -0.859,5.186 -0.229,1.734 -0.317,3.474 -0.387,5.213 -0.006,0.869 -0.02,1.736 0,2.603 0.041,0.867 0.039,1.732 0.121,2.595 l 0.096,1.289 c 0.029,0.434 0.093,0.862 0.14,1.284 0.049,0.433 0.094,0.861 0.147,1.287 l 0.203,1.269 c 0.26,1.701 0.613,3.364 1.045,5.08 0.209,0.854 0.41,1.704 0.615,2.549 0.234,0.836 0.492,1.66 0.733,2.487 0.123,0.414 0.244,0.826 0.363,1.236 0.117,0.414 0.24,0.824 0.388,1.221 0.286,0.8 0.571,1.599 0.852,2.394 2.27,6.354 5.398,12.037 8.988,16.904 1.842,2.387 3.731,4.643 5.793,6.571 0.254,0.248 0.504,0.494 0.758,0.74 0.26,0.228 0.52,0.457 0.781,0.685 0.528,0.456 1.036,0.922 1.559,1.354 1.078,0.834 2.103,1.689 3.195,2.41 1.055,0.778 2.157,1.434 3.219,2.102 0.531,0.326 1.082,0.611 1.613,0.912 0.27,0.152 0.535,0.299 0.797,0.445 0.264,0.141 0.543,0.268 0.809,0.402 0.531,0.266 1.06,0.528 1.586,0.786 0.531,0.234 1.058,0.461 1.578,0.687 0.512,0.24 1.037,0.438 1.547,0.633 0.519,0.191 1.023,0.406 1.527,0.574 4.027,1.412 7.684,2.217 10.707,2.617 2.78,0.387 5.014,0.463 6.519,0.425 z M -33.07,13.416 c -0.125,0.631 -0.272,1.105 -0.403,1.426 -0.066,0.16 -0.101,0.283 -0.138,0.365 -0.035,0.076 -0.061,0.123 -0.061,0.123 0,0 -0.068,0.164 -0.221,0.481 -0.17,0.316 -0.42,0.796 -0.843,1.394 -0.815,1.203 -2.334,2.93 -4.776,4.834 -2.426,1.91 -5.73,3.986 -9.732,6.107 -0.462,0.246 -0.936,0.492 -1.416,0.738 l 1.242,1.826 c 0.405,-0.209 0.81,-0.418 1.203,-0.626 4.074,-2.168 7.485,-4.301 10.051,-6.322 2.586,-2.01 4.283,-3.912 5.232,-5.311 0.487,-0.691 0.786,-1.265 0.987,-1.644 0.191,-0.387 0.279,-0.592 0.279,-0.592 0,0 0.096,-0.199 0.246,-0.604 0.158,-0.394 0.35,-1 0.502,-1.804 0.152,-0.803 0.227,-1.823 0.072,-3.004 -0.152,-1.186 -0.529,-2.535 -1.236,-3.957 -1.371,-2.86 -3.965,-5.946 -7.377,-8.985 -0.85,-0.771 -1.764,-1.527 -2.713,-2.295 -0.238,-0.199 -0.476,-0.363 -0.715,-0.548 -0.24,-0.172 -0.474,-0.368 -0.734,-0.53 -0.52,-0.322 -1.024,-0.677 -1.582,-0.961 -1.086,-0.627 -2.274,-1.123 -3.514,-1.564 -1.252,-0.434 -2.566,-0.75 -3.931,-0.996 -5.477,-0.926 -11.673,-0.188 -17.79,1.81 -3.062,1.02 -6.129,2.315 -9.129,3.92 -3.004,1.582 -5.947,3.457 -8.781,5.567 -2.85,2.097 -5.563,4.47 -8.147,7.031 -2.568,2.582 -4.994,5.363 -7.201,8.35 -0.554,0.755 -1.096,1.522 -1.626,2.3 l 1.772,1.293 c 0.526,-0.773 1.065,-1.536 1.616,-2.287 2.137,-2.9 4.49,-5.601 6.984,-8.109 2.512,-2.485 5.145,-4.789 7.907,-6.821 2.753,-2.044 5.597,-3.861 8.501,-5.39 2.895,-1.547 5.85,-2.795 8.784,-3.774 5.863,-1.916 11.718,-2.584 16.746,-1.734 1.25,0.231 2.455,0.516 3.58,0.908 1.119,0.405 2.194,0.846 3.166,1.408 0.502,0.256 0.957,0.575 1.416,0.866 0.233,0.14 0.44,0.318 0.657,0.47 l 0.318,0.243 c 0.105,0.074 0.219,0.154 0.336,0.257 0.918,0.743 1.807,1.479 2.621,2.217 3.289,2.924 5.688,5.83 6.867,8.309 0.615,1.236 0.914,2.342 1.031,3.275 0.124,0.942 0.065,1.711 -0.05,2.34 m -67.237,10.19 c 0.519,-0.768 1.049,-1.526 1.598,-2.27 2.017,-2.731 4.242,-5.285 6.595,-7.652 2.371,-2.344 4.864,-4.524 7.467,-6.444 5.18,-3.859 10.74,-6.787 16.137,-8.566 5.392,-1.766 10.629,-2.311 14.826,-1.59 1.041,0.193 2.039,0.428 2.95,0.744 0.902,0.328 1.759,0.674 2.521,1.125 0.397,0.193 0.744,0.451 1.111,0.674 0.184,0.109 0.342,0.252 0.512,0.371 l 0.252,0.186 0.127,0.093 0.164,0.129 c 0.867,0.703 1.695,1.393 2.451,2.074 3.061,2.713 5.108,5.303 5.936,7.079 0.441,0.89 0.597,1.546 0.662,2.027 0.06,0.48 0.029,0.818 -0.023,1.119 -0.065,0.299 -0.129,0.545 -0.206,0.727 -0.041,0.086 -0.058,0.152 -0.076,0.203 -0.029,0.047 -0.037,0.072 -0.037,0.072 0,0 -0.045,0.096 -0.139,0.287 -0.107,0.199 -0.257,0.5 -0.562,0.932 -0.295,0.428 -0.727,0.982 -1.369,1.652 -0.641,0.67 -1.5,1.453 -2.582,2.303 -2.166,1.711 -5.274,3.672 -9.137,5.719 -0.584,0.309 -1.189,0.622 -1.807,0.936 l 1.244,1.828 c 0.542,-0.276 1.073,-0.552 1.59,-0.827 3.94,-2.09 7.157,-4.111 9.459,-5.933 2.33,-1.817 3.702,-3.393 4.407,-4.436 0.369,-0.522 0.572,-0.92 0.715,-1.182 0.128,-0.265 0.187,-0.394 0.187,-0.394 0,0 0.014,-0.035 0.045,-0.1 0.031,-0.064 0.06,-0.164 0.109,-0.293 0.114,-0.258 0.215,-0.631 0.313,-1.107 0.09,-0.475 0.133,-1.055 0.039,-1.781 -0.096,-0.731 -0.328,-1.629 -0.863,-2.707 -1.024,-2.163 -3.254,-4.928 -6.446,-7.754 -0.785,-0.713 -1.644,-1.428 -2.543,-2.155 l -0.164,-0.134 -0.146,-0.106 -0.293,-0.211 c -0.199,-0.144 -0.381,-0.305 -0.586,-0.43 -0.422,-0.261 -0.826,-0.55 -1.283,-0.777 -0.873,-0.51 -1.848,-0.908 -2.875,-1.281 -1.028,-0.36 -2.133,-0.617 -3.289,-0.834 -4.653,-0.787 -10.226,-0.176 -15.874,1.674 -5.658,1.863 -11.412,4.9 -16.768,8.886 -2.683,1.985 -5.253,4.235 -7.703,6.655 -2.429,2.439 -4.722,5.076 -6.808,7.898 -0.549,0.748 -1.083,1.51 -1.606,2.28 z M 7.92,75.486 c -0.682,3.658 -1.781,7.496 -3.609,11.322 -1.815,3.813 -4.424,7.619 -7.877,10.818 -1.721,1.594 -3.637,3.032 -5.68,4.249 -2.041,1.216 -4.207,2.216 -6.412,2.994 -2.215,0.781 -4.467,1.343 -6.709,1.73 -1.119,0.201 -2.238,0.336 -3.358,0.453 -0.552,0.043 -1.113,0.09 -1.67,0.137 -0.503,0.023 -1.003,0.049 -1.511,0.076 -4.028,0.192 -8.137,0.168 -12.282,-0.154 -8.281,-0.651 -16.729,-2.391 -24.789,-5.631 -8.043,-3.23 -15.75,-7.895 -22.09,-14.5 -3.142,-3.311 -5.943,-7.117 -7.996,-11.537 -1.029,-2.211 -1.855,-4.574 -2.395,-7.07 -0.544,-2.487 -0.781,-5.122 -0.617,-7.78 0.155,-2.648 0.707,-5.314 1.637,-7.804 0.932,-2.486 2.221,-4.791 3.73,-6.791 1.508,-2.008 3.208,-3.727 4.973,-5.185 1.77,-1.465 3.598,-2.672 5.424,-3.715 0.459,-0.248 0.916,-0.498 1.373,-0.744 0.457,-0.235 0.912,-0.452 1.367,-0.674 0.459,-0.229 0.91,-0.422 1.362,-0.619 0.443,-0.19 0.884,-0.375 1.322,-0.563 1.465,-0.594 2.906,-1.184 4.32,-1.76 2.824,-1.158 5.525,-2.291 8.09,-3.398 3.19,-1.374 6.163,-2.717 8.869,-4.02 l -1.533,-2.256 2.411,-1.64 1.761,2.592 c 0.681,-0.346 1.35,-0.689 1.989,-1.028 3.796,-2.009 6.816,-3.926 8.859,-5.543 1.027,-0.806 1.816,-1.529 2.396,-2.131 0.577,-0.599 0.944,-1.078 1.186,-1.425 0.478,-0.698 0.508,-0.914 0.531,-0.92 l 0.024,-0.049 c 0.017,-0.035 0.023,-0.078 0.046,-0.133 0.059,-0.113 0.083,-0.258 0.122,-0.41 0.027,-0.152 0.039,-0.287 0.007,-0.563 -0.041,-0.275 -0.125,-0.72 -0.492,-1.459 -0.668,-1.453 -2.554,-3.902 -5.513,-6.515 -0.725,-0.656 -1.536,-1.326 -2.379,-2.014 l -0.155,-0.121 -0.109,-0.082 -0.219,-0.16 c -0.156,-0.106 -0.289,-0.234 -0.453,-0.324 -0.318,-0.194 -0.617,-0.422 -0.969,-0.592 -0.668,-0.397 -1.425,-0.701 -2.23,-0.996 -0.813,-0.281 -1.707,-0.492 -2.656,-0.674 -1.918,-0.299 -4.102,-0.381 -6.475,-0.117 -0.586,0.043 -1.194,0.156 -1.799,0.234 l -0.926,0.176 -0.461,0.082 -0.471,0.111 c -1.252,0.258 -2.531,0.643 -3.826,1.045 -5.18,1.709 -10.582,4.543 -15.617,8.295 -2.531,1.865 -4.953,3.986 -7.264,6.27 -2.295,2.306 -4.459,4.791 -6.42,7.447 -0.546,0.741 -1.073,1.497 -1.589,2.263 l 2.07,1.51 -1.723,2.36 -1.921,-1.403 c -2.453,4.034 -4.46,8.344 -5.844,12.819 -0.512,1.558 -0.899,3.152 -1.266,4.74 -0.322,1.6 -0.625,3.203 -0.797,4.816 -0.207,1.612 -0.297,3.229 -0.357,4.84 -0.002,0.803 -0.024,1.612 -0.002,2.414 0.048,0.808 0.035,1.609 0.117,2.408 l 0.086,1.201 c 0.027,0.399 0.092,0.797 0.129,1.195 0.047,0.399 0.091,0.797 0.14,1.196 l 0.186,1.183 c 0.105,0.791 0.281,1.577 0.431,2.356 l 0.11,0.59 0.148,0.609 c 0.102,0.41 0.203,0.82 0.297,1.227 0.199,0.818 0.397,1.631 0.594,2.441 0.219,0.797 0.469,1.584 0.693,2.371 0.117,0.397 0.235,0.789 0.35,1.18 0.113,0.394 0.224,0.785 0.371,1.16 0.27,0.764 0.535,1.521 0.803,2.277 2.156,6.035 5.103,11.356 8.437,15.881 1.717,2.215 3.459,4.311 5.373,6.09 0.231,0.231 0.463,0.459 0.696,0.684 0.242,0.216 0.482,0.427 0.722,0.636 0.487,0.416 0.953,0.848 1.434,1.248 0.998,0.764 1.947,1.561 2.953,2.227 0.973,0.715 1.988,1.316 2.967,1.936 0.492,0.302 1.002,0.562 1.494,0.841 0.25,0.141 0.492,0.278 0.732,0.412 0.248,0.133 0.502,0.252 0.75,0.373 0.492,0.247 0.985,0.487 1.463,0.725 0.492,0.215 0.985,0.43 1.461,0.639 0.481,0.22 0.961,0.4 1.438,0.584 0.478,0.176 0.937,0.375 1.404,0.533 3.732,1.305 7.135,2.055 9.908,2.422 2.231,0.309 4.055,0.398 5.345,0.395 l -0.509,-3.217 2.883,-0.456 0.485,3.062 c 0.987,-0.641 2.635,-1.695 3.265,-2.007 0.926,-0.457 2.75,-0.367 3.573,-0.547 0.82,-0.185 1.828,-0.185 3.375,0 1.552,0.18 2.463,-0.365 4.654,-0.14 2.189,0.23 3.375,-0.09 4.746,1.576 1.367,1.666 2.098,1.39 -0.641,0.935 -2.736,-0.457 -4.195,-0.638 -6.023,-0.275 -1.822,0.365 -2.012,0.457 -2.924,0.457 -0.904,0 -2.912,0.82 -4.01,0.09 -1.088,-0.729 -2.394,-0.729 -2.75,-0.363 -0.353,0.363 -1.078,1.093 -1.257,1.64 -0.105,0.312 -0.979,0.418 -1.72,0.451 l 0.284,1.795 c 0.927,-0.268 2.383,-0.509 4.537,-0.418 4.377,0.182 8.572,0.619 11.582,0.493 3.014,-0.127 5.203,-0.698 6.481,0 0.188,0.102 0.356,0.166 0.498,0.208 -0.422,-0.003 -1.18,0.054 -2.418,0.301 -3.647,0.731 -9.034,1.553 -10.491,1.553 -1.457,0 -4.652,0.271 -5.294,0 -0.635,-0.277 -2.772,-0.953 -3.645,-0.369 -0.3,0.2 -0.609,0.369 -0.89,0.507 l 0.324,2.046 c 0.503,-0.174 1.172,-0.298 2.009,-0.178 1.93,0.273 0.438,0.082 4.008,-0.184 3.578,-0.261 8.963,-0.603 10.422,-0.332 1.461,0.274 2.465,1.141 0,0.891 -2.461,-0.254 -13.723,1.105 -14.871,1.775 -0.409,0.24 -0.824,0.354 -1.191,0.406 l 0.287,1.816 c 0.438,-0.024 0.902,-0.026 0.966,0.065 0.12,0.178 0.999,-0.377 1.461,-0.789 0.465,-0.412 1.657,-0.447 2.25,-0.976 0.598,-0.528 1.657,-0.596 2.383,-0.463 0.727,0.133 1.457,0 1.457,0 h 4.168 c 0,0 -0.197,0.527 -1.988,1.439 -1.785,0.91 -0.658,-0.05 -2.449,0 -1.797,0.049 -0.989,0.545 -1.653,1.055 -0.658,0.512 -0.527,0.219 -1.255,0.486 -0.727,0.262 -0.663,0.262 -1.788,0.459 -1.125,0.2 -0.66,0.268 -1.453,0.729 -0.392,0.229 -1.105,0.312 -1.728,0.337 l 0.205,1.296 c 0.383,0.118 0.814,0.287 1.215,0.518 0.551,0.017 1.113,0.196 1.574,0.687 1.465,1.549 9.762,-5.252 11.5,-6.504 1.734,-1.25 4.01,0.523 5.203,0 1.184,-0.522 2.369,-1.479 3.098,-1.457 0.73,0.021 -1.094,2.67 -3.192,3.033 -2.097,0.365 -4.017,-0.092 -6.478,1.459 -2.467,1.553 -4.289,3.375 -5.842,4.289 -0.88,0.517 -2.432,0.858 -3.686,1.023 0.913,1.02 2.214,1.868 4.137,1.807 2.834,-0.092 5.209,-1.967 6.576,-2.125 1.369,-0.156 3.012,0.438 3.012,0.438 0,0 -1.643,0.134 -2.375,0.41 -0.73,0.273 -1.822,1.099 -3.191,1.279 -1.371,0.178 -4.561,0.463 -4.836,0.461 -0.276,-0.006 -2.192,0.186 -2.555,0 -0.363,-0.191 -0.641,-0.283 -1.189,-0.736 -0.54,-0.459 -1.547,-0.731 -1.502,-0.823 0.046,-0.089 -0.965,-0.591 -0.965,-0.591 l -0.003,-0.003 0.268,1.694 -2.882,0.459 -0.426,-2.69 c -0.408,0.03 -0.842,0.056 -1.313,0.073 -2.317,0.086 -5.424,-0.004 -9.274,-0.533 -3.843,-0.514 -8.414,-1.514 -13.47,-3.291 -0.633,-0.215 -1.264,-0.477 -1.909,-0.719 -0.646,-0.248 -1.3,-0.496 -1.947,-0.793 -0.656,-0.289 -1.318,-0.578 -1.99,-0.871 -0.658,-0.326 -1.326,-0.655 -1.996,-0.985 -0.338,-0.168 -0.68,-0.336 -1.024,-0.511 -0.332,-0.184 -0.668,-0.371 -1.007,-0.559 -0.672,-0.383 -1.364,-0.746 -2.043,-1.158 -1.34,-0.838 -2.727,-1.678 -4.071,-2.654 -1.381,-0.922 -2.691,-1.997 -4.05,-3.059 -0.659,-0.547 -1.305,-1.131 -1.965,-1.705 -0.332,-0.293 -0.662,-0.584 -0.992,-0.875 -0.317,-0.309 -0.637,-0.619 -0.954,-0.93 -2.601,-2.447 -4.976,-5.26 -7.261,-8.236 -4.469,-6.031 -8.243,-12.979 -10.91,-20.436 -0.329,-0.931 -0.661,-1.867 -0.995,-2.806 -0.173,-0.473 -0.314,-0.946 -0.455,-1.426 -0.136,-0.475 -0.281,-0.953 -0.424,-1.428 -0.279,-0.957 -0.574,-1.914 -0.837,-2.879 -0.239,-0.967 -0.475,-1.943 -0.715,-2.916 -0.117,-0.488 -0.229,-0.978 -0.348,-1.467 l -0.176,-0.734 -0.156,-0.775 c -0.203,-1.035 -0.422,-2.075 -0.568,-3.127 -0.08,-0.528 -0.159,-1.053 -0.244,-1.582 -0.071,-0.528 -0.125,-1.061 -0.19,-1.588 -0.053,-0.533 -0.129,-1.067 -0.17,-1.6 l -0.123,-1.607 c -0.096,-1.076 -0.103,-2.16 -0.15,-3.238 -0.02,-1.078 -0.004,-2.164 0.004,-3.252 0.082,-2.168 0.203,-4.348 0.48,-6.514 0.24,-2.164 0.633,-4.316 1.07,-6.457 0.485,-2.129 1.01,-4.246 1.678,-6.32 0.635,-2.084 1.406,-4.117 2.213,-6.127 0.434,-0.994 0.84,-1.998 1.309,-2.967 l 0.691,-1.465 0.732,-1.439 c 1.066,-2.084 2.241,-4.097 3.486,-6.051 l -2.964,-2.164 1.719,-2.357 2.854,2.084 c 0.544,-0.792 1.096,-1.576 1.661,-2.346 2.504,-3.393 5.25,-6.547 8.157,-9.469 2.925,-2.898 6,-5.582 9.234,-7.968 3.228,-2.397 6.58,-4.532 10.043,-6.364 3.461,-1.845 7.037,-3.369 10.682,-4.576 1.83,-0.58 3.658,-1.119 5.531,-1.514 l 0.693,-0.156 0.707,-0.135 c 0.465,-0.088 0.934,-0.173 1.399,-0.257 0.951,-0.135 1.877,-0.293 2.832,-0.375 3.767,-0.416 7.6,-0.34 11.336,0.269 1.867,0.34 3.711,0.779 5.488,1.397 1.778,0.625 3.496,1.357 5.096,2.271 0.809,0.422 1.57,0.932 2.322,1.42 0.379,0.242 0.735,0.523 1.09,0.777 0.174,0.135 0.356,0.27 0.531,0.399 l 0.264,0.199 0.211,0.17 c 1.076,0.867 2.119,1.734 3.115,2.637 1.996,1.793 3.844,3.638 5.485,5.636 1.636,1.983 3.078,4.096 4.185,6.387 0.563,1.125 1.018,2.32 1.385,3.492 0.174,0.604 0.344,1.172 0.461,1.78 0.062,0.294 0.117,0.585 0.176,0.875 0.041,0.293 0.082,0.585 0.125,0.873 0.3,2.296 0.15,4.394 -0.149,6 -0.301,1.605 -0.687,2.777 -0.976,3.521 -0.284,0.758 -0.457,1.119 -0.457,1.119 0,0 -0.047,0.092 -0.121,0.276 -0.092,0.17 -0.207,0.457 -0.383,0.791 -0.352,0.673 -0.883,1.67 -1.668,2.777 -0.772,1.127 -1.785,2.391 -3.004,3.658 -1.215,1.274 -2.652,2.553 -4.25,3.813 -3.271,2.571 -7.239,5.009 -11.766,7.398 l 1.596,2.348 -2.412,1.64 -1.798,-2.645 c -3.675,1.843 -7.668,3.664 -11.927,5.503 -2.696,1.162 -5.498,2.338 -8.391,3.521 -1.441,0.59 -2.906,1.19 -4.396,1.793 -0.209,0.082 -0.315,0.135 -0.467,0.196 l -0.424,0.191 c -0.289,0.117 -0.578,0.24 -0.84,0.375 -0.271,0.133 -0.547,0.27 -0.82,0.402 -0.258,0.141 -0.518,0.284 -0.781,0.426 -2.051,1.168 -3.786,2.563 -4.899,4.07 -1.125,1.512 -1.695,3.07 -1.82,4.904 -0.133,1.828 0.332,4.02 1.381,6.289 1.052,2.27 2.689,4.58 4.72,6.711 2.024,2.143 4.477,4.086 7.139,5.822 2.682,1.711 5.596,3.2 8.658,4.426 6.126,2.465 12.809,3.871 19.505,4.395 3.349,0.262 6.718,0.283 10.052,0.125 0.413,-0.024 0.831,-0.041 1.245,-0.063 l 1.066,-0.09 c 0.707,-0.074 1.398,-0.158 2.07,-0.277 1.338,-0.23 2.602,-0.555 3.764,-0.967 2.344,-0.822 4.277,-1.998 5.893,-3.488 1.607,-1.49 2.906,-3.326 3.916,-5.432 1.005,-2.101 1.705,-4.451 2.15,-6.859 0.451,-2.406 0.633,-4.883 0.65,-7.297 0.022,-4.844 -0.679,-9.437 -1.595,-13.429 -0.938,-3.992 -2.118,-7.408 -3.223,-10.127 -1.097,-2.685 -2.123,-4.706 -2.855,-6.065 l -2.715,1.559 -1.45,-2.531 2.457,-1.412 c -0.263,-0.065 -0.553,-0.106 -0.859,-0.088 -1.137,0.058 -3.383,0.662 -4.176,-0.006 -0.793,-0.666 -1.035,-1.758 -0.912,-2.611 0.119,-0.852 1.217,-1.957 1.217,-1.957 0,0 -0.426,1.652 -0.305,2.201 0.119,0.551 0.485,1.219 1.461,1.031 0.973,-0.182 2.129,0 2.373,0.065 0.09,0.023 0.44,0.038 0.845,0.055 -0.155,-0.146 -0.314,-0.297 -0.503,-0.481 -1.865,-1.824 -2.715,-2.92 -2.228,-5.352 0.486,-2.431 2.435,-6.328 2.795,-7.91 0.367,-1.578 0.453,4.383 -0.567,6.57 -1.012,2.19 -1.543,2.5 -0.183,4.11 1.087,1.283 2.224,2.309 2.705,3.418 l 1.987,-1.142 c -0.277,-0.235 -0.568,-0.596 -0.778,-1.155 -0.547,-1.459 -1.153,-1.401 -1.459,-2.25 -0.305,-0.856 -0.913,-2.492 -0.364,-3.469 0.545,-0.973 1.336,-3.1 1.336,-3.709 0,-0.609 0.451,1.522 0.287,3.346 -0.168,1.822 -0.933,2.676 0,3.59 0.799,0.782 0.913,1.028 1.316,1.583 -0.113,-0.674 -0.171,-1.499 0.04,-2.132 0.426,-1.278 0.607,-3.1 0.726,-3.955 0.125,-0.85 0.559,-0.973 0.797,0 0.242,0.976 -0.367,2.174 -0.306,3.308 0.06,1.133 -0.061,2.018 0.06,2.278 0.121,0.256 0.244,-0.149 0,0.742 -0.074,0.273 -0.076,0.591 -0.048,0.9 l 2.734,-1.571 c -0.173,-0.615 -0.38,-1.481 -0.405,-2.189 -0.045,-1.23 0.413,-1.687 -0.457,-3.285 -0.865,-1.595 -1.125,-2.111 -1.521,-2.72 -0.393,-0.608 -0.69,-1.395 -0.858,-2.532 -0.173,-1.134 -0.058,-1.591 0,-2.502 0.051,-0.914 0.858,-2.601 0.858,-2.601 0,0 -0.33,2.789 0,4.156 0.338,1.363 0.326,1.955 0.832,2.781 0.504,0.821 0.92,0.955 1.189,2.186 0.278,1.232 0.227,1.369 0.276,2.01 0.047,0.638 0.094,0.773 0.322,1.593 0.229,0.825 0.193,1.096 0.438,1.391 0.145,0.179 0.247,0.733 0.305,1.149 l 1.353,-0.777 c -0.389,-0.731 -1.049,-1.993 -1.049,-2.126 0,-0.182 0.271,-1.265 0,-2.478 -0.274,-1.217 -0.953,-2.678 -1.004,-2.813 -0.043,-0.135 -0.18,0.318 -0.318,-0.867 -0.096,-0.82 0.006,-2.547 0.033,-3.646 0.053,0.434 0.124,0.945 0.195,1.41 0.182,1.187 -0.181,1.873 0.276,2.328 0.451,0.459 0.773,0.623 1.185,1.338 0.408,0.714 0.641,0.666 0.727,1.851 0.093,1.19 0.047,0.643 0.232,1.6 0.182,0.957 -0.049,0.324 0.27,1.277 0.171,0.52 0.331,1.116 0.442,1.558 l 2.74,-1.574 C -4.689,24.775 -5.16,24.431 -5.379,23.182 -5.744,21.084 -6.855,19.396 -7.187,18.576 -7.525,17.75 -8.299,17.662 -8.299,16.52 c 0,-1.139 0.186,-6.704 0,-7.483 -0.185,-0.773 0.504,-0.908 0.588,0.367 0.098,1.28 -0.133,1.186 0.051,3.422 0.183,2.238 -0.61,2.51 0.473,3.559 1.078,1.049 0.892,0.808 1.257,1.224 0.368,0.416 0.457,0.416 0.688,1.327 0.23,0.918 -0.047,0.261 0.271,1.205 0.323,0.943 -0.134,1.488 0.502,1.851 0.236,0.136 0.312,0.172 0.336,0.191 0.062,-0.609 0.126,-1.252 0.164,-1.644 0.094,-0.914 -0.226,-1.324 0,-2.057 0.231,-0.732 0.414,-2.279 0.5,-2.736 0.094,-0.457 0.645,-1.642 1.1,-2.33 0.457,-0.682 0.732,-0.178 0.773,-1.549 0.047,-1.365 0.545,-2.965 0.545,-2.965 0,0 -0.086,2.83 0,4.653 0.098,1.826 -0.179,2.191 -0.545,3.56 -0.361,1.367 -0.679,2.147 -0.773,2.645 -0.088,0.504 -0.483,1.324 -0.287,1.869 0.138,0.382 0.396,1.37 0.542,1.943 l 2.055,-1.181 1.454,2.531 -2.575,1.478 c 0.06,0.109 0.117,0.211 0.18,0.327 0.961,1.787 2.316,4.431 3.729,7.898 1.408,3.469 2.884,7.758 4.078,12.826 1.162,5.074 2.08,10.927 2.062,17.554 -0.023,3.313 -0.267,6.817 -0.949,10.481"
             style="fill:#414142;fill-opacity:1;fill-rule:nonzero;stroke:none"
             id="path26" /></g></g></g></g></svg>