<?xml version="1.0" encoding="UTF-8" standalone="no"?>
<svg
   xmlns:dc="http://purl.org/dc/elements/1.1/"
   xmlns:cc="http://creativecommons.org/ns#"
   xmlns:rdf="http://www.w3.org/1999/02/22-rdf-syntax-ns#"
   xmlns:svg="http://www.w3.org/2000/svg"
   xmlns="http://www.w3.org/2000/svg"
   version="1.1"
   id="svg2"
   xml:space="preserve"
   width="231.41333"
   height="231.41733"
   viewBox="0 0 231.41333 231.41733"><metadata
     id="metadata8"><rdf:RDF><cc:Work
         rdf:about=""><dc:format>image/svg+xml</dc:format><dc:type
           rdf:resource="http://purl.org/dc/dcmitype/StillImage" /></cc:Work></rdf:RDF></metadata><defs
     id="defs6"><clipPath
       clipPathUnits="userSpaceOnUse"
       id="clipPath18"><path
         d="M 0,283.46 H 283.46 V 0 H 0 Z"
         id="path16" /></clipPath></defs><g
     id="g10"
     transform="matrix(1.3333333,0,0,-1.3333333,-73.266398,304.68119)"><g
       id="g12"><g
         id="g14"
         clip-path="url(#clipPath18)"><g
           id="g20"
           transform="translate(225.6973,141.7319)"><path
             d="m 0,0 c 0,-46.377 -37.594,-83.971 -83.968,-83.971 -46.373,0 -83.967,37.594 -83.967,83.971 0,46.373 37.594,83.967 83.967,83.967 C -37.594,83.967 0,46.373 0,0"
             style="fill:#ffdb00;fill-opacity:1;fill-rule:nonzero;stroke:none"
             id="path22" /></g><g
           id="g24"
           transform="translate(222.8848,141.7319)"><path
             d="m 0,0 c -0.001,22.419 -9.079,42.689 -23.77,57.385 -14.695,14.69 -34.966,23.768 -57.386,23.769 -22.419,-10e-4 -42.689,-9.079 -57.385,-23.769 C -153.231,42.689 -162.309,22.419 -162.31,0 c 0.001,-22.421 9.079,-42.693 23.769,-57.388 14.696,-14.692 34.966,-23.77 57.385,-23.771 22.42,0.001 42.691,9.079 57.386,23.771 C -9.079,-42.693 -0.001,-22.421 0,0 m 5.625,0 c 0.001,-23.957 -9.718,-45.67 -25.418,-61.366 -15.695,-15.7 -37.408,-25.419 -61.363,-25.418 -23.954,-10e-4 -45.667,9.718 -61.362,25.418 -15.699,15.696 -25.419,37.409 -25.417,61.366 -0.002,23.955 9.718,45.667 25.417,61.362 15.695,15.7 37.408,25.419 61.362,25.417 23.955,0.002 45.668,-9.717 61.363,-25.417 C -4.093,45.667 5.626,23.954 5.625,0 m -25.812,19.922 c -2.922,5.021 -6.309,8.758 -9.368,11.068 -0.218,0.164 -0.439,0.334 -0.662,0.492 -11.318,8.309 -22.556,10.19 -22.83,10.233 h -0.008 l 0.008,0.045 c -3.783,1.129 -6.898,0.744 -9.394,-0.334 -2.575,-1.11 -4.508,-2.977 -5.75,-4.746 -0.651,-0.92 -1.508,-1.94 -2.502,-3.018 -0.991,-1.078 -2.116,-2.215 -3.287,-3.363 -2.356,-2.291 -4.905,-4.612 -6.965,-6.516 -1.367,-1.265 -2.527,-2.349 -3.23,-3.082 h -0.004 c -0.41,-0.428 -0.738,-0.861 -1.012,-1.306 -0.371,-0.604 -0.637,-1.237 -0.851,-1.905 -0.208,-0.67 -0.364,-1.383 -0.497,-2.138 -0.269,-1.5 -0.466,-3.159 -0.988,-4.905 -0.441,-1.474 -1.008,-3.15 -1.555,-4.857 -0.543,-1.711 -1.07,-3.451 -1.433,-5.031 -0.242,-1.055 -0.416,-2.036 -0.477,-2.876 -0.109,-1.369 -0.226,-3.016 -0.191,-4.715 0.031,-1.711 0.217,-3.474 0.695,-5.068 0.319,-1.072 0.758,-2.061 1.371,-2.93 0.739,-1.054 1.397,-2.345 2.028,-3.912 0.634,-1.562 1.244,-3.406 1.877,-5.557 1.259,-4.294 2.601,-9.849 4.349,-16.9 1.965,-7.922 5.541,-12.445 8.834,-14.863 1.207,-0.891 2.388,-1.494 3.422,-1.869 0.13,-0.047 0.259,-0.088 0.386,-0.127 0.475,-0.106 1.026,-0.213 1.651,-0.309 0.142,-0.023 0.304,-0.045 0.457,-0.074 h 0.07 v -0.008 c 2.012,-0.297 4.633,-0.519 7.633,-0.49 6.527,0.06 14.808,1.334 22.392,5.672 5.057,2.888 9.809,7.125 13.592,13.299 0.098,0.166 0.196,0.328 0.293,0.484 3.541,5.961 6.242,12.877 7.772,19.945 1.535,7.074 1.898,14.289 0.81,20.829 -1.254,7.488 -3.717,13.805 -6.636,18.832 m -72.066,-36.053 c -0.762,1.08 -1.297,2.291 -1.676,3.548 -0.367,1.247 -0.576,2.545 -0.684,3.813 -0.226,2.547 -0.047,5.016 0.096,6.887 0.076,1.012 0.271,2.106 0.537,3.242 0.262,1.137 0.594,2.321 0.951,3.504 0.721,2.367 1.537,4.735 2.112,6.653 0.349,1.152 0.542,2.324 0.746,3.525 0.191,1.195 0.388,2.42 0.773,3.639 0.254,0.816 0.6,1.629 1.078,2.41 0.354,0.578 0.781,1.14 1.297,1.676 v -0.002 c 0.586,0.609 1.391,1.381 2.356,2.273 0.955,0.897 2.058,1.908 3.228,2.986 0.795,0.731 1.617,1.5 2.439,2.274 -1.255,0.875 -2.568,1.664 -3.953,2.348 -2.808,1.394 -5.679,2.634 -8.535,3.9 -3.383,1.488 -5.375,2.115 -13.531,2.478 -8.84,0.399 -20.051,-12.111 -21.188,-15.662 -0.085,-0.351 -0.171,-0.705 -0.238,-1.066 -0.254,-1.252 -0.463,-2.533 -0.488,-3.818 -0.01,-0.495 -0.012,-0.993 0.037,-1.485 0.023,-0.217 0.045,-0.439 0.082,-0.656 l 0.01,-0.051 0.004,-0.008 c 0.949,-2.935 1.5,-6.029 1.972,-9.111 0.52,-3.387 0.932,-6.797 1.377,-10.202 0.377,-2.847 0.748,-5.394 2.608,-7.224 1.347,-1.326 2.724,-2.557 3.92,-4.065 1.148,-1.461 2.244,-2.967 3.388,-4.433 1.129,-1.434 2.301,-2.914 3.707,-4.024 1.418,-1.125 8.164,-2.386 9.465,-2.468 3.268,-0.208 7.098,1.08 10.281,0.339 0.551,-0.129 1.082,-0.324 1.6,-0.56 -0.668,2.275 -1.295,4.197 -1.932,5.765 -0.599,1.498 -1.209,2.674 -1.839,3.575 m 8.06,-26.051 c 0.703,-2.85 1.617,-5.309 2.654,-7.424 -2.363,-0.746 -4.863,-1.394 -7.503,-1.902 -2.698,-0.524 -5.627,-0.53 -8.686,-0.108 -7.67,1.065 -16.172,4.834 -23.834,10.26 -7.66,5.434 -14.484,12.527 -18.738,20.336 -2.828,5.199 -4.524,10.73 -4.496,16.291 0.023,3.68 0.287,7.114 0.726,10.299 1.272,9.178 3.985,16.262 6.391,21.049 1.394,2.783 2.679,4.787 3.527,5.994 2.264,4.096 5.369,7.571 9.342,9.731 3.303,1.802 7.049,2.572 10.641,3.131 4.74,0.74 9.603,0.808 14.332,0.267 0.212,-0.023 0.427,-0.049 0.638,-0.082 4.43,-0.609 8.655,-2.285 12.746,-4.113 3.789,-1.686 7.627,-3.291 11.351,-5.137 0.5,-0.25 1,-0.51 1.5,-0.769 -0.257,-0.28 -0.527,-0.561 -0.804,-0.848 -0.254,-0.266 -0.516,-0.539 -0.782,-0.803 -0.257,0.127 -0.511,0.258 -0.779,0.389 -2.697,1.34 -5.529,2.582 -8.261,3.777 -1.008,0.44 -2.016,0.885 -3.014,1.33 -3.853,1.717 -8.004,3.387 -12.261,3.973 -0.2,0.027 -0.395,0.057 -0.594,0.078 -4.672,0.533 -9.332,0.445 -13.85,-0.26 -3.4,-0.533 -6.972,-1.254 -10.021,-2.918 -3.399,-1.847 -6.254,-4.834 -8.485,-8.865 l -0.062,-0.107 -0.07,-0.098 c -0.791,-1.137 -2.016,-3.043 -3.348,-5.701 -0.725,-1.442 -1.527,-3.211 -2.318,-5.268 -0.047,-0.406 -0.084,-0.814 -0.104,-1.218 -0.125,-2.313 0.725,-4.422 1.172,-6.45 1.369,-6.166 1.738,-12.564 2.805,-18.801 0.687,-4.018 3.218,-6.127 5.8,-8.695 2.621,-2.614 4.664,-6.153 7.246,-8.928 2.797,-3.006 6.563,-5.135 10.231,-6.529 2.715,-1.035 5.709,-1.207 8.582,-1.02 0.387,0.026 0.781,0.094 1.168,0.137 0.191,-0.006 0.389,-0.016 0.582,-0.027 h 0.041 c 0.076,-0.004 0.154,-0.016 0.234,-0.024 0.569,-0.074 1.139,-0.168 1.705,-0.269 0.629,-0.106 1.26,-0.235 1.887,-0.368 0.149,-0.031 0.299,-0.066 0.451,-0.101 0.235,-0.055 0.83,-0.188 0.998,-0.227 3.153,-0.769 6.282,-1.636 9.407,-2.506 0.574,-2.273 1.185,-4.763 1.853,-7.476"
             style="fill:#414142;fill-opacity:1;fill-rule:nonzero;stroke:none"
             id="path26" /></g></g></g></g></svg>