<?xml version="1.0" encoding="UTF-8" standalone="no"?>
<svg
   xmlns:dc="http://purl.org/dc/elements/1.1/"
   xmlns:cc="http://creativecommons.org/ns#"
   xmlns:rdf="http://www.w3.org/1999/02/22-rdf-syntax-ns#"
   xmlns:svg="http://www.w3.org/2000/svg"
   xmlns="http://www.w3.org/2000/svg"
   version="1.1"
   id="svg2"
   xml:space="preserve"
   width="231.41199"
   height="231.41733"
   viewBox="0 0 231.41199 231.41733"><metadata
     id="metadata8"><rdf:RDF><cc:Work
         rdf:about=""><dc:format>image/svg+xml</dc:format><dc:type
           rdf:resource="http://purl.org/dc/dcmitype/StillImage" /></cc:Work></rdf:RDF></metadata><defs
     id="defs6"><clipPath
       clipPathUnits="userSpaceOnUse"
       id="clipPath18"><path
         d="M 0,283.46 H 283.46 V 0 H 0 Z"
         id="path16" /></clipPath></defs><g
     id="g10"
     transform="matrix(1.3333333,0,0,-1.3333333,-73.267732,304.68133)"><g
       id="g12"><g
         id="g14"
         clip-path="url(#clipPath18)"><g
           id="g20"
           transform="translate(225.6973,141.73)"><path
             d="m 0,0 c 0,-46.375 -37.594,-83.969 -83.967,-83.969 -46.373,0 -83.967,37.594 -83.967,83.969 0,46.375 37.594,83.969 83.967,83.969 C -37.594,83.969 0,46.375 0,0"
             style="fill:#ffdb00;fill-opacity:1;fill-rule:nonzero;stroke:none"
             id="path22" /></g><g
           id="g24"
           transform="translate(222.8848,141.73)"><path
             d="m 0,0 c 0,22.42 -9.078,42.689 -23.768,57.385 -14.695,14.691 -34.966,23.769 -57.387,23.771 -22.42,-0.002 -42.689,-9.08 -57.385,-23.771 C -153.231,42.689 -162.309,22.42 -162.309,0 c 0,-20.19 7.379,-38.625 19.574,-52.825 -0.418,4.317 -0.818,8.639 -1.25,12.953 -0.062,0.629 -0.738,1.508 -1.33,1.723 -4.74,1.731 -7.1,4.863 -7.103,9.924 -0.024,13.275 -0.024,26.555 0.001,39.83 0.012,5.979 4.081,9.858 10.008,10.149 3.073,0.152 5.112,-0.567 6.682,-3.399 1.738,-3.14 4.031,-5.972 6.279,-9.21 2.248,3.257 4.559,6.212 6.412,9.421 1.473,2.551 3.27,3.426 6.157,3.2 2.562,-0.204 4.904,-0.596 6.894,-2.307 1.537,-1.324 2.43,-2.897 2.879,-4.658 -0.592,0.156 -1.141,0.258 -1.602,0.324 -0.853,0.117 -1.488,0.141 -1.808,0.141 -0.379,0 -1.18,-0.028 -2.238,-0.203 l -0.016,-0.004 c -0.793,-0.141 -1.766,-0.379 -2.826,-0.801 h 0.002 c -0.789,-0.319 -1.643,-0.754 -2.481,-1.35 -1.265,-0.896 -2.502,-2.189 -3.375,-3.888 -0.437,-0.848 -0.773,-1.77 -0.99,-2.754 -0.223,-0.969 -0.33,-1.995 -0.33,-3.061 0,-0.299 0.004,-0.603 0.023,-0.916 l 0.008,-0.121 -0.008,0.125 c 0.129,-2.375 0.612,-4.504 1.352,-6.364 0.562,-1.418 1.277,-2.656 2.078,-3.73 -1.422,-0.028 -2.805,-0.256 -4.096,-0.739 -2.027,-0.748 -3.806,-2.156 -4.955,-3.994 -1.156,-1.828 -1.683,-3.994 -1.689,-6.228 -0.002,-1.895 -0.006,-3.793 -0.006,-5.688 0,-2.652 0.004,-5.299 0.004,-7.945 V -36.2 h 0.019 c 0.006,-1.449 0.012,-2.906 0.012,-4.353 0,-1.811 -0.012,-3.621 -0.031,-5.42 v -0.184 c 0,-1.14 0.137,-2.26 0.447,-3.338 0.459,-1.615 1.336,-3.099 2.487,-4.255 0.925,-0.938 1.996,-1.665 3.14,-2.247 0.483,-4.578 0.906,-9.171 1.356,-13.759 1.32,-0.787 2.67,-1.534 4.037,-2.244 -0.557,5.777 -1.096,11.558 -1.705,17.332 -0.071,0.638 -0.723,1.494 -1.317,1.75 -3.066,1.326 -4.683,3.48 -4.646,6.898 0.06,4.535 0.017,9.078 0.017,13.625 h -0.017 c 0,4.543 -0.006,9.08 0.006,13.625 0.011,4.422 2.736,7.16 7.154,7.174 5.601,0.013 11.213,0.013 16.816,0.002 5.186,-0.016 7.971,-2.828 7.981,-8.065 0.01,-8.658 -0.012,-17.314 0.006,-25.97 0.005,-3.5 -1.471,-5.93 -4.774,-7.297 -0.578,-0.239 -1.183,-1.151 -1.246,-1.809 -0.853,-7.826 -1.613,-15.668 -2.392,-23.506 6.863,-1.886 14.085,-2.916 21.554,-2.916 3.001,0 5.96,0.176 8.874,0.492 -0.737,6.114 -1.598,12.207 -2.194,18.329 -0.211,2.187 -1.089,2.718 -3.088,2.679 -4.506,-0.09 -4.453,-0.027 -3.547,4.481 1.891,9.429 3.731,18.875 5.262,28.441 -1.468,-3.107 -2.939,-6.224 -4.402,-9.348 -1.118,-2.371 -2.192,-4.761 -3.34,-7.117 -1.067,-2.179 -2.991,-2.99 -4.866,-2.14 -1.892,0.849 -2.419,2.742 -1.347,5.08 3.385,7.408 6.785,14.814 10.201,22.207 1.313,2.838 3.129,3.396 5.789,1.74 4.458,-2.771 8.934,-2.77 13.489,-0.266 3.511,1.926 4.504,1.606 6.238,-1.961 3.504,-7.191 7.02,-14.386 10.516,-21.585 0.761,-1.571 0.982,-3.165 -0.391,-4.516 -1.148,-1.127 -2.623,-1.301 -3.914,-0.449 -0.82,0.541 -1.469,1.507 -1.91,2.427 -2.518,5.215 -4.949,10.479 -7.403,15.717 -0.14,-0.047 -0.277,-0.097 -0.414,-0.154 1.348,-6.791 2.686,-13.582 4.039,-20.379 0.606,-3.053 1.243,-6.107 1.852,-9.158 0.51,-2.547 0.106,-3.039 -2.465,-3.055 -4.326,-0.021 -4.242,-0.033 -4.699,-4.369 -0.512,-4.826 -1.133,-9.643 -1.725,-14.463 1.338,0.348 2.661,0.731 3.971,1.149 0.529,4.277 1.07,8.568 1.535,12.914 0.035,0.363 0.071,0.675 0.102,0.962 0.252,0 0.533,0.006 0.838,0.006 0.586,0.006 1.138,0.02 1.748,0.112 0.468,0.064 0.965,0.166 1.535,0.396 0.426,0.166 0.891,0.414 1.34,0.777 0.672,0.538 1.218,1.346 1.484,2.098 0.27,0.754 0.326,1.414 0.328,1.973 -0.002,0.84 -0.125,1.519 -0.265,2.242 v 0.002 c -0.493,2.461 -0.993,4.908 -1.489,7.346 0.989,-0.547 2.125,-0.879 3.287,-0.879 0.928,0 1.858,0.199 2.682,0.566 0.834,0.363 1.572,0.889 2.199,1.5 0.674,0.656 1.242,1.453 1.612,2.336 0.375,0.875 0.533,1.801 0.529,2.652 -0.008,1.579 -0.481,2.85 -0.984,3.903 v 0.008 c -3.504,7.203 -7.022,14.396 -10.524,21.586 -0.599,1.21 -1.141,2.257 -2.099,3.308 -0.487,0.518 -1.114,1.033 -1.893,1.408 -0.539,0.26 -1.131,0.393 -1.715,0.469 1.07,2.145 1.781,4.701 1.945,7.65 v -0.003 l 0.01,0.132 -0.01,-0.125 c 0.02,0.313 0.028,0.614 0.028,0.911 0,1.257 -0.149,2.465 -0.463,3.6 l -0.002,0.019 -0.008,0.014 0.008,-0.01 c -0.279,0.994 -0.672,1.904 -1.156,2.732 v 0.004 c -0.86,1.463 -1.993,2.584 -3.145,3.391 l 0.002,-0.008 c -0.002,0.01 -0.006,0.01 -0.006,0.01 -0.859,0.6 -1.726,1.031 -2.519,1.346 l -0.018,0.002 h 0.006 c -1.199,0.468 -2.285,0.701 -3.137,0.82 -0.853,0.119 -1.488,0.139 -1.814,0.139 -0.375,0 -1.17,-0.024 -2.237,-0.207 h -0.011 C -69.699,8.586 -70.676,8.35 -71.73,7.928 h 0.007 c -0.795,-0.319 -1.648,-0.756 -2.482,-1.35 -1.17,-0.832 -2.295,-2.004 -3.15,-3.512 1.296,3.151 2.593,6.301 3.886,9.45 0.858,2.093 1.684,4.213 2.602,6.281 1.254,2.828 3.988,3.64 6.658,2.125 8.332,-4.742 16.697,-4.832 25.061,-0.078 2.867,1.629 5.543,0.877 6.8,-2.141 4.727,-11.373 9.411,-22.77 14.063,-34.178 1.08,-2.649 0.121,-5.127 -2.178,-6.082 -2.494,-1.033 -5.119,0.08 -6.244,2.775 -3.281,7.832 -6.518,15.688 -9.777,23.54 -0.256,0.613 -0.547,1.207 -1.217,1.734 -0.342,-2.914 -0.713,-5.83 -1.02,-8.758 -0.349,-3.307 -0.799,-6.621 -0.92,-9.945 -0.07,-2.004 0.106,-4.122 0.7,-6.024 2.898,-9.176 5.964,-18.301 8.972,-27.445 1.004,-3.065 0.483,-3.77 -2.82,-3.779 -1.352,0 -2.703,-0.047 -4.047,0.013 -1.691,0.078 -2.582,-0.539 -2.875,-2.336 -1.07,-6.629 -2.203,-13.25 -3.324,-19.871 7.115,3.795 13.607,8.61 19.267,14.266 C -9.078,-42.692 0,-22.42 0,0 m 5.625,0 c -0.002,-47.93 -38.85,-86.778 -86.78,-86.782 -47.928,0.004 -86.779,38.852 -86.779,86.782 0,47.928 38.851,86.779 86.779,86.781 C -33.225,86.779 5.623,47.928 5.625,0 m -47.207,45.156 c -0.754,1.289 -1.744,2.27 -2.785,3 -0.781,0.543 -1.586,0.953 -2.36,1.254 -1.168,0.457 -2.257,0.688 -3.121,0.809 -0.863,0.121 -1.494,0.136 -1.734,0.136 -0.285,0 -1.086,-0.017 -2.172,-0.203 -0.805,-0.14 -1.771,-0.377 -2.793,-0.787 -0.76,-0.306 -1.547,-0.713 -2.312,-1.254 -1.143,-0.814 -2.219,-1.939 -2.993,-3.451 -0.382,-0.744 -0.695,-1.582 -0.904,-2.508 -0.211,-0.922 -0.318,-1.933 -0.318,-3.029 0,-0.31 0.004,-0.627 0.023,-0.951 0.153,-2.715 0.692,-5.059 1.479,-7.031 1.183,-2.977 2.931,-5.133 4.728,-6.549 0.906,-0.709 1.817,-1.233 2.703,-1.594 0.442,-0.176 0.871,-0.322 1.299,-0.412 0.428,-0.094 0.844,-0.145 1.26,-0.145 0.555,0 1.117,0.09 1.687,0.254 1.008,0.285 2.067,0.801 3.122,1.559 1.584,1.133 3.152,2.822 4.373,5.131 1.218,2.306 2.091,5.228 2.285,8.787 0.017,0.324 0.025,0.641 0.025,0.951 0,1.301 -0.154,2.475 -0.441,3.537 -0.258,0.926 -0.617,1.754 -1.051,2.496 m -61.59,-37.521 c -0.555,0.949 -1.286,1.674 -2.051,2.209 -0.567,0.402 -1.162,0.699 -1.735,0.92 -0.855,0.334 -1.656,0.506 -2.289,0.597 -0.632,0.084 -1.099,0.104 -1.269,0.104 -0.207,0 -0.803,-0.022 -1.6,-0.151 -0.595,-0.105 -1.31,-0.279 -2.052,-0.584 -0.563,-0.226 -1.141,-0.523 -1.704,-0.917 -0.836,-0.598 -1.632,-1.43 -2.197,-2.536 -0.283,-0.554 -0.515,-1.166 -0.666,-1.843 -0.152,-0.68 -0.238,-1.422 -0.238,-2.229 0,-0.228 0.004,-0.459 0.023,-0.701 0.11,-1.994 0.504,-3.711 1.086,-5.169 0.871,-2.183 2.153,-3.773 3.477,-4.808 0.664,-0.52 1.332,-0.912 1.984,-1.172 0.322,-0.133 0.649,-0.234 0.955,-0.305 0.315,-0.068 0.623,-0.109 0.932,-0.109 0.402,0.008 0.812,0.07 1.234,0.191 0.74,0.211 1.516,0.586 2.289,1.145 1.164,0.832 2.321,2.074 3.221,3.769 0.893,1.696 1.535,3.845 1.678,6.458 0.015,0.242 0.021,0.473 0.021,0.701 0,0.955 -0.115,1.816 -0.326,2.6 -0.189,0.679 -0.449,1.289 -0.773,1.83 m 29.178,-16.63 c 0.865,-2.185 2.15,-3.771 3.471,-4.81 0.664,-0.522 1.339,-0.906 1.988,-1.176 0.318,-0.129 0.637,-0.23 0.951,-0.297 0.316,-0.07 0.621,-0.109 0.926,-0.109 0.412,0.004 0.822,0.066 1.24,0.187 0.738,0.211 1.52,0.59 2.293,1.145 1.164,0.836 2.32,2.078 3.215,3.773 0.902,1.692 1.535,3.836 1.68,6.455 0.015,0.237 0.023,0.471 0.023,0.702 0,0.953 -0.117,1.818 -0.328,2.602 -0.19,0.671 -0.449,1.285 -0.774,1.828 -0.554,0.951 -1.281,1.672 -2.043,2.207 -0.574,0.398 -1.169,0.701 -1.734,0.924 -0.863,0.33 -1.66,0.501 -2.295,0.591 -0.633,0.094 -1.092,0.102 -1.277,0.102 -0.201,0 -0.797,-0.016 -1.588,-0.145 -0.602,-0.105 -1.309,-0.281 -2.057,-0.586 -0.56,-0.222 -1.146,-0.525 -1.705,-0.918 -0.838,-0.597 -1.633,-1.429 -2.195,-2.531 -0.289,-0.551 -0.512,-1.168 -0.664,-1.847 -0.156,-0.679 -0.24,-1.427 -0.24,-2.227 0,-0.231 0.009,-0.465 0.021,-0.702 0.113,-1.994 0.506,-3.713 1.092,-5.168 m -4.889,4.957 v -0.005 c -0.019,0.312 -0.023,0.617 -0.023,0.918 0,1.066 0.109,2.09 0.328,3.063 0.047,0.191 0.109,0.363 0.16,0.554 -2.149,-5.231 -4.295,-10.453 -6.418,-15.692 -0.731,-1.797 -0.594,-3.484 0.175,-4.765 0.541,1.172 1.071,2.34 1.608,3.506 0.424,0.914 0.931,1.769 1.623,2.554 0.687,0.78 1.602,1.49 2.707,1.905 0.571,0.218 1.178,0.332 1.774,0.371 -0.196,0.402 -0.406,0.793 -0.582,1.228 -0.742,1.854 -1.219,3.99 -1.352,6.363 m 1.297,6.727 V 2.684 l 0.006,0.007 c 0,0 0,-0.002 -0.006,-0.002 m -40.813,39.971 c 0.283,-1.062 0.438,-2.236 0.438,-3.537 0,-0.31 -0.004,-0.627 -0.024,-0.951 -0.191,-3.559 -1.066,-6.481 -2.285,-8.787 -1.223,-2.309 -2.797,-3.998 -4.375,-5.131 -1.063,-0.758 -2.113,-1.274 -3.125,-1.559 -0.566,-0.164 -1.127,-0.254 -1.68,-0.254 -0.418,0 -0.836,0.051 -1.261,0.145 -0.426,0.09 -0.86,0.236 -1.301,0.412 -0.883,0.361 -1.797,0.885 -2.699,1.594 -1.803,1.416 -3.549,3.572 -4.731,6.549 -0.787,1.972 -1.326,4.316 -1.48,7.031 -0.022,0.324 -0.028,0.641 -0.028,0.951 0,1.096 0.114,2.107 0.323,3.029 0.209,0.926 0.517,1.764 0.904,2.508 0.771,1.512 1.851,2.637 2.992,3.451 0.768,0.541 1.551,0.948 2.314,1.254 1.018,0.41 1.987,0.647 2.799,0.787 1.078,0.186 1.887,0.203 2.168,0.203 0.239,0 0.869,-0.015 1.731,-0.136 0.859,-0.121 1.957,-0.352 3.121,-0.809 0.773,-0.301 1.582,-0.711 2.357,-1.254 1.043,-0.73 2.028,-1.711 2.789,-3 0.436,-0.742 0.791,-1.57 1.053,-2.496"
             style="fill:#414142;fill-opacity:1;fill-rule:nonzero;stroke:none"
             id="path26" /></g></g></g></g></svg>