<?xml version="1.0" encoding="UTF-8" standalone="no"?>
<svg
   xmlns:dc="http://purl.org/dc/elements/1.1/"
   xmlns:cc="http://creativecommons.org/ns#"
   xmlns:rdf="http://www.w3.org/1999/02/22-rdf-syntax-ns#"
   xmlns:svg="http://www.w3.org/2000/svg"
   xmlns="http://www.w3.org/2000/svg"
   version="1.1"
   id="svg2"
   xml:space="preserve"
   width="231.41733"
   height="231.41199"
   viewBox="0 0 231.41733 231.41199"><metadata
     id="metadata8"><rdf:RDF><cc:Work
         rdf:about=""><dc:format>image/svg+xml</dc:format><dc:type
           rdf:resource="http://purl.org/dc/dcmitype/StillImage" /></cc:Work></rdf:RDF></metadata><defs
     id="defs6"><clipPath
       clipPathUnits="userSpaceOnUse"
       id="clipPath18"><path
         d="M 0,283.46 H 283.46 V 0 H 0 Z"
         id="path16" /></clipPath></defs><g
     id="g10"
     transform="matrix(1.3333333,0,0,-1.3333333,-73.264931,304.67933)"><g
       id="g12"><g
         id="g14"
         clip-path="url(#clipPath18)"><g
           id="g20"
           transform="translate(225.6992,141.7285)"><path
             d="m 0,0 c 0,-46.372 -37.594,-83.966 -83.97,-83.966 -46.373,0 -83.968,37.594 -83.968,83.966 0,46.375 37.595,83.969 83.968,83.969 C -37.594,83.969 0,46.375 0,0"
             style="fill:#ffdc24;fill-opacity:1;fill-rule:nonzero;stroke:none"
             id="path22" /></g><g
           id="g24"
           transform="translate(222.8867,141.7285)"><path
             d="m 0,0 c -0.001,22.42 -9.079,42.69 -23.77,57.386 -14.695,14.691 -34.966,23.768 -57.387,23.77 -22.419,-0.002 -42.69,-9.079 -57.386,-23.77 C -153.233,42.69 -162.312,22.42 -162.313,0 c 10e-4,-22.419 9.08,-42.688 23.77,-57.384 7.916,-7.913 17.46,-14.177 28.075,-18.292 -0.041,1.382 -0.07,2.788 -0.07,4.249 0,1.858 0.025,3.768 0.084,5.719 1.586,-0.68 3.48,-1.342 5.588,-1.793 -0.026,-1.336 -0.041,-2.648 -0.041,-3.926 0,-2.186 0.049,-4.264 0.141,-6.227 7.47,-2.269 15.393,-3.499 23.609,-3.499 12.261,0.001 23.87,2.731 34.285,7.594 0.167,1.943 0.35,4.082 0.542,6.328 0.726,8.543 1.57,18.539 2.039,24.345 0.129,1.576 0.187,3.328 0.187,5.186 0,4.16 -0.298,8.871 -0.767,13.482 -0.473,4.617 -1.108,9.147 -1.777,12.973 -0.444,2.549 -0.903,4.787 -1.325,6.51 -0.437,1.787 -1.007,3.31 -1.625,4.606 0.813,1.74 1.934,4.149 2.895,6.199 1.539,-2.197 3.187,-5.32 4.203,-9.464 0.459,-1.898 0.937,-4.236 1.398,-6.884 0.465,-2.643 0.907,-5.59 1.297,-8.672 0.776,-6.158 1.332,-12.85 1.332,-18.75 0,-1.981 -0.062,-3.873 -0.205,-5.637 -0.522,-6.478 -1.507,-18.098 -2.279,-27.151 6.301,3.601 12.087,8.005 17.187,13.104 C -9.079,-42.688 -0.001,-22.419 0,0 m 5.625,0 c 0.001,-23.954 -9.718,-45.666 -25.418,-61.361 -15.695,-15.7 -37.408,-25.418 -61.364,-25.417 -23.954,-10e-4 -45.667,9.717 -61.363,25.417 -15.7,15.695 -25.419,37.407 -25.418,61.361 -0.001,23.955 9.718,45.668 25.418,61.363 15.696,15.7 37.409,25.419 61.363,25.418 23.956,10e-4 45.669,-9.718 61.364,-25.418 C -4.093,45.668 5.626,23.955 5.625,0 m -105.903,54.084 0.703,-3.328 35.598,7.543 -0.703,3.326 z m 1.988,5.795 0.01,-2.711 5.836,0.021 13.003,2.754 z m 2.582,5.572 0.006,-2.724 8.838,0.031 12.385,2.623 -16.792,-0.059 v 0.147 z m 5.715,3.875 0.01,-2.709 18.702,0.065 -0.01,2.709 z m 1.861,-8.123 13.454,0.047 6.914,1.465 -0.572,2.683 z m 17.218,-5.822 -13.243,-2.803 21.387,0.072 -0.007,2.76 z m 3.375,-5.649 c 0,0.508 -0.02,0.989 -0.055,1.448 l -26.548,-5.621 c 0.514,-3.797 1.559,-6.891 2.868,-9.358 1.628,-3.074 3.658,-5.215 5.57,-6.586 1.273,-0.914 2.494,-1.48 3.441,-1.746 0.539,-0.156 0.987,-0.211 1.262,-0.209 0.207,0 0.512,0.029 0.879,0.11 0.364,0.082 0.792,0.212 1.259,0.404 0.933,0.375 2.015,0.984 3.119,1.853 2.203,1.739 4.498,4.494 6.107,8.532 1.074,2.693 1.844,5.964 2.063,9.908 0.027,0.437 0.035,0.859 0.035,1.265 m -5.191,1.645 -13.458,-0.047 -13.938,-2.951 0.568,-2.686 z m -26.607,4.35 v 0.15 h -0.226 l -0.008,2.551 -0.332,1.568 0.328,0.067 -0.006,1.101 2.924,0.01 c 0.066,0.09 0.133,0.187 0.203,0.275 h -0.516 l -0.019,5.274 5.715,0.019 -0.01,3.867 21.28,0.075 0.012,-3.868 2.324,0.008 0.303,0.063 0.013,-0.063 1.229,0.004 0.014,-4.06 2.519,0.533 0.426,-2.01 h 0.035 l 0.004,-0.174 0.68,-3.219 0.144,-0.691 -0.812,-0.174 c 0.049,-0.129 0.097,-0.254 0.142,-0.387 l 1.428,0.006 0.016,-4.617 0.004,-0.621 h -0.44 c 0.035,-0.547 0.057,-1.103 0.057,-1.682 0,-0.511 -0.016,-1.039 -0.045,-1.578 -0.328,-5.91 -1.768,-10.758 -3.797,-14.59 -2.029,-3.835 -4.639,-6.642 -7.266,-8.527 -1.752,-1.254 -3.513,-2.109 -5.181,-2.584 -0.957,-0.269 -1.886,-0.422 -2.806,-0.422 -0.687,0 -1.383,0.088 -2.092,0.24 -0.705,0.159 -1.429,0.387 -2.162,0.686 -1.469,0.592 -2.984,1.471 -4.482,2.647 -2.989,2.349 -5.889,5.933 -7.858,10.869 -0.931,2.336 -1.644,4.974 -2.074,7.914 l -0.855,-0.182 -1.086,5.141 0.847,0.181 -1.195,5.647 z m -17.588,-71.712 c 0.49,4.013 1.135,8.209 1.955,11.742 0.41,1.764 0.864,3.364 1.34,4.671 0.238,0.656 0.481,1.23 0.719,1.717 0.24,0.48 0.473,0.867 0.672,1.13 0.517,0.704 1.207,1.454 2.029,2.204 1.439,1.318 3.27,2.636 5.205,3.832 2.91,1.804 6.063,3.351 8.539,4.423 1.168,0.51 2.184,0.914 2.944,1.19 0.06,-0.082 0.126,-0.17 0.193,-0.252 0.539,-0.715 1.223,-1.652 2.004,-2.66 0.586,-0.756 1.23,-1.559 1.926,-2.35 1.039,-1.183 2.183,-2.35 3.492,-3.322 0.652,-0.481 1.347,-0.92 2.113,-1.272 0.762,-0.345 1.598,-0.609 2.508,-0.703 0.191,-0.023 0.383,-0.029 0.566,-0.029 0.639,0 1.249,0.105 1.812,0.281 1.053,0.328 1.945,0.867 2.767,1.488 0.725,0.551 1.399,1.178 2.059,1.852 1.15,1.189 2.254,2.549 3.359,3.961 1.649,2.127 3.289,4.389 4.871,6.316 0.383,0.469 0.76,0.909 1.133,1.33 -1.556,1.29 -5.64,2.045 -5.644,2.045 -0.426,-0.521 -0.848,-1.054 -1.266,-1.593 -1.031,-1.325 -2.031,-2.678 -3.004,-3.938 -0.726,-0.949 -1.433,-1.851 -2.113,-2.66 -1.012,-1.207 -1.973,-2.191 -2.736,-2.777 -0.375,-0.293 -0.703,-0.481 -0.917,-0.58 -0.219,-0.094 -0.313,-0.094 -0.313,-0.094 -0.207,0.017 -0.523,0.105 -0.93,0.316 -0.359,0.188 -0.773,0.463 -1.214,0.815 -0.774,0.615 -1.608,1.465 -2.411,2.39 -0.603,0.698 -1.189,1.43 -1.74,2.151 -0.42,0.539 -0.81,1.066 -1.181,1.564 -0.278,0.369 -0.543,0.727 -0.797,1.055 -0.19,0.246 -0.371,0.48 -0.555,0.703 -0.137,0.17 -0.27,0.328 -0.414,0.486 -0.106,0.117 -0.217,0.235 -0.336,0.352 -0.186,0.176 -0.385,0.363 -0.703,0.574 -0.162,0.1 -0.361,0.217 -0.631,0.322 -0.272,0.106 -0.635,0.205 -1.107,0.205 -0.176,0 -0.297,-0.011 -0.399,-0.023 -0.199,-0.023 -0.34,-0.053 -0.474,-0.082 -0.26,-0.059 -0.504,-0.135 -0.784,-0.217 -0.517,-0.164 -1.138,-0.387 -1.871,-0.668 -2.554,-0.984 -6.439,-2.719 -10.306,-4.969 -1.934,-1.125 -3.862,-2.384 -5.616,-3.761 -1.756,-1.377 -3.349,-2.877 -4.593,-4.565 -0.457,-0.621 -0.848,-1.289 -1.2,-2.015 -0.664,-1.354 -1.213,-2.889 -1.705,-4.577 -0.855,-2.948 -1.529,-6.352 -2.076,-9.844 -0.82,-5.233 -1.351,-10.641 -1.683,-14.754 -0.213,-2.707 -0.342,-4.858 -0.407,-6.018 1.75,1.114 4.248,2.537 5.864,3.44 0.207,2.935 0.546,6.955 1.056,11.168 m 62.788,-40.911 c -0.48,0.399 -0.982,0.786 -1.492,1.161 0.395,6.615 0.543,13.177 0.543,19.289 0,8.689 -0.297,16.47 -0.602,22.189 -1.871,-4.822 -3.978,-11.437 -5.097,-15.053 0.041,-2.291 0.064,-4.675 0.064,-7.136 0,-5.08 -0.103,-10.471 -0.365,-15.926 -1.59,0.85 -3.172,1.605 -4.648,2.256 -0.399,-1.852 -0.778,-3.762 -1.133,-5.666 0.277,-0.129 0.556,-0.258 0.838,-0.393 1.49,-0.715 3.023,-1.517 4.463,-2.385 1.078,-0.644 2.105,-1.33 3.023,-2.027 1.373,-1.043 2.496,-2.133 3.195,-3.123 0.352,-0.498 0.602,-0.961 0.756,-1.377 0.153,-0.422 0.217,-0.785 0.217,-1.137 -0.004,-0.422 -0.086,-0.838 -0.344,-1.371 -0.011,-0.023 -0.019,-0.058 -0.144,-0.158 -0.094,-0.07 -0.258,-0.164 -0.496,-0.264 -0.36,-0.146 -0.891,-0.287 -1.551,-0.38 -0.658,-0.094 -1.442,-0.141 -2.305,-0.141 -2.129,-0.006 -4.742,0.293 -7.422,0.762 -0.718,0.123 -1.441,0.263 -2.164,0.404 -0.322,-2.139 -0.59,-4.043 -0.797,-5.578 0.662,-0.135 1.33,-0.258 1.996,-0.375 2.885,-0.498 5.756,-0.844 8.387,-0.85 0.953,0 1.879,0.047 2.772,0.158 0.668,0.082 1.318,0.2 1.955,0.37 0.949,0.251 1.867,0.615 2.72,1.189 0.424,0.287 0.832,0.627 1.194,1.031 0.363,0.399 0.679,0.862 0.922,1.365 0.603,1.231 0.914,2.549 0.91,3.838 0,0.862 -0.133,1.705 -0.371,2.496 -0.446,1.489 -1.227,2.801 -2.176,3.979 -0.832,1.037 -1.797,1.975 -2.848,2.853 m -50.389,49.331 c -0.002,-0.018 -0.844,-5.321 -1.899,-13.313 1.85,1.395 4.547,3.551 6.369,5.022 0.205,1.453 0.391,2.736 0.545,3.796 0.174,1.155 0.307,2.057 0.405,2.672 0.046,0.311 0.082,0.545 0.105,0.703 0.016,0.082 0.023,0.135 0.029,0.176 l 0.01,0.059 c 0.246,1.535 -0.805,2.982 -2.34,3.222 -1.537,0.247 -2.978,-0.802 -3.224,-2.337 m 40.069,-18.51 c -2.111,-7.043 -6.898,-26.748 -8.023,-34.213 -1.129,-7.465 -0.25,-9.106 -2.676,-9.856 -2.426,-0.75 -9.294,0.774 -20.136,3.663 -10.84,2.882 -23.58,8.935 -26.115,11.261 -2.537,2.326 -2.043,17.039 -1.832,18.867 0.211,1.829 7.041,4.694 7.041,4.694 35.103,18.773 54.815,48.429 54.815,48.429 0,0 0.336,0.709 1.434,1.013 1.101,0.305 7.32,-3.732 9.219,-5.842 1.904,-2.115 -0.489,-4.224 -3.379,-10.277 -2.885,-6.06 -8.235,-20.696 -10.348,-27.739"
             style="fill:#4d4c4e;fill-opacity:1;fill-rule:nonzero;stroke:none"
             id="path26" /></g></g></g></g></svg>