<?xml version="1.0" encoding="UTF-8" standalone="no"?>
<svg
   xmlns:dc="http://purl.org/dc/elements/1.1/"
   xmlns:cc="http://creativecommons.org/ns#"
   xmlns:rdf="http://www.w3.org/1999/02/22-rdf-syntax-ns#"
   xmlns:svg="http://www.w3.org/2000/svg"
   xmlns="http://www.w3.org/2000/svg"
   version="1.1"
   id="svg2"
   xml:space="preserve"
   width="231.41466"
   height="231.41733"
   viewBox="0 0 231.41466 231.41733"><metadata
     id="metadata8"><rdf:RDF><cc:Work
         rdf:about=""><dc:format>image/svg+xml</dc:format><dc:type
           rdf:resource="http://purl.org/dc/dcmitype/StillImage" /></cc:Work></rdf:RDF></metadata><defs
     id="defs6"><clipPath
       clipPathUnits="userSpaceOnUse"
       id="clipPath18"><path
         d="M 0,283.46 H 283.46 V 0 H 0 Z"
         id="path16" /></clipPath></defs><g
     id="g10"
     transform="matrix(1.3333333,0,0,-1.3333333,-73.265598,304.68106)"><g
       id="g12"><g
         id="g14"
         clip-path="url(#clipPath18)"><g
           id="g20"
           transform="translate(225.6973,141.73)"><path
             d="m 0,0 c 0,-46.374 -37.594,-83.969 -83.968,-83.969 -46.373,0 -83.967,37.595 -83.967,83.969 0,46.375 37.594,83.969 83.967,83.969 C -37.594,83.969 0,46.375 0,0"
             style="fill:#ffdb00;fill-opacity:1;fill-rule:nonzero;stroke:none"
             id="path22" /></g><g
           id="g24"
           transform="translate(199.1152,84.3438)"><path
             d="m 0,0 c -14.695,-14.69 -34.967,-23.77 -57.386,-23.771 -22.419,0.001 -42.69,9.08 -57.385,23.771 -14.69,14.695 -23.769,34.967 -23.77,57.386 0.002,22.42 9.08,42.691 23.77,57.386 14.695,14.691 34.966,23.769 57.385,23.77 C -34.967,138.541 -14.695,129.463 0,114.772 14.69,100.077 23.769,79.806 23.77,57.386 23.769,34.967 14.69,14.695 0,0 m 3.977,118.75 c -15.696,15.7 -37.409,25.419 -61.363,25.417 -23.954,0.002 -45.667,-9.717 -61.362,-25.417 -15.7,-15.695 -25.419,-37.409 -25.418,-61.364 -0.001,-23.954 9.718,-45.667 25.418,-61.363 15.695,-15.7 37.407,-25.419 61.362,-25.419 23.954,0 45.667,9.719 61.363,25.418 15.7,15.697 25.419,37.41 25.418,61.364 0.001,23.955 -9.718,45.669 -25.418,61.364 M -45.857,97.646 h 3.428 v 3.457 h -3.428 z m 1.783,11.146 c 5.238,-0.011 9.406,-4.167 9.429,-9.4 0.02,-5.232 -4.242,-9.476 -9.503,-9.473 -5.278,0.01 -9.479,4.264 -9.418,9.532 0.068,5.216 4.275,9.355 9.492,9.341 m 27.445,-23.527 c -3.496,6.625 -8.336,12.008 -14.695,16.231 0.375,-5.807 -1.348,-9.983 -5.979,-13.239 8.332,-6.445 11.94,-14.988 11.209,-25.14 2.461,-0.918 4.914,-1.528 7.049,-2.709 2.168,-1.201 4.029,-2.963 6.029,-4.487 2.362,8.62 1.387,19.899 -3.613,29.344 M -44.85,52.597 c -14.267,0.006 -28.536,0.011 -42.806,0.006 -1.297,0 -1.965,-0.686 -1.972,-2.002 -0.01,-3.184 -0.01,-6.366 0.002,-9.553 0.005,-2.238 0.435,-2.649 2.707,-2.649 13.158,-0.005 26.314,-0.009 39.468,-0.011 h 1.388 c 0,2.513 -0.205,4.904 0.059,7.242 0.262,2.322 0.996,4.594 1.529,6.932 -0.017,0 -0.193,0.035 -0.375,0.035 m -2.882,71.854 c 0,1.74 -0.526,2.289 -2.233,2.293 -3.836,0.006 -7.675,0.006 -11.507,0 -1.707,-0.004 -2.254,-0.549 -2.274,-2.28 -0.019,-1.289 -0.005,-2.586 -0.005,-4 -0.889,0 -1.647,0 -2.403,0.002 -2.314,0.006 -2.836,-0.525 -2.836,-2.843 0.002,-12.12 0,-24.243 0.002,-36.366 0,-3.449 -0.008,-6.904 0.02,-10.359 0.013,-1.619 0.81,-2.365 2.422,-2.383 0.492,-0.004 0.978,0 1.57,0 0,-1.603 -0.004,-3.094 0,-4.578 0.004,-1.664 0.629,-2.316 2.268,-2.318 4.722,-0.008 9.438,-0.008 14.155,0 1.608,0.002 2.237,0.631 2.248,2.216 0.014,1.524 0.004,3.047 0.004,4.672 0.469,0 0.809,-0.002 1.147,0 2.146,0.008 2.716,0.586 2.713,2.731 -0.006,4.451 -0.004,8.902 0,13.351 v 1.813 c -9.411,-1.004 -15.1,6.535 -14.9,13.183 0.107,3.557 1.368,6.668 3.954,9.151 3.032,2.912 6.709,3.974 10.938,3.586 0,2.002 0.013,3.955 -0.004,5.904 -0.018,1.533 -0.719,2.203 -2.289,2.227 -0.949,0.015 -1.899,0.004 -2.988,0.004 0,1.468 0,2.73 -0.002,3.994 m 14.002,-80.12 c -0.032,-3.453 2.593,-6.184 5.996,-6.23 3.24,-0.047 6.238,2.941 6.265,6.24 0.024,3.281 -2.722,5.994 -6.095,6.017 -3.487,0.024 -6.139,-2.566 -6.166,-6.027 m -8.938,-19.379 c 0,5.209 -0.02,10.27 0.016,15.324 0.015,2.223 -0.067,4.473 0.263,6.653 1.043,6.904 7.348,12.123 14.494,12.188 7.086,0.062 13.543,-5.132 14.649,-12.011 0.371,-2.32 0.283,-4.732 0.297,-7.107 0.043,-4.752 0.011,-9.51 0.011,-14.268 0,-0.222 0.024,-0.447 0.04,-0.783 0.496,-0.025 0.937,-0.06 1.382,-0.06 3.836,-0.006 7.672,0.006 11.508,-0.01 C 1.93,24.874 2.471,24.319 2.473,22.427 2.477,19.28 2.477,16.134 2.471,12.987 2.465,11.354 1.816,10.71 0.162,10.71 -37.01,10.708 -74.183,10.708 -111.359,10.708 c -1.609,0 -2.199,0.598 -2.203,2.229 -0.012,3.226 -0.012,6.449 0,9.667 0.004,1.657 0.627,2.284 2.312,2.284 7.864,0.006 52.825,-0.006 67.437,-0.006 0.336,0 0.676,0.041 1.145,0.07"
             style="fill:#414142;fill-opacity:1;fill-rule:evenodd;stroke:none"
             id="path26" /></g></g></g></g></svg>