<?xml version="1.0" encoding="UTF-8" standalone="no"?>
<svg
   xmlns:dc="http://purl.org/dc/elements/1.1/"
   xmlns:cc="http://creativecommons.org/ns#"
   xmlns:rdf="http://www.w3.org/1999/02/22-rdf-syntax-ns#"
   xmlns:svg="http://www.w3.org/2000/svg"
   xmlns="http://www.w3.org/2000/svg"
   version="1.1"
   id="svg2"
   xml:space="preserve"
   width="231.41333"
   height="231.41333"
   viewBox="0 0 231.41333 231.41333"><metadata
     id="metadata8"><rdf:RDF><cc:Work
         rdf:about=""><dc:format>image/svg+xml</dc:format><dc:type
           rdf:resource="http://purl.org/dc/dcmitype/StillImage" /></cc:Work></rdf:RDF></metadata><defs
     id="defs6"><clipPath
       clipPathUnits="userSpaceOnUse"
       id="clipPath18"><path
         d="M 0,283.46 H 283.46 V 0 H 0 Z"
         id="path16" /></clipPath></defs><g
     id="g10"
     transform="matrix(1.3333333,0,0,-1.3333333,-73.266398,304.67999)"><g
       id="g12"><g
         id="g14"
         clip-path="url(#clipPath18)"><g
           id="g20"
           transform="translate(225.6973,141.729)"><path
             d="m 0,0 c 0,-46.373 -37.594,-83.966 -83.968,-83.966 -46.373,0 -83.967,37.593 -83.967,83.966 0,46.375 37.594,83.969 83.967,83.969 C -37.594,83.969 0,46.375 0,0"
             style="fill:#ffdc24;fill-opacity:1;fill-rule:nonzero;stroke:none"
             id="path22" /></g><g
           id="g24"
           transform="translate(222.8848,141.729)"><path
             d="m 0,0 c -0.001,22.42 -9.079,42.691 -23.77,57.386 -14.695,14.691 -34.966,23.769 -57.386,23.77 -22.419,-0.001 -42.689,-9.079 -57.385,-23.77 C -153.231,42.691 -162.309,22.42 -162.31,0 c 0.001,-22.418 9.079,-42.689 23.769,-57.384 14.696,-14.691 34.966,-23.769 57.385,-23.77 22.42,10e-4 42.691,9.079 57.386,23.77 C -9.079,-42.689 -0.001,-22.418 0,0 m 5.625,0 c 0.001,-23.954 -9.718,-45.667 -25.418,-61.362 -15.695,-15.699 -37.408,-25.418 -61.363,-25.417 -23.954,-0.001 -45.667,9.718 -61.362,25.417 -15.699,15.695 -25.419,37.408 -25.417,61.362 -0.002,23.955 9.718,45.668 25.417,61.364 15.695,15.699 37.408,25.419 61.362,25.417 23.955,0.002 45.668,-9.718 61.363,-25.417 C -4.093,45.668 5.626,23.955 5.625,0 m -124.154,-40.089 c -0.814,-5.09 3.936,-5.211 4.858,0 1.048,40.179 37.575,40.179 37.575,40.179 1.573,2.896 -1.974,2.125 -1.974,2.125 -35.726,-3.67 -37.574,-24.142 -40.459,-42.304 m 73.416,38.634 c -35.726,-3.668 -38.351,-41.724 -38.086,-46.939 0.262,-5.215 3.937,-5.215 4.855,0 1.053,40.178 35.199,44.818 35.199,44.818 1.579,2.894 -1.968,2.121 -1.968,2.121 m -74.869,-37.347 c 0.305,1.957 0.609,3.967 0.959,6 -4.863,1.908 -9.256,4.213 -12.871,7.01 0,0 -4.703,-1.409 4.301,-8.692 1.656,-1.342 4.273,-2.824 7.611,-4.318 m 7.869,-1.881 c -0.066,-0.387 -0.158,-0.758 -0.262,-1.117 7.758,-2.698 17.442,-5.153 27.561,-6.578 -0.01,0.224 -0.014,0.453 -0.014,0.716 0,1.606 0.153,4.178 0.635,7.366 -9.139,0.914 -18.787,2.457 -27.537,5.021 -0.168,-1.558 -0.283,-3.187 -0.33,-4.904 l -0.01,-0.254 z m 35.336,-8.303 c -0.022,-0.096 -0.047,-0.181 -0.067,-0.275 7.932,-0.645 15.891,-0.545 23.196,0.676 6.697,1.931 12.734,5.214 7.353,7.339 0,0 -13.182,-0.791 -29.766,0.282 -0.357,-2.34 -0.599,-4.828 -0.669,-7.518 l -0.01,-0.258 z m -39.285,28.385 c 0.656,1.885 1.434,3.736 2.371,5.523 1.441,2.76 3.274,5.338 5.566,7.672 -0.789,0.115 -1.546,0.227 -2.265,0.332 -21.535,3.274 -24.692,4.653 -19.043,4.524 2.994,-0.071 13.07,-0.791 24.867,-1.741 0.945,0.715 1.938,1.405 3.008,2.045 0.068,0.041 0.141,0.079 0.211,0.118 -2.395,0.16 -4.801,0.322 -7.203,0.48 -32.047,2.127 -34.02,7.148 -39.137,11.976 -5.121,4.828 -9.066,4.248 -9.066,4.248 2.582,-18.568 23.011,-29.337 40.691,-35.177 m 19.465,-4.996 c 4.055,-0.76 9.476,-1.535 15.625,-2.131 1.718,4.65 4.171,9.482 7.656,13.842 0.714,0.894 1.474,1.767 2.277,2.613 -9.019,0.643 -18.005,1.522 -25.699,2.412 -3.554,-2.373 -6.937,-5.566 -9.594,-9.861 -0.794,-1.283 -1.523,-2.66 -2.177,-4.143 4.564,-1.236 8.681,-2.133 11.912,-2.732 m 29.609,18.037 c 1.312,1.043 2.726,2.004 4.222,2.896 -6.539,0.407 -13.586,0.864 -20.894,1.352 -2.043,-0.475 -4.347,-1.16 -6.744,-2.16 6.174,-0.529 12.252,-1.08 17.578,-1.602 1.875,-0.179 3.834,-0.34 5.838,-0.486 m 6.953,-5.775 c 0.644,0.472 1.285,0.912 1.93,1.328 16.57,-0.674 31.074,-0.114 34.925,3.211 0,0 -13.226,-0.094 -27.996,0.421 4.52,1.875 7.91,2.403 8.168,2.432 l 0.012,0.002 0.68,0.098 0.043,0.074 c 4.757,-0.203 8.832,-0.32 12,-0.32 14.189,0 17.73,4.634 17.73,4.634 0,0 5.121,12.939 9.326,9.269 0,0 0.656,-19.118 -18.517,-29.548 -12.379,-6.734 -33.08,-7.67 -50.653,-6.656 0.346,0.754 0.711,1.482 1.096,2.191 3.068,5.688 7.135,9.856 11.256,12.864"
             style="fill:#4d4c4e;fill-opacity:1;fill-rule:nonzero;stroke:none"
             id="path26" /></g></g></g></g></svg>