<?xml version="1.0" encoding="UTF-8" standalone="no"?>
<svg
   xmlns:dc="http://purl.org/dc/elements/1.1/"
   xmlns:cc="http://creativecommons.org/ns#"
   xmlns:rdf="http://www.w3.org/1999/02/22-rdf-syntax-ns#"
   xmlns:svg="http://www.w3.org/2000/svg"
   xmlns="http://www.w3.org/2000/svg"
   version="1.1"
   id="svg2"
   xml:space="preserve"
   width="231.41333"
   height="231.41333"
   viewBox="0 0 231.41333 231.41333"><metadata
     id="metadata8"><rdf:RDF><cc:Work
         rdf:about=""><dc:format>image/svg+xml</dc:format><dc:type
           rdf:resource="http://purl.org/dc/dcmitype/StillImage" /></cc:Work></rdf:RDF></metadata><defs
     id="defs6"><clipPath
       clipPathUnits="userSpaceOnUse"
       id="clipPath18"><path
         d="M 0,283.46 H 283.46 V 0 H 0 Z"
         id="path16" /></clipPath></defs><g
     id="g10"
     transform="matrix(1.3333333,0,0,-1.3333333,-73.266398,304.67999)"><g
       id="g12"><g
         id="g14"
         clip-path="url(#clipPath18)"><g
           id="g20"
           transform="translate(225.6973,141.729)"><path
             d="m 0,0 c 0,-46.373 -37.594,-83.966 -83.968,-83.966 -46.373,0 -83.967,37.593 -83.967,83.966 0,46.375 37.594,83.969 83.967,83.969 C -37.594,83.969 0,46.375 0,0"
             style="fill:#ffdb00;fill-opacity:1;fill-rule:nonzero;stroke:none"
             id="path22" /></g><g
           id="g24"
           transform="translate(222.8848,141.729)"><path
             d="m 0,0 c -0.001,22.42 -9.079,42.691 -23.77,57.386 -14.695,14.691 -34.966,23.769 -57.386,23.77 -22.419,-0.001 -42.689,-9.079 -57.385,-23.77 C -153.231,42.691 -162.309,22.42 -162.31,0 c 0.001,-22.418 9.079,-42.689 23.769,-57.384 5.87,-5.867 12.64,-10.82 20.069,-14.676 1.448,5.48 2.803,9.258 2.803,9.258 -3.694,19.26 -1.323,36.756 10.904,48.365 12.223,11.605 32.361,16.796 51.179,22.076 18.82,5.273 27.352,11.779 27.352,11.779 -0.793,-7.121 -2.465,-27.787 -18.118,-49.683 -15.654,-21.897 -35.88,-27 -49.421,-30.779 -13.543,-3.78 -16.621,-6.502 -16.621,-6.502 11.434,27.707 43.882,47.218 43.882,47.218 v 1.143 c -38.868,-21.809 -41.859,-35.002 -45.73,-45.727 -0.966,-2.68 -1.711,-5.836 -2.287,-9.058 10.18,-4.602 21.468,-7.184 33.373,-7.184 22.42,10e-4 42.691,9.079 57.386,23.77 C -9.079,-42.689 -0.001,-22.418 0,0 m 5.625,0 c 0.001,-23.954 -9.718,-45.667 -25.418,-61.362 -15.695,-15.699 -37.408,-25.418 -61.363,-25.417 -23.954,-0.001 -45.667,9.718 -61.362,25.417 -15.699,15.695 -25.419,37.408 -25.417,61.362 -0.002,23.955 9.718,45.668 25.417,61.364 15.695,15.699 37.408,25.419 61.362,25.417 23.955,0.002 45.668,-9.718 61.363,-25.417 C -4.093,45.668 5.626,23.955 5.625,0 m -142.644,6.965 c -11.369,8.689 -15.406,15.428 -15.406,15.428 -1.395,-5.057 -5.864,-19.571 -1.149,-38.707 4.711,-19.139 17.086,-28.09 25.274,-34.336 4.908,-3.744 7.363,-6.205 8.539,-7.58 -0.52,3.772 -0.797,7.475 -0.797,11.096 v 0.269 c -4.383,17.016 -15.246,31.301 -15.246,31.301 l 0.308,0.779 c 8.172,-10.101 12.848,-17.73 15.493,-23.783 0.502,3.686 1.347,7.242 2.589,10.629 1.485,4.043 3.538,7.834 6.198,11.273 -6.084,8.842 -16.266,16.342 -25.803,23.631 m 57.292,37.394 c 1.657,-13.664 3.606,-27.961 2.237,-40.382 -1.799,-0.616 -3.58,-1.254 -5.334,-1.922 -4.57,-1.746 -8.968,-3.709 -13.054,-6.017 -2.157,-1.217 -4.227,-2.532 -6.184,-3.961 2.389,7.464 4.453,17.648 5.859,32.044 l -0.886,-0.392 c 0,0 -2.391,-19.006 -10.868,-36.674 -0.576,-0.582 -1.128,-1.178 -1.666,-1.787 -0.562,0.791 -1.154,1.576 -1.769,2.344 -2.709,3.363 -5.9,6.492 -9.316,9.48 -0.909,11.779 -0.293,26.449 8.556,42.164 11.758,20.877 27.209,29.385 32.461,32.506 0,0 -2.205,-9.52 -0.036,-27.403"
             style="fill:#414142;fill-opacity:1;fill-rule:nonzero;stroke:none"
             id="path26" /></g></g></g></g></svg>