<?xml version="1.0" encoding="UTF-8" standalone="no"?>
<svg
   xmlns:dc="http://purl.org/dc/elements/1.1/"
   xmlns:cc="http://creativecommons.org/ns#"
   xmlns:rdf="http://www.w3.org/1999/02/22-rdf-syntax-ns#"
   xmlns:svg="http://www.w3.org/2000/svg"
   xmlns="http://www.w3.org/2000/svg"
   version="1.1"
   id="svg2"
   xml:space="preserve"
   width="231.41199"
   height="231.41333"
   viewBox="0 0 231.41199 231.41333"><metadata
     id="metadata8"><rdf:RDF><cc:Work
         rdf:about=""><dc:format>image/svg+xml</dc:format><dc:type
           rdf:resource="http://purl.org/dc/dcmitype/StillImage" /></cc:Work></rdf:RDF></metadata><defs
     id="defs6"><clipPath
       clipPathUnits="userSpaceOnUse"
       id="clipPath18"><path
         d="M 0,283.46 H 283.46 V 0 H 0 Z"
         id="path16" /></clipPath></defs><g
     id="g10"
     transform="matrix(1.3333333,0,0,-1.3333333,-73.267864,304.68013)"><g
       id="g12"><g
         id="g14"
         clip-path="url(#clipPath18)"><g
           id="g20"
           transform="translate(225.6973,141.729)"><path
             d="m 0,0 c 0,-46.371 -37.594,-83.966 -83.967,-83.966 -46.373,0 -83.967,37.595 -83.967,83.966 0,46.373 37.594,83.969 83.967,83.969 C -37.594,83.969 0,46.373 0,0"
             style="fill:#ffdb00;fill-opacity:1;fill-rule:nonzero;stroke:none"
             id="path22" /></g><g
           id="g24"
           transform="translate(222.0029,129.7891)"><path
             d="m 0,0 c 0.575,3.896 0.882,7.882 0.882,11.94 0,1.939 -0.093,3.855 -0.226,5.759 -5.547,-7.75 -20.423,-27.787 -35.764,-41.917 0.123,0.196 0.246,0.393 0.365,0.586 v 0.004 c 1.519,2.457 2.834,4.959 3.789,6.869 0.953,1.91 1.543,3.225 1.566,3.276 0.303,0.673 0.446,1.39 0.446,2.089 -0.002,0.295 -0.075,0.582 -0.125,0.87 0.734,0.082 1.476,0.246 2.218,0.545 l 0.004,0.003 c 1.352,0.547 2.739,1.479 3.957,2.856 1.219,1.377 2.246,3.182 2.92,5.42 l 0.002,0.017 0.156,0.559 0.008,0.039 0.01,0.029 c 0.035,0.147 0.023,0.282 0.053,0.428 8.65,8.834 16.344,17.067 20.161,21.189 -0.221,2.088 -0.536,4.147 -0.911,6.184 -0.89,-1.138 -1.613,-2.429 -2.223,-3.889 -0.531,1.65 -0.978,3.051 -1.459,4.549 -2.426,-2.528 -3.924,-5.315 -4.08,-8.811 -0.256,0.328 -0.514,0.656 -0.812,1.043 -0.78,-1.527 -1.368,-2.951 -2.188,-4.228 -1.51,-2.344 -3.373,-4.494 -3.596,-7.635 -1.111,1.282 -1.506,2.608 -1.588,4.031 -0.076,1.371 -0.07,2.748 -0.099,4.119 -0.072,0.002 -0.143,0.012 -0.211,0.018 -0.375,-0.475 -0.752,-0.949 -1.17,-1.477 -0.957,2.684 -0.447,5.098 0.57,7.508 0.53,1.258 0.977,2.576 1.231,3.91 0.449,2.436 1.256,4.668 2.894,6.563 0.278,0.324 0.494,0.701 0.875,1.246 -2.349,-0.443 -3.371,-2.344 -5.035,-3.514 -0.125,0.69 -0.226,1.291 -0.336,1.893 -0.062,0.043 -0.129,0.086 -0.191,0.129 -0.069,-0.135 -0.104,-0.301 -0.207,-0.399 -1.739,-1.689 -3.471,-3.386 -5.242,-5.045 -0.352,-0.33 -0.969,-0.783 -1.282,-0.672 -1.066,0.374 -1.482,-0.273 -1.963,-0.939 -0.867,-1.207 -1.74,-2.406 -2.611,-3.607 -0.344,0.263 -0.617,0.474 -0.953,0.732 -0.672,-1.91 -1.309,-3.732 -2.014,-5.758 -0.72,1.85 -0.82,3.52 -0.529,5.19 0.283,1.611 0.719,3.201 1.125,4.945 -0.566,-0.367 -1,-0.647 -1.527,-0.99 0.531,3.746 3.019,6.113 5.547,8.691 h -2.583 c 0.786,0.955 1.295,1.832 2.034,2.414 1.404,1.108 2.935,2.051 4.42,3.049 1.57,1.059 3.15,2.102 4.722,3.15 -4.689,1.211 -9.086,0.454 -13.431,-1.341 0.123,0.404 0.199,0.662 0.316,1.048 -3.059,-0.791 -5.391,-2.484 -7.535,-4.81 0.033,0.402 0.035,0.576 0.064,0.748 0.055,0.293 0.118,0.588 0.196,0.875 1.066,3.805 3.691,6.115 7.226,7.566 0.442,0.182 0.867,0.409 1.297,0.614 -0.016,0.06 -0.027,0.125 -0.043,0.187 -0.422,0.096 -0.842,0.194 -1.406,0.322 4.269,2.608 8.781,2.17 13.312,1.596 0.024,0.098 0.047,0.192 0.071,0.287 -0.69,0.324 -1.375,0.649 -2.285,1.08 3.57,0.242 6.576,-0.752 9.429,-2.416 0.055,0.116 0.113,0.229 0.172,0.344 -2.207,2.533 -4.41,5.066 -6.621,7.6 0.035,0.043 0.07,0.082 0.105,0.123 1.147,-0.43 2.29,-0.862 3.665,-1.379 -1.567,2.334 -3.198,4.263 -5.262,5.728 -2.039,1.451 -4.229,2.696 -6.328,4.012 h 0.775 c 2.489,0.026 4.889,-0.317 7.197,-1.114 -1.536,1.832 -3.142,3.604 -4.832,5.295 -14.695,14.691 -34.966,23.769 -57.385,23.77 -22.419,-0.001 -42.689,-9.079 -57.385,-23.77 -2.872,-2.874 -5.521,-5.967 -7.939,-9.24 0.978,-0.28 1.945,-0.631 2.904,-1.043 -0.695,0.598 -1.39,1.194 -2.082,1.79 0.106,0.148 0.215,0.298 0.32,0.447 2.625,0.138 4.932,-0.803 7.047,-2.315 2.16,-1.541 3.262,-3.875 4.367,-6.201 0.092,0.026 0.184,0.051 0.27,0.076 0.086,0.926 0.168,1.852 0.254,2.782 1.07,-0.508 1.443,-1.955 2.211,-6.848 2.101,6.211 5.422,11.363 11.988,13.951 -0.32,-0.842 -0.582,-1.543 -0.932,-2.459 2.127,0.973 4.073,1.787 5.952,2.738 3.035,1.539 6.248,2.176 9.623,2.141 h 0.775 c -2.098,-1.316 -4.289,-2.561 -6.33,-4.012 -2.061,-1.465 -3.691,-3.394 -5.26,-5.728 1.375,0.517 2.518,0.949 3.664,1.379 0.035,-0.041 0.071,-0.08 0.106,-0.123 -2.207,-2.534 -4.414,-5.067 -6.619,-7.6 0.056,-0.115 0.115,-0.228 0.173,-0.344 2.85,1.664 5.86,2.658 9.426,2.416 -0.91,-0.431 -1.595,-0.756 -2.285,-1.08 0.027,-0.095 0.047,-0.189 0.07,-0.287 4.532,0.574 9.043,1.012 13.317,-1.596 -0.569,-0.128 -0.988,-0.226 -1.41,-0.322 -0.014,-0.062 -0.028,-0.127 -0.043,-0.187 0.433,-0.205 0.855,-0.432 1.297,-0.614 3.535,-1.451 6.162,-3.761 7.226,-7.566 0.082,-0.287 0.143,-0.582 0.195,-0.875 0.032,-0.172 0.032,-0.346 0.067,-0.748 -2.147,2.326 -4.477,4.019 -7.537,4.81 0.117,-0.386 0.193,-0.644 0.316,-1.048 -4.348,1.795 -8.74,2.552 -13.431,1.341 1.574,-1.048 3.154,-2.091 4.724,-3.15 1.486,-0.998 3.014,-1.941 4.418,-3.049 0.74,-0.582 1.248,-1.459 2.033,-2.414 h -2.582 c 2.528,-2.578 5.016,-4.945 5.551,-8.691 -0.531,0.343 -0.961,0.623 -1.527,0.99 0.404,-1.744 0.84,-3.334 1.121,-4.945 0.293,-1.67 0.195,-3.34 -0.528,-5.19 -0.707,2.026 -1.347,3.848 -2.011,5.758 -0.34,-0.258 -0.614,-0.469 -0.957,-0.732 -0.867,1.201 -1.742,2.4 -2.61,3.607 -0.48,0.666 -0.894,1.313 -1.961,0.939 -0.316,-0.111 -0.929,0.342 -1.281,0.672 -1.773,1.659 -3.508,3.356 -5.246,5.045 -0.103,0.098 -0.139,0.264 -0.203,0.399 -0.066,-0.043 -0.133,-0.086 -0.195,-0.129 -0.106,-0.602 -0.211,-1.203 -0.336,-1.893 -1.664,1.17 -2.686,3.071 -5.035,3.514 0.38,-0.545 0.597,-0.922 0.875,-1.246 1.638,-1.895 2.441,-4.127 2.898,-6.563 0.25,-1.334 0.697,-2.652 1.227,-3.91 1.019,-2.41 1.531,-4.824 0.57,-7.508 -0.418,0.528 -0.793,1.002 -1.168,1.477 -0.07,-0.006 -0.143,-0.016 -0.213,-0.018 -0.029,-1.371 -0.022,-2.748 -0.096,-4.119 -0.082,-1.423 -0.48,-2.749 -1.59,-4.031 -0.222,3.141 -2.086,5.291 -3.593,7.635 -0.821,1.277 -1.41,2.701 -2.188,4.228 -0.303,-0.387 -0.558,-0.715 -0.812,-1.043 -0.16,3.496 -1.659,6.283 -4.084,8.811 -0.481,-1.498 -0.928,-2.899 -1.459,-4.549 -1.049,2.514 -2.414,4.539 -4.43,6.115 -0.004,-0.006 -0.006,-0.012 -0.012,-0.017 -0.05,-1.219 -0.09,-2.428 -0.111,-3.621 3.199,-5.059 16.541,-25.504 30.586,-37.873 -0.106,-0.037 -0.211,-0.072 -0.317,-0.111 -1.478,-0.528 -2.951,-1.084 -4.345,-1.635 -6.336,8.367 -20.59,28.622 -25.936,36.247 0.287,-55.987 32.74,-84.54 40.74,-87.823 1.124,-0.462 2.325,-1.702 3.398,-3.079 2.104,-0.163 4.224,-0.273 6.37,-0.273 22.419,0.001 42.69,9.08 57.385,23.771 9.794,9.797 17.073,22.08 20.851,35.817 C -1.256,-6.544 -0.567,-3.342 0,0 m -112.171,-62.697 c -19.65,26.034 -22.667,77.084 -23.096,88.242 l -2.076,-0.377 c 0.049,0.159 0.103,0.317 0.158,0.473 0.146,0.44 0.285,0.883 0.25,1.453 -0.77,-0.469 -1.531,-0.941 -2.426,-1.496 v 3.033 c -0.078,0.037 -0.152,0.075 -0.23,0.106 -1.231,-2.041 -2.325,-4.203 -4.629,-5.565 0.262,0.825 0.472,1.489 0.683,2.153 -0.064,0.054 -0.129,0.107 -0.193,0.16 -2.451,-2.383 -5.971,-3.465 -7.828,-6.836 -0.127,0.732 -0.223,1.289 -0.334,1.941 -1.283,-1.138 -2.109,-2.457 -2.69,-3.951 -0.607,-1.558 -1.16,-3.146 -1.888,-4.65 -0.371,-0.764 -1.067,-1.367 -1.617,-2.047 -0.102,0.047 -0.198,0.094 -0.301,0.141 -0.063,0.943 -0.166,1.88 -0.18,2.824 -0.055,2.871 -0.209,5.746 -0.055,8.607 0.079,1.377 0.758,2.729 1.196,4.199 -0.67,-0.416 -1.385,-0.861 -2.229,-1.388 0.42,1.81 1.307,3.17 2.479,4.347 1.131,1.139 2.326,2.219 3.601,3.426 -0.476,0.022 -0.816,0.035 -1.275,0.057 0.797,1.254 1.857,2.103 2.988,2.857 1.135,0.758 2.322,1.436 3.621,2.233 -1.677,0.488 -3.209,0.486 -4.687,-0.041 -1.698,-0.608 -3.383,-1.275 -5.082,-1.944 -2.212,-7.386 -3.416,-15.209 -3.416,-23.32 0.001,-22.418 9.079,-42.688 23.769,-57.383 7.269,-7.267 15.905,-13.154 25.487,-17.254 m -40.453,111.385 c 1.478,-0.091 2.956,-0.307 4.429,-0.732 0.713,-0.206 1.389,-0.543 2.084,-0.813 0.293,-0.113 0.588,-0.209 0.945,-0.219 -1.171,1.926 -3.003,3.155 -4.845,4.723 1.115,-0.113 2.004,-0.203 3.076,-0.311 -0.849,1.04 -1.754,1.936 -2.718,2.726 -1.062,-1.745 -2.04,-3.545 -2.971,-5.374 M 6.507,11.94 C 6.508,-12.013 -3.211,-33.726 -18.91,-49.421 -34.605,-65.12 -56.318,-74.84 -80.273,-74.839 c -23.955,-0.001 -45.667,9.719 -61.362,25.418 -15.699,15.695 -25.419,37.408 -25.417,61.361 -0.002,23.954 9.718,45.667 25.417,61.363 15.695,15.7 37.408,25.42 61.362,25.418 23.955,0.002 45.668,-9.718 61.363,-25.418 C -3.211,57.607 6.508,35.894 6.507,11.94 M -33.245,-6.353 c 0.408,-0.515 0.844,-0.931 1.289,-1.248 l 0.668,-0.404 0.68,-0.252 c 0.306,-0.07 0.63,-0.099 0.972,-0.082 0.596,0.024 1.254,0.168 1.944,0.445 1.027,0.418 2.129,1.149 3.119,2.266 0.986,1.115 1.863,2.625 2.449,4.574 l 0.143,0.526 c 0.175,0.724 0.246,1.396 0.23,2.027 -0.021,0.549 -0.109,1.057 -0.25,1.523 -0.246,0.821 -0.668,1.502 -1.143,2.045 -0.363,0.411 -0.755,0.745 -1.146,1.014 -0.586,0.41 -1.162,0.686 -1.625,0.873 -0.463,0.182 -0.809,0.275 -0.943,0.305 -0.159,0.041 -0.608,0.137 -1.233,0.179 C -28.563,7.47 -29.132,7.47 -29.753,7.376 -30.216,7.31 -30.712,7.188 -31.206,6.989 -31.95,6.69 -32.7,6.21 -33.333,5.478 -33.646,5.114 -33.935,4.688 -34.171,4.204 -34.411,3.714 -34.61,3.169 -34.757,2.56 l -0.115,-0.534 c -0.281,-1.525 -0.295,-2.9 -0.121,-4.107 0.26,-1.811 0.939,-3.242 1.748,-4.272 m -60.741,-4.617 c 0,0 -15.519,15.34 -16.859,16.455 -1.887,1.575 -3.594,-0.136 -3.594,-0.136 0.809,-1.014 4.18,-5.176 8.043,-9.2 3.998,-4.16 8.344,-7.951 8.344,-7.951 0,0 3.469,0.715 4.066,0.832 m 62.382,-1.523 c 0.103,0.224 0.166,0.457 0.201,0.691 0.179,1.172 -0.43,2.367 -1.563,2.871 -1.359,0.61 -2.957,0 -3.562,-1.359 -0.024,-0.049 -1.313,-2.924 -3.104,-6.188 -0.162,-0.293 -0.328,-0.591 -0.494,-0.89 -0.77,-1.358 -1.609,-2.742 -2.453,-3.979 -0.512,-0.75 -1.025,-1.441 -1.518,-2.033 -0.49,-0.592 -0.955,-1.076 -1.345,-1.408 -0.164,-0.139 -0.399,-0.297 -0.717,-0.449 -0.475,-0.229 -1.123,-0.44 -1.901,-0.58 -0.783,-0.147 -1.687,-0.223 -2.669,-0.223 -1.292,0 -2.713,0.135 -4.174,0.408 -1.944,0.36 -3.95,0.975 -5.825,1.807 -0.242,0.111 -0.484,0.222 -0.722,0.338 -0.266,0.129 -0.517,0.275 -0.776,0.414 -0.261,0.139 -0.53,0.273 -0.784,0.423 -0.271,0.16 -0.526,0.335 -0.787,0.504 -0.202,0.132 -0.412,0.256 -0.606,0.393 -0.316,0.222 -0.608,0.46 -0.902,0.696 -0.123,0.1 -0.258,0.191 -0.377,0.293 -0.404,0.345 -0.786,0.703 -1.139,1.076 -1.03,1.08 -2.735,1.123 -3.813,0.093 -0.129,-0.122 -0.24,-0.255 -0.34,-0.394 -0.049,-0.071 -0.087,-0.147 -0.13,-0.221 -0.042,-0.073 -0.087,-0.144 -0.122,-0.22 -0.037,-0.081 -0.062,-0.166 -0.091,-0.251 -0.025,-0.074 -0.053,-0.146 -0.072,-0.222 -0.021,-0.086 -0.032,-0.174 -0.045,-0.262 -0.01,-0.076 -0.023,-0.152 -0.027,-0.23 -0.005,-0.088 -0.002,-0.177 0.002,-0.266 0.003,-0.076 0.007,-0.151 0.017,-0.227 0.011,-0.091 0.03,-0.18 0.05,-0.271 0.017,-0.07 0.035,-0.139 0.057,-0.208 0.029,-0.093 0.064,-0.183 0.105,-0.274 0.027,-0.061 0.058,-0.122 0.09,-0.181 0.049,-0.092 0.103,-0.181 0.163,-0.267 0.016,-0.022 0.026,-0.047 0.042,-0.068 0.004,0 0.008,-0.001 0.012,-0.001 0.064,-0.085 0.121,-0.173 0.195,-0.251 0.305,-0.322 0.625,-0.629 0.954,-0.93 1.07,-0.986 2.242,-1.863 3.48,-2.627 2.416,-1.506 5.07,-2.607 7.734,-3.351 2.664,-0.739 5.344,-1.114 7.831,-1.12 1.687,0.004 3.292,0.176 4.779,0.563 0.74,0.195 1.453,0.449 2.125,0.773 0.676,0.323 1.316,0.721 1.896,1.219 0.705,0.61 1.362,1.307 1.994,2.07 1.11,1.34 2.155,2.881 3.127,4.458 1.463,2.363 2.745,4.81 3.682,6.679 0.934,1.869 1.51,3.158 1.522,3.182 m -19.127,-21.369 c -2.735,0.004 -5.612,0.416 -8.477,1.207 h -0.004 c -2.861,0.797 -5.723,1.986 -8.363,3.625 l -0.004,0.002 c -1.76,1.091 -3.426,2.396 -4.902,3.947 -0.27,0.277 -0.502,0.588 -0.692,0.91 -0.148,0.242 -0.269,0.492 -0.373,0.754 -0.041,0.102 -0.076,0.213 -0.111,0.318 l -3.614,0.069 c -0.621,0.011 -1.289,0.06 -1.961,0.125 -0.668,0.062 -1.332,0.134 -1.891,0.199 -0.57,0.066 -1.105,0.135 -1.636,0.217 -1.746,0.486 -3.461,1.066 -5.121,1.746 -0.235,0.096 -0.467,0.193 -0.7,0.299 -0.234,0.105 -0.468,0.211 -0.703,0.322 -0.027,0 -0.054,-0.006 -0.086,-0.01 -0.273,-0.031 -0.629,-0.094 -1.023,-0.176 -0.801,-0.16 -1.797,-0.423 -2.879,-0.746 -1.48,-0.445 -3.133,-1.008 -4.781,-1.613 7.551,-8.512 19.789,-18.793 38.262,-16.463 4,0.504 8.441,2.553 13.055,5.602 -1.299,-0.233 -2.633,-0.334 -3.994,-0.334 z m -41.81,15.539 c 0.594,0.158 1.153,0.287 1.661,0.392 0.445,0.094 0.855,0.164 1.207,0.211 0.351,0.041 0.646,0.065 0.855,0.059 0.131,0 0.227,-0.006 0.277,-0.012 l 0.02,-0.002 c 0.055,-0.027 0.314,-0.043 0.5,-0.156 0.215,-0.133 0.518,-0.322 0.813,-0.582 0.583,-0.52 0.042,-0.039 0.832,-0.748 0.003,-0.002 1.382,-0.486 2.082,-0.615 1.209,-0.223 2.234,-0.375 3.449,-0.516 1.111,-0.129 2.586,-0.293 3.621,-0.311 -1.619,1.678 -2.463,2.649 -3.992,4.053 -1.012,0.922 -1.965,1.742 -2.866,2.416 -0.451,0.338 -0.884,0.639 -1.33,0.903 -0.218,0.134 -0.441,0.257 -0.673,0.369 -0.233,0.117 -0.475,0.216 -0.745,0.31 -0.357,0.117 -0.695,0.188 -1.023,0.229 -0.328,0.041 -0.648,0.058 -0.965,0.058 -0.508,0 -1.017,-0.041 -1.543,-0.105 -0.98,-0.125 -2.023,-0.346 -3.133,-0.629 -1.429,-0.363 -2.968,-0.836 -4.535,-1.367 -0.549,-0.184 -1.101,-0.377 -1.656,-0.571 -1.223,-0.437 -2.441,-0.894 -3.615,-1.347 -1.899,-0.738 -3.682,-1.471 -5.168,-2.094 -2.401,-1.016 -7.248,-3.621 -7.266,-3.625 -1.353,-0.615 -1.957,-2.215 -1.342,-3.574 0.616,-1.354 2.215,-1.957 3.571,-1.342 0.035,0.018 7.451,3.785 12.279,5.65 0.49,0.192 0.984,0.379 1.482,0.567 1.961,0.732 3.967,1.433 5.778,1.974 0.492,0.147 0.968,0.282 1.425,0.405 m 38.083,-4.922 c -0.432,0.078 -0.867,0.176 -1.309,0.285 4.006,0.863 7.932,2.111 11.676,3.719 -0.164,-0.248 -0.328,-0.494 -0.492,-0.735 -0.48,-0.703 -0.955,-1.339 -1.379,-1.855 l -0.004,-0.002 c -0.211,-0.252 -0.414,-0.48 -0.594,-0.668 -0.179,-0.187 -0.343,-0.34 -0.457,-0.439 -0.009,-0.008 -0.074,-0.053 -0.191,-0.112 h -0.008 c -0.105,-0.052 -0.279,-0.123 -0.496,-0.189 -0.219,-0.069 -0.486,-0.133 -0.785,-0.192 h -0.006 c -0.6,-0.111 -1.369,-0.181 -2.221,-0.181 h -0.017 c -1.115,0 -2.401,0.123 -3.717,0.369"
             style="fill:#414142;fill-opacity:1;fill-rule:nonzero;stroke:none"
             id="path26" /></g></g></g></g></svg>