<?xml version="1.0" encoding="UTF-8" standalone="no"?>
<svg
   xmlns:dc="http://purl.org/dc/elements/1.1/"
   xmlns:cc="http://creativecommons.org/ns#"
   xmlns:rdf="http://www.w3.org/1999/02/22-rdf-syntax-ns#"
   xmlns:svg="http://www.w3.org/2000/svg"
   xmlns="http://www.w3.org/2000/svg"
   version="1.1"
   id="svg2"
   xml:space="preserve"
   width="231.41333"
   height="231.41733"
   viewBox="0 0 231.41333 231.41733"><metadata
     id="metadata8"><rdf:RDF><cc:Work
         rdf:about=""><dc:format>image/svg+xml</dc:format><dc:type
           rdf:resource="http://purl.org/dc/dcmitype/StillImage" /></cc:Work></rdf:RDF></metadata><defs
     id="defs6"><clipPath
       clipPathUnits="userSpaceOnUse"
       id="clipPath18"><path
         d="M 0,283.46 H 283.46 V 0 H 0 Z"
         id="path16" /></clipPath></defs><g
     id="g10"
     transform="matrix(1.3333333,0,0,-1.3333333,-73.266931,304.68186)"><g
       id="g12"><g
         id="g14"
         clip-path="url(#clipPath18)"><g
           id="g20"
           transform="translate(225.6973,141.7261)"><path
             d="m 0,0 c 0,-46.372 -37.594,-83.965 -83.968,-83.965 -46.373,0 -83.967,37.593 -83.967,83.965 0,46.379 37.594,83.973 83.967,83.973 C -37.594,83.973 0,46.379 0,0"
             style="fill:#ffdb00;fill-opacity:1;fill-rule:nonzero;stroke:none"
             id="path22" /></g><g
           id="g24"
           transform="translate(152.4512,185.7534)"><path
             d="m 0,0 c -0.164,-1.312 -0.4,-2.508 -0.658,-3.488 -0.592,-2.198 -1.447,-4.553 -2.494,-6.801 -0.787,-1.684 -1.688,-3.313 -2.653,-4.777 -0.718,-1.096 -1.486,-2.104 -2.254,-2.969 -1.148,-1.313 -2.325,-2.309 -3.358,-2.914 -0.524,-0.305 -1.004,-0.516 -1.442,-0.653 -0.42,-0.132 -0.805,-0.195 -1.164,-0.203 -0.076,0.016 -0.312,0.067 -0.633,0.196 -0.691,0.265 -1.752,0.851 -2.888,1.754 -1.713,1.355 -3.62,3.412 -5.233,6.113 -1.605,2.701 -2.935,6.043 -3.574,10.066 -0.024,0.172 -0.047,0.344 -0.078,0.51 3.234,1.193 6.273,2.662 9.096,4.271 6.15,3.528 11.231,7.682 14.812,10.973 0.48,0.436 0.931,0.86 1.357,1.266 0.365,-1.039 0.668,-2.149 0.887,-3.301 C 0.094,8.148 0.258,6.148 0.258,4.215 0.258,2.746 0.168,1.316 0,0 m 8.125,-26.414 c 0.816,1.945 -0.088,4.182 -2.021,5.023 l -0.053,0.026 c -0.278,0.131 -1.524,0.791 -2.77,2.049 -0.623,0.625 -1.256,1.402 -1.801,2.345 -0.347,0.608 -0.662,1.28 -0.921,2.041 0.289,0.52 0.574,1.051 0.836,1.582 1.263,2.524 2.259,5.16 2.945,7.723 0.316,1.18 0.558,2.465 0.734,3.836 0.174,1.377 0.27,2.84 0.27,4.352 0,2.312 -0.225,4.746 -0.785,7.162 -0.424,1.81 -1.036,3.615 -1.911,5.332 -0.656,1.289 -1.461,2.529 -2.445,3.666 -1.469,1.707 -3.357,3.175 -5.617,4.173 -2.254,1.006 -4.859,1.534 -7.718,1.53 -1.688,0 -3.278,-0.145 -4.764,-0.434 -2.602,-0.5 -4.91,-1.471 -6.826,-2.844 -1.442,-1.027 -2.649,-2.271 -3.617,-3.64 -1.461,-2.059 -2.383,-4.371 -2.952,-6.75 -0.568,-2.383 -0.783,-4.852 -0.783,-7.326 0,-1.19 0.051,-2.381 0.145,-3.569 0.012,-0.523 0.017,-1.031 0.017,-1.527 0,-4.637 -0.49,-8.301 -1.193,-11.176 -1.047,-4.308 -2.555,-6.838 -3.67,-8.267 -0.56,-0.715 -1.025,-1.151 -1.303,-1.389 -0.14,-0.117 -0.238,-0.184 -0.277,-0.211 l -0.014,-0.012 c -1.769,-1.074 -2.381,-3.371 -1.349,-5.191 1.047,-1.844 3.4,-2.49 5.25,-1.442 0.246,0.141 1.033,0.625 2.062,1.614 1.547,1.486 3.635,4.123 5.289,8.336 0.242,0.609 0.477,1.254 0.696,1.933 0.345,-0.504 0.707,-0.988 1.072,-1.447 1.764,-2.203 3.682,-3.902 5.578,-5.109 0.949,-0.608 1.896,-1.088 2.857,-1.442 0.483,-0.176 0.969,-0.322 1.473,-0.428 0.504,-0.101 1.025,-0.169 1.586,-0.169 l 0.129,0.002 c 1.277,0.023 2.51,0.279 3.652,0.699 1.002,0.359 1.933,0.843 2.804,1.41 0.969,0.631 1.86,1.359 2.688,2.16 0.725,-1.09 1.5,-2.027 2.273,-2.816 1.305,-1.336 2.582,-2.264 3.567,-2.883 0.984,-0.612 1.672,-0.914 1.828,-0.977 1.963,-0.824 4.215,0.096 5.039,2.055 m 20.818,-37.807 c 1.934,-8.768 4.334,-20.272 -2.002,-34.172 -0.722,-1.582 -1.765,-3.186 -2.968,-4.805 -0.286,-0.381 -0.578,-0.761 -0.877,-1.142 -2.018,-2.582 -4.371,-5.219 -6.446,-7.926 -0.322,-0.418 -0.638,-0.834 -0.943,-1.258 0,0 -0.418,0.26 -1.178,0.746 -1.494,0.961 -4.324,2.809 -7.974,5.317 -10.328,7.078 -27.205,19.404 -38.965,31.781 0.078,0.578 0.168,1.176 0.254,1.793 0.117,0.806 0.244,1.644 0.375,2.504 0.332,2.148 0.699,4.457 1.071,6.82 0.158,0.961 0.31,1.93 0.462,2.898 0.03,0.186 0.057,0.372 0.088,0.551 4.7,0.453 16.723,1.756 28.289,4.281 4.309,0.942 8.516,2.129 12.316,3.381 0.36,-0.164 0.721,-0.316 1.082,-0.433 0.469,-0.155 0.938,-0.276 1.409,-0.346 h 0.002 l 0.003,-0.004 c 0.344,-0.049 0.7,-0.082 1.063,-0.082 0.139,0 0.277,0.008 0.414,0.012 h 0.006 c 0.678,0.051 1.314,0.207 1.912,0.418 1.053,0.375 2.078,0.972 3.051,1.771 h 0.004 c 1.023,0.844 2.005,1.944 2.839,3.287 0.795,0.383 1.5,0.745 2.096,1.075 0,0 0.434,-1.151 1.102,-3.254 0.9,-2.836 2.232,-7.401 3.515,-13.213 M 5.848,-45.739 c -0.739,1.544 -1.289,3.38 -1.551,5.536 -0.033,0.258 -0.057,0.512 -0.07,0.758 -0.059,0.877 -0.024,1.687 0.095,2.435 0.069,0.434 0.166,0.844 0.287,1.231 0.088,0.287 0.188,0.562 0.301,0.826 0.537,1.236 1.34,2.197 2.211,2.902 0.576,0.477 1.186,0.842 1.777,1.125 0.791,0.385 1.551,0.625 2.188,0.781 0.855,0.204 1.498,0.258 1.721,0.274 0.193,0.012 0.697,0.035 1.394,-0.016 0.692,-0.054 1.576,-0.179 2.529,-0.488 0.635,-0.199 1.301,-0.48 1.95,-0.879 0.867,-0.519 1.709,-1.254 2.386,-2.246 0.383,-0.563 0.711,-1.207 0.963,-1.934 0.287,-0.828 0.475,-1.763 0.545,-2.8 0.018,-0.246 0.028,-0.498 0.03,-0.762 0.029,-2.848 -0.51,-5.223 -1.362,-7.129 -0.853,-1.907 -2.023,-3.336 -3.222,-4.327 -0.219,-0.181 -0.438,-0.345 -0.657,-0.494 -0.59,-0.406 -1.179,-0.707 -1.754,-0.912 -0.447,-0.164 -0.89,-0.264 -1.332,-0.293 l -0.082,-0.002 c -0.304,-0.015 -0.613,0.002 -0.931,0.051 -0.342,0.055 -0.698,0.139 -1.057,0.262 -0.727,0.238 -1.486,0.613 -2.242,1.131 -0.203,0.14 -0.414,0.294 -0.617,0.459 -1.299,1.035 -2.551,2.519 -3.5,4.511 m 40.816,-55.672 c -8.943,-8.941 -19.963,-15.787 -32.266,-19.787 l 0.977,3.881 -1.467,0.922 c -0.012,0.008 -0.527,0.33 -1.451,0.926 -0.133,-0.186 -0.262,-0.371 -0.391,-0.561 -1.503,-2.174 -2.787,-4.513 -3.607,-6.81 -0.004,-0.014 -0.008,-0.028 -0.014,-0.043 -3.341,-0.809 -6.763,-1.418 -10.255,-1.799 0.439,2.775 1.298,5.398 2.417,7.82 1.12,2.414 2.473,4.647 3.909,6.692 -0.627,0.427 -1.278,0.878 -1.952,1.347 -6.703,4.664 -15.493,11.088 -23.917,18.209 -4.031,3.414 -7.982,6.985 -11.588,10.617 -0.166,-1.796 -0.187,-3.015 0.01,-3.414 0.717,-1.435 15.34,-14.925 29.474,-25.06 0,0 3.234,-3.311 0.461,-7.084 -2.77,-3.768 -6.156,-1.535 -9.386,0.695 -3.231,2.231 -26.164,19.469 -30.938,28.09 0,0 0.744,12.695 3.922,26.551 3.184,13.851 7.184,23.291 8.727,20.52 1.5,-2.701 2.609,-7.262 1.045,-17.96 1.646,0.166 3.919,0.409 6.611,0.744 5.67,0.704 13.172,1.809 20.421,3.391 3.283,0.715 6.524,1.584 9.559,2.52 -1.156,1.138 -2.223,2.574 -3.063,4.339 v -0.002 c -0.839,1.761 -1.457,3.833 -1.746,6.206 -0.035,0.297 -0.06,0.586 -0.082,0.875 -0.019,0.324 -0.031,0.641 -0.031,0.949 0,0.678 0.051,1.334 0.148,1.967 0.149,0.92 0.397,1.783 0.743,2.572 v 0.004 l 0.015,0.026 c -2.586,2.326 -5.453,3.515 -6.865,2.332 -1.924,-1.604 -3.979,-3.246 -1.207,-6.633 4.924,-5.924 4.207,-11.62 4.207,-11.62 -6.082,0.309 -9.388,4.084 -12.701,6.932 -3.306,2.848 -17.621,20.625 -26.086,4.924 -8.464,-15.7 -11.005,-49.637 -11.005,-49.637 3,-8.08 15.316,-18.086 15.316,-18.086 -0.042,-0.998 -0.971,-8.143 -1.857,-14.867 -11.735,4.058 -22.256,10.715 -30.858,19.312 -14.69,14.696 -23.768,34.965 -23.769,57.384 0.001,22.422 9.079,42.694 23.769,57.389 14.695,14.692 34.966,23.77 57.385,23.771 22.419,-0.002 42.691,-9.079 57.386,-23.771 14.691,-14.695 23.77,-34.967 23.77,-57.389 0,-22.419 -9.079,-42.688 -23.77,-57.384 M 50.641,17.34 C 34.945,33.04 13.232,42.759 -10.722,42.758 -34.676,42.759 -56.389,33.04 -72.084,17.34 c -15.7,-15.696 -25.419,-37.41 -25.417,-61.367 -0.002,-23.954 9.717,-45.665 25.417,-61.36 15.695,-15.699 37.408,-25.418 61.362,-25.418 23.954,0 45.667,9.719 61.363,25.418 15.701,15.695 25.42,37.406 25.418,61.36 0.002,23.957 -9.717,45.671 -25.418,61.367"
             style="fill:#414142;fill-opacity:1;fill-rule:nonzero;stroke:none"
             id="path26" /></g></g></g></g></svg>