<?xml version="1.0" encoding="UTF-8" standalone="no"?>
<svg
   xmlns:dc="http://purl.org/dc/elements/1.1/"
   xmlns:cc="http://creativecommons.org/ns#"
   xmlns:rdf="http://www.w3.org/1999/02/22-rdf-syntax-ns#"
   xmlns:svg="http://www.w3.org/2000/svg"
   xmlns="http://www.w3.org/2000/svg"
   version="1.1"
   id="svg2"
   xml:space="preserve"
   width="231.41199"
   height="231.41733"
   viewBox="0 0 231.41199 231.41733"><metadata
     id="metadata8"><rdf:RDF><cc:Work
         rdf:about=""><dc:format>image/svg+xml</dc:format><dc:type
           rdf:resource="http://purl.org/dc/dcmitype/StillImage" /></cc:Work></rdf:RDF></metadata><defs
     id="defs6"><clipPath
       clipPathUnits="userSpaceOnUse"
       id="clipPath18"><path
         d="M 0,283.46 H 283.46 V 0 H 0 Z"
         id="path16" /></clipPath></defs><g
     id="g10"
     transform="matrix(1.3333333,0,0,-1.3333333,-73.267065,304.68106)"><g
       id="g12"><g
         id="g14"
         clip-path="url(#clipPath18)"><g
           id="g20"
           transform="translate(225.6973,141.73)"><path
             d="m 0,0 c 0,-46.375 -37.596,-83.969 -83.969,-83.969 -46.371,0 -83.965,37.594 -83.965,83.969 0,46.375 37.594,83.969 83.965,83.969 C -37.596,83.969 0,46.375 0,0"
             style="fill:#ffdc24;fill-opacity:1;fill-rule:nonzero;stroke:none"
             id="path22" /></g><g
           id="g24"
           transform="translate(199.1133,84.3428)"><path
             d="m 0,0 c -14.695,-14.689 -34.967,-23.768 -57.385,-23.77 -5.225,0 -10.326,0.514 -15.274,1.456 0.352,0.382 0.63,0.683 0.797,0.853 0.965,0.994 1.789,2.102 2.559,3.277 1.527,2.358 2.828,4.996 4.461,7.696 0.955,1.576 1.816,3.191 2.621,4.683 0.804,1.496 1.554,2.867 2.26,3.942 0.468,0.711 0.916,1.293 1.318,1.676 0.228,0.218 0.437,0.378 0.609,0.468 0.203,0.11 0.344,0.141 0.469,0.141 0.023,0 0.047,0 0.065,-0.004 h 0.005 c 0.614,-0.063 1.36,-0.207 2.243,-0.4 0.883,-0.194 1.902,-0.428 3.078,-0.668 2.35,-0.481 5.309,-0.959 9.065,-1.104 0.564,-0.023 1.146,-0.035 1.74,-0.035 2.431,0 5.101,0.187 7.683,0.617 2.586,0.438 5.086,1.106 7.204,2.102 1.406,0.664 2.648,1.476 3.611,2.498 0.549,0.584 1.006,1.24 1.33,1.967 0.539,1.222 0.859,2.628 1.051,4.117 0.197,1.492 0.265,3.066 0.265,4.613 0,2.812 -0.222,5.539 -0.332,7.379 -0.035,0.613 -0.062,1.125 -0.058,1.488 -0.004,0.231 0.011,0.41 0.019,0.465 v -0.004 c 0.032,0.199 0.114,0.436 0.256,0.703 0.139,0.266 0.338,0.555 0.572,0.86 0.473,0.613 1.092,1.265 1.664,1.964 0.379,0.465 0.743,0.952 1.022,1.504 0.223,0.446 0.291,0.912 0.293,1.352 -0.002,0.662 -0.154,1.305 -0.354,1.922 -0.199,0.617 -0.457,1.213 -0.711,1.738 -0.203,0.418 -0.402,0.789 -0.576,1.09 0.129,0.152 0.256,0.32 0.389,0.5 0.398,0.543 0.832,1.195 1.215,1.812 0.25,0.415 0.48,0.809 0.658,1.157 0.1,0.195 0.188,0.375 0.258,0.554 0.037,0.098 0.07,0.192 0.103,0.315 0.012,0.064 0.026,0.135 0.036,0.232 0.001,0.037 0.001,0.074 0.001,0.117 0,0.215 -0.035,0.395 -0.082,0.555 -0.052,0.162 -0.107,0.303 -0.173,0.445 -0.131,0.282 -0.289,0.555 -0.461,0.852 -0.352,0.588 -0.774,1.27 -1.176,2.064 -0.086,0.17 -0.168,0.401 -0.238,0.67 -0.067,0.266 -0.121,0.567 -0.164,0.877 -0.082,0.627 -0.108,1.291 -0.108,1.842 0,0.104 0.002,0.197 0.002,0.291 0.527,0.045 1.217,0.139 2.016,0.326 1.392,0.328 3.115,0.946 4.849,2.114 1.151,0.781 2.307,1.804 3.362,3.136 0.365,0.461 0.629,0.989 0.797,1.543 0.166,0.551 0.236,1.133 0.236,1.723 -0.002,1.506 -0.451,3.1 -1.147,4.764 -0.695,1.662 -1.654,3.393 -2.738,5.111 -2.174,3.438 -4.863,6.836 -7.035,9.42 -1.441,1.725 -2.652,3.088 -3.309,3.838 -0.539,0.617 -0.888,1.168 -1.109,1.705 -0.219,0.541 -0.318,1.076 -0.318,1.705 -0.002,0.487 0.06,1.028 0.189,1.657 0.125,0.621 0.316,1.316 0.563,2.105 0.492,1.576 1.203,3.51 2.039,5.934 0.472,1.361 0.654,2.875 0.656,4.465 -0.002,2.214 -0.363,4.584 -0.891,6.91 -0.529,2.324 -1.226,4.599 -1.926,6.605 -1.394,4.018 -2.787,6.959 -2.798,6.983 l -0.012,0.023 -0.01,0.018 c -0.014,0.023 -3.576,6.777 -9.398,15.463 -0.741,1.104 -1.518,2.239 -2.33,3.396 C -22.475,132.09 -9.955,124.726 0,114.773 14.691,100.078 23.77,79.807 23.771,57.387 23.77,34.967 14.691,14.695 0,0 m -78.237,-20.842 c 0,0 -5.32,7.518 0.32,16.629 0,0 -16.484,9.256 -17.351,9.397 0,0 -7.505,-7.889 -17.467,-7.121 -0.685,0.638 -1.371,1.275 -2.033,1.937 -0.917,0.918 -1.812,1.855 -2.684,2.816 1.86,-0.13 4.993,1.246 3.678,3.848 -1.593,3.154 -6.599,4.561 -9.414,3.252 -3.266,4.52 -6.075,9.387 -8.366,14.537 0.661,0.004 1.331,0.031 2.018,0.106 11.858,1.3 17.787,10.121 17.787,10.121 0,0 3.036,-11.565 9.399,-17.856 0,0 -13.885,-5.135 -8.098,-11.781 5.781,-6.654 17.059,4.621 17.059,4.621 0,0 13.74,-8.098 28.051,-10.699 0,0 -8.59,-16.629 -12.899,-19.807 m -40.366,24.987 c -0.773,0.888 -1.528,1.791 -2.262,2.712 0.259,0.213 0.551,0.383 0.874,0.497 3.324,1.154 4.192,-2.893 4.192,-2.893 0,0 -2.203,1.35 -2.804,-0.316 m 82.619,99.363 c -13.159,1.299 -28.772,-2.461 -32.825,-6.941 -4.045,-4.484 -3.326,-12.582 -2.455,-15.326 0.867,-2.748 1.012,-5.496 1.012,-5.496 0,0 -11.711,-4.483 -20.387,-3.327 -8.676,1.159 -13.883,9.981 -13.883,9.981 0,0 8.531,-2.172 14.605,-2.316 6.073,-0.145 10.266,1.591 10.266,1.591 0,0 0.281,14.315 2.453,20.098 2.172,5.783 5.5,7.807 15.477,8.963 9.977,1.16 22.559,0.144 27.473,-2.024 4.918,-2.168 13.445,-9.25 8.963,-17.929 0,0 2.459,11.424 -10.699,12.726 M -104.811,6.664 c 2.965,-0.828 8.531,5.242 8.531,5.242 l 1.879,-1.301 c 0,0 -8.746,-10.048 -13.226,-5.136 -4.485,4.92 6.433,10.273 6.433,10.273 l 2.168,-1.304 c -6.797,-3.325 -8.748,-6.942 -5.785,-7.774 m 36.582,5.316 c 3.473,1.192 0.328,3.903 -1.301,3.793 -1.625,-0.105 -0.433,-1.769 -0.433,-1.769 -1.844,0 -3.977,1.769 -2.239,5.35 1.735,3.576 8.168,2.568 10.553,0.072 2.385,-2.496 3.65,-7.737 0.072,-10.121 -3.576,-2.387 -9.035,-0.578 -9.035,-0.578 9.654,-0.868 9.912,6.566 6.338,9.109 -4.717,3.357 -6.881,-1.012 -6.881,-1.012 1.949,1.375 4.918,2.086 6.881,-1.914 1.615,-3.291 -2.871,-8.246 -10.57,-3.472 -7.698,4.769 -0.539,12.58 4.232,14.855 4.774,2.277 14.747,-1.082 15.292,-10.195 0.539,-9.108 -7.487,-9.434 -7.487,-9.434 8.254,4.57 5.844,10.863 2.75,14.787 -2.965,3.76 -13.074,2.791 -14.318,-1.881 -1.241,-4.672 2.677,-8.783 6.146,-7.59 m 40.051,45.114 c 1.449,-0.148 2.75,3.324 0,4.77 -2.746,1.447 -6.07,1.447 -7.66,-1.731 -1.59,-3.187 -4.482,-8.672 -6.074,-12.004 -1.59,-3.324 -5.063,-12.582 -3.762,-20.391 1.305,-7.808 7.664,-15.468 13.305,-16.049 5.64,-0.576 2.89,7.231 2.314,8.965 -0.576,1.737 -4.049,3.182 -4.193,0 0,0 -0.072,-1.443 1.012,-1.517 1.084,-0.071 0.074,1.664 0.074,1.664 0,0 2.601,-0.438 1.949,-3.545 -0.648,-3.108 -6.578,1.232 -9.471,7.592 -2.892,6.363 -3.035,7.445 -3.035,7.445 0,0 8.315,-4.842 12.869,-6 4.555,-1.156 6.508,0.219 6.508,0.219 0,0 -1.377,-1.301 -0.871,-5.641 0.508,-4.336 1.012,-12.793 -2.094,-15.324 -3.109,-2.531 -10.484,-2.242 -14.457,0.867 -3.98,3.107 -9.836,10.551 -9.472,25.734 0.359,15.184 7.808,19.305 12.146,29.935 4.336,10.626 18.58,3.179 17.783,-1.95 -0.797,-5.137 -4.699,-9.692 -9.324,-6.875 -4.629,2.822 -0.221,8.102 1.735,5.571 0,0 -0.725,-1.59 0.718,-1.735 m 5.641,10.266 c -6.217,2.601 -14.746,1.588 -16.34,0 -1.586,-1.59 -4.914,-10.846 -8.24,-15.184 -3.326,-4.34 -9.257,-16.336 -7.518,-25.883 1.735,-9.543 3.903,-17.785 7.951,-19.953 4.049,-2.172 11.112,-4.049 12.928,-4.049 0,0 -15.529,-1.447 -26.809,3.615 0,0 7.518,2.172 6.364,9.543 -1.156,7.373 -6.219,13.879 -12.438,13.303 -6.215,-0.58 -20.535,-6.94 -10.559,-19.231 0,0 -17.492,5.204 -23.996,21.69 -6.508,16.48 -2.314,27.907 7.518,32.965 9.832,5.063 24.869,3.037 28.338,-11.711 3.472,-14.748 -12.579,-24.438 -19.664,-14.891 -7.082,9.541 0.724,18.215 4.918,15.18 4.195,-3.037 2.167,-6.215 0.722,-7.664 0,0 1.59,4.488 -2.312,3.039 -3.905,-1.447 0.715,-8.102 4.476,-5.352 3.762,2.746 4.487,8.532 -0.719,12.145 -5.203,3.618 -14.601,0.723 -15.326,-9.254 -0.724,-9.977 8.01,-18.193 16.045,-17.785 8.035,0.412 14.465,7.519 17.934,15.183 3.473,7.661 8.244,10.7 9.836,13.591 1.586,2.894 3.612,8.687 6.938,12.297 3.328,3.609 11.566,8.382 17.205,8.238 0,0 18.744,-19.283 12.726,-24.004 0,0 -5.062,2.025 -7.087,1.015 0,0 3.328,10.551 -2.891,13.157 m -69.188,24.367 c 0,0 1.375,14.168 2.82,19.949 1.446,5.785 26.242,12.508 41.212,9.469 14.912,-3.024 24.218,-13.518 24.068,-24.894 -0.055,1.275 -1.01,13.252 -17.564,19.126 -17.495,6.202 -37.522,-2.109 -39.04,-5.146 -1.518,-3.035 -4.266,-22.41 -3.977,-24.652 0,0 -19.23,-1.52 -33.4,8.025 0,0 16.266,-2.818 25.881,-1.877 m 95.704,27.024 c -15.698,15.7 -37.411,25.419 -61.364,25.417 -23.953,0.002 -45.666,-9.717 -61.361,-25.417 -15.699,-15.695 -25.418,-37.409 -25.417,-61.364 -10e-4,-23.955 9.718,-45.668 25.417,-61.364 15.695,-15.699 37.407,-25.418 61.361,-25.418 23.953,0 45.666,9.719 61.364,25.418 15.699,15.696 25.417,37.409 25.417,61.364 0,23.955 -9.718,45.669 -25.417,61.364"
             style="fill:#4d4c4e;fill-opacity:1;fill-rule:nonzero;stroke:none"
             id="path26" /></g></g></g></g></svg>