<?xml version="1.0" encoding="UTF-8" standalone="no"?>
<svg
   xmlns:dc="http://purl.org/dc/elements/1.1/"
   xmlns:cc="http://creativecommons.org/ns#"
   xmlns:rdf="http://www.w3.org/1999/02/22-rdf-syntax-ns#"
   xmlns:svg="http://www.w3.org/2000/svg"
   xmlns="http://www.w3.org/2000/svg"
   version="1.1"
   id="svg2"
   xml:space="preserve"
   width="231.41333"
   height="231.41866"
   viewBox="0 0 231.41333 231.41866"><metadata
     id="metadata8"><rdf:RDF><cc:Work
         rdf:about=""><dc:format>image/svg+xml</dc:format><dc:type
           rdf:resource="http://purl.org/dc/dcmitype/StillImage" /></cc:Work></rdf:RDF></metadata><defs
     id="defs6"><clipPath
       clipPathUnits="userSpaceOnUse"
       id="clipPath18"><path
         d="M 0,283.46 H 283.46 V 0 H 0 Z"
         id="path16" /></clipPath></defs><g
     id="g10"
     transform="matrix(1.3333333,0,0,-1.3333333,-73.267065,304.68239)"><g
       id="g12"><g
         id="g14"
         clip-path="url(#clipPath18)"><g
           id="g20"
           transform="translate(225.6973,141.7266)"><path
             d="m 0,0 c 0,-46.37 -37.596,-83.966 -83.97,-83.966 -46.371,0 -83.965,37.596 -83.965,83.966 0,46.375 37.594,83.973 83.965,83.973 C -37.596,83.973 0,46.375 0,0"
             style="fill:#ffdb00;fill-opacity:1;fill-rule:nonzero;stroke:none"
             id="path22" /></g><g
           id="g24"
           transform="translate(199.1143,84.3438)"><path
             d="m 0,0 c -14.695,-14.69 -34.967,-23.77 -57.387,-23.771 -5.711,0 -11.28,0.597 -16.656,1.718 v 83.758 c 0.672,-1.195 1.285,-2.459 1.846,-3.803 1.006,3.129 1.853,5.778 2.763,8.61 4.594,-4.783 7.422,-10.055 7.725,-16.675 0.482,0.621 0.967,1.246 1.537,1.976 1.477,-2.892 2.59,-5.585 4.142,-8 2.855,-4.441 6.383,-8.509 6.804,-14.451 2.098,2.42 2.852,4.934 3.004,7.629 0.147,2.596 0.135,5.194 0.192,7.795 0.133,0.01 0.265,0.022 0.4,0.033 0.713,-0.9 1.42,-1.798 2.213,-2.798 1.816,5.083 0.848,9.654 -1.078,14.217 -1.006,2.375 -1.852,4.871 -2.328,7.399 -0.86,4.607 -2.383,8.836 -5.481,12.424 -0.527,0.609 -0.937,1.322 -1.66,2.357 4.449,-0.84 6.383,-4.441 9.535,-6.652 0.229,1.3 0.43,2.443 0.629,3.582 0.125,0.08 0.246,0.16 0.371,0.242 0.125,-0.256 0.192,-0.57 0.383,-0.758 3.293,-3.199 6.574,-6.41 9.93,-9.541 0.668,-0.623 1.828,-1.486 2.426,-1.275 2.017,0.707 2.802,-0.516 3.714,-1.782 1.641,-2.277 3.293,-4.548 4.938,-6.823 0.654,0.5 1.168,0.894 1.812,1.386 1.262,-3.612 2.465,-7.066 3.805,-10.9 1.365,3.506 1.555,6.668 1.004,9.821 -0.535,3.057 -1.361,6.059 -2.125,9.362 1.068,-0.693 1.887,-1.225 2.887,-1.875 -1.004,7.092 -5.723,11.572 -10.502,16.455 h 4.886 c -1.482,1.803 -2.447,3.461 -3.849,4.569 -2.654,2.091 -5.551,3.878 -8.363,5.771 -2.973,2 -5.961,3.973 -8.942,5.959 8.879,2.291 17.199,0.857 25.426,-2.541 -0.23,0.77 -0.379,1.254 -0.598,1.984 5.789,-1.496 10.2,-4.693 14.266,-9.101 -0.066,0.762 -0.068,1.094 -0.127,1.418 -0.105,0.552 -0.221,1.109 -0.373,1.654 -2.012,7.197 -6.988,11.572 -13.672,14.318 -0.838,0.344 -1.641,0.774 -2.461,1.163 0.029,0.117 0.059,0.236 0.086,0.357 0.799,0.182 1.596,0.363 2.662,0.605 -8.088,4.938 -16.627,4.106 -25.201,3.028 -0.041,0.179 -0.082,0.359 -0.125,0.539 1.297,0.615 2.594,1.226 4.32,2.045 -6.756,0.457 -12.449,-1.424 -17.847,-4.571 -0.112,0.217 -0.217,0.432 -0.328,0.647 4.177,4.797 8.355,9.594 12.533,14.387 l -0.201,0.234 c -2.166,-0.816 -4.336,-1.629 -6.936,-2.611 2.967,4.418 6.057,8.068 9.959,10.84 2.246,1.596 4.584,3.059 6.927,4.495 C -20.467,130.89 -9.152,123.921 0,114.771 14.69,100.075 23.77,79.803 23.771,57.383 23.77,34.966 14.691,14.695 0,0 m -138.539,57.383 c 10e-4,7.947 1.162,15.616 3.289,22.87 4.207,1.642 8.32,3.314 12.492,4.808 2.797,1.002 5.699,1.007 8.871,0.08 -2.457,-1.508 -4.707,-2.789 -6.851,-4.227 -2.141,-1.426 -4.149,-3.037 -5.658,-5.406 0.876,-0.043 1.513,-0.069 2.414,-0.11 -2.414,-2.289 -4.674,-4.328 -6.821,-6.486 -2.215,-2.226 -3.896,-4.803 -4.689,-8.226 1.601,0.998 2.955,1.841 4.219,2.63 -0.831,-2.789 -2.118,-5.339 -2.26,-7.952 -0.293,-5.412 -0.006,-10.859 0.096,-16.289 0.033,-1.785 0.23,-3.566 0.351,-5.347 0.188,-0.088 0.373,-0.176 0.561,-0.264 1.043,1.279 2.365,2.428 3.064,3.873 1.377,2.844 2.426,5.851 3.574,8.801 1.102,2.83 2.664,5.326 5.09,7.482 0.213,-1.24 0.395,-2.287 0.635,-3.674 3.516,6.38 10.178,8.429 14.812,12.937 0.123,-0.1 0.246,-0.199 0.37,-0.301 -0.399,-1.262 -0.797,-2.519 -1.293,-4.082 4.357,2.578 6.431,6.674 8.761,10.541 0.143,-0.068 0.289,-0.135 0.434,-0.201 v -5.742 c 1.699,1.047 3.142,1.937 4.586,2.832 0.066,-1.084 -0.19,-1.922 -0.469,-2.748 l 2.6,0.47 v -80.419 c -9.149,4.076 -17.415,9.776 -24.409,16.767 -14.69,14.695 -23.767,34.966 -23.769,57.383 m 21.418,54.922 c 3.446,-2.92 6.862,-5.241 9.055,-8.84 -0.672,0.015 -1.239,0.195 -1.789,0.41 -1.319,0.51 -2.596,1.148 -3.944,1.539 -2.642,0.763 -5.291,1.194 -7.941,1.388 1.462,1.9 2.999,3.74 4.619,5.503 m 5.707,-0.492 c -1.965,0.197 -3.61,0.365 -5.635,0.567 0.747,0.809 1.501,1.612 2.279,2.391 0.114,0.113 0.233,0.218 0.346,0.33 1.039,-1.015 2.043,-2.103 3.01,-3.288 m 71.198,24.894 c -2.571,-0.65 -5.085,-1.569 -7.535,-2.812 -3.551,-1.795 -7.23,-3.34 -11.263,-5.182 0.662,1.734 1.162,3.064 1.77,4.654 -12.432,-4.898 -18.717,-14.65 -22.694,-26.404 -1.453,9.258 -2.16,11.994 -4.187,12.961 -0.156,-1.76 -0.316,-3.514 -0.477,-5.264 -0.169,-0.051 -0.336,-0.097 -0.509,-0.148 -2.096,4.404 -4.184,8.824 -8.268,11.74 -1.102,0.789 -2.236,1.485 -3.401,2.087 11.666,6.493 25.088,10.204 39.393,10.204 5.896,0 11.636,-0.644 17.171,-1.836 M 3.978,118.749 c -15.697,15.7 -37.41,25.421 -61.365,25.419 -23.953,0.002 -45.665,-9.719 -61.36,-25.419 -15.699,-15.697 -25.418,-37.411 -25.417,-61.366 -0.001,-23.952 9.718,-45.665 25.417,-61.361 15.695,-15.699 37.407,-25.418 61.36,-25.418 23.955,0 45.668,9.719 61.365,25.418 15.699,15.696 25.418,37.408 25.418,61.361 0,23.955 -9.719,45.67 -25.418,61.366"
             style="fill:#414142;fill-opacity:1;fill-rule:nonzero;stroke:none"
             id="path26" /></g></g></g></g></svg>