<?xml version="1.0" encoding="UTF-8" standalone="no"?>
<svg
   xmlns:dc="http://purl.org/dc/elements/1.1/"
   xmlns:cc="http://creativecommons.org/ns#"
   xmlns:rdf="http://www.w3.org/1999/02/22-rdf-syntax-ns#"
   xmlns:svg="http://www.w3.org/2000/svg"
   xmlns="http://www.w3.org/2000/svg"
   version="1.1"
   id="svg2"
   xml:space="preserve"
   width="231.41333"
   height="231.41733"
   viewBox="0 0 231.41333 231.41733"><metadata
     id="metadata8"><rdf:RDF><cc:Work
         rdf:about=""><dc:format>image/svg+xml</dc:format><dc:type
           rdf:resource="http://purl.org/dc/dcmitype/StillImage" /></cc:Work></rdf:RDF></metadata><defs
     id="defs6"><clipPath
       clipPathUnits="userSpaceOnUse"
       id="clipPath18"><path
         d="M 0,283.46 H 283.46 V 0 H 0 Z"
         id="path16" /></clipPath></defs><g
     id="g10"
     transform="matrix(1.3333333,0,0,-1.3333333,-73.266398,304.68133)"><g
       id="g12"><g
         id="g14"
         clip-path="url(#clipPath18)"><g
           id="g20"
           transform="translate(225.6973,141.73)"><path
             d="m 0,0 c 0,-46.375 -37.594,-83.969 -83.968,-83.969 -46.373,0 -83.967,37.594 -83.967,83.969 0,46.375 37.594,83.969 83.967,83.969 C -37.594,83.969 0,46.375 0,0"
             style="fill:#ffdc24;fill-opacity:1;fill-rule:nonzero;stroke:none"
             id="path22" /></g><g
           id="g24"
           transform="translate(222.8848,141.73)"><path
             d="m 0,0 c -0.001,22.42 -9.079,42.691 -23.77,57.386 -14.695,14.691 -34.966,23.769 -57.386,23.77 -22.176,-0.001 -42.241,-8.893 -56.896,-23.304 h 95.501 c 3.11,0 5.629,-2.52 5.629,-5.629 V -62.098 l -13.503,-13.021 c 10.048,4.115 19.094,10.172 26.655,17.732 C -9.079,-42.692 -0.001,-22.42 0,0 m -61.309,-59.446 h 18.899 l 0.051,0.047 V 52.412 h -96.992 V -56.537 c 0.273,-0.281 0.534,-0.573 0.81,-0.85 9.416,-9.412 21.127,-16.503 34.219,-20.397 h 43.013 z M -144.792,50.332 C -155.752,36.495 -162.309,19.028 -162.31,0 c 0.001,-19.029 6.558,-36.496 17.518,-50.333 z M 5.625,0 c 0.001,-23.956 -9.718,-45.668 -25.418,-61.364 -15.695,-15.7 -37.408,-25.419 -61.363,-25.418 -23.954,-0.001 -45.667,9.718 -61.362,25.418 -15.699,15.696 -25.419,37.408 -25.417,61.364 -0.002,23.955 9.718,45.668 25.417,61.364 15.695,15.699 37.408,25.419 61.362,25.417 23.955,0.002 45.668,-9.718 61.363,-25.417 C -4.093,45.668 5.626,23.955 5.625,0 m -132.929,-56.43 h 21.117 v 21.117 h -21.117 z m -1.957,23.074 h 25.031 v -24.051 -0.98 h -25.031 z m 19.531,23.313 -7.922,-7.422 -4.908,4.437 c -0.6,0.543 -1.529,0.496 -2.074,-0.105 -0.545,-0.602 -0.498,-1.532 0.105,-2.075 l 5.906,-5.343 c 0.569,-0.514 1.436,-0.504 1.993,0.015 l 8.908,8.348 c 0.594,0.555 0.621,1.484 0.068,2.078 -0.553,0.59 -1.486,0.623 -2.076,0.067 m -17.574,-15.899 h 21.117 v 21.117 h -21.117 z m -1.957,23.074 h 25.031 v -24.054 -0.977 h -25.031 z m 31.931,-50.879 h 44.32 v 15.758 h -44.32 z m 0,30.489 h 44.32 v 15.754 h -44.32 z m -21.246,39.18 c 0,1.242 1.008,2.25 2.252,2.25 h 5.295 8.074 c 0.916,0 1.735,0.555 2.084,1.402 l 0.684,1.688 2.812,-9.364 c 0.292,-0.97 1.2,-1.628 2.211,-1.603 1.012,0.025 1.889,0.728 2.129,1.711 l 3.616,14.625 1.279,-6.498 c 0.207,-1.055 1.135,-1.821 2.207,-1.821 h 8.443 c 1.244,0 2.25,1.008 2.25,2.254 0,1.243 -1.006,2.254 -2.25,2.254 h -6.588 l -2.882,14.641 c -0.204,1.031 -1.1,1.793 -2.155,1.816 -1.054,0.028 -1.986,-0.683 -2.238,-1.711 l -4.076,-16.488 -2.276,7.59 c -0.271,0.914 -1.099,1.559 -2.05,1.605 -0.95,0.047 -1.834,-0.515 -2.192,-1.402 l -2.525,-6.195 h -8.875 c -1.688,4.574 -1.778,9.812 0.582,14.82 4.502,9.57 12.894,8.07 16.086,7.508 3.451,-0.609 6.873,-3.606 8.232,-3.701 1.362,0.095 4.787,3.092 8.237,3.701 3.189,0.562 11.585,2.062 16.089,-7.508 4.5,-9.566 0.09,-19.976 -7.367,-24.949 C -78.943,7.574 -86.167,2.934 -87.246,2.277 -87.896,1.879 -88.222,1.719 -88.378,1.66 V 1.621 c 0,0 -0.016,0 -0.069,0.014 -0.047,-0.014 -0.064,-0.014 -0.064,-0.014 V 1.66 c -0.156,0.059 -0.485,0.219 -1.133,0.617 -1.078,0.657 -8.301,5.297 -15.76,10.27 -0.521,0.348 -1.025,0.726 -1.512,1.123 h -9.408 c -1.244,0 -2.252,1.01 -2.252,2.252"
             style="fill:#4d4c4e;fill-opacity:1;fill-rule:nonzero;stroke:none"
             id="path26" /></g></g></g></g></svg>