<?xml version="1.0" encoding="UTF-8" standalone="no"?>
<svg
   xmlns:dc="http://purl.org/dc/elements/1.1/"
   xmlns:cc="http://creativecommons.org/ns#"
   xmlns:rdf="http://www.w3.org/1999/02/22-rdf-syntax-ns#"
   xmlns:svg="http://www.w3.org/2000/svg"
   xmlns="http://www.w3.org/2000/svg"
   viewBox="70 70 200 200"
   xml:space="preserve"
   id="svg2"
   version="1.1"><metadata
     id="metadata8"><rdf:RDF><cc:Work
         rdf:about=""><dc:format>image/svg+xml</dc:format><dc:type
           rdf:resource="http://purl.org/dc/dcmitype/StillImage" /></cc:Work></rdf:RDF></metadata><defs
     id="defs6"><clipPath
       id="clipPath24"
       clipPathUnits="userSpaceOnUse"><path
         id="path22"
         d="M 0,250 H 250 V 0 H 0 Z" /></clipPath></defs><g
     transform="matrix(1.3333333,0,0,-1.3333333,0,333.33333)"
     id="g10"><path
       id="path12"
       style="fill:#fafafa;fill-opacity:0;fill-rule:nonzero;stroke:none"
       d="M 0,0 H 250 V 250 H 0 Z" /><g
       transform="translate(67.2178,94.7158)"
       id="g14"><path
         id="path16"
         style="fill:#326699;fill-opacity:1;fill-rule:nonzero;stroke:none"
         d="m 0,0 h 4.337 v -6.392 h 2.577 v -3.751 H 4.337 V -23.71 H 0 v 13.567 h -2.218 v 3.751 H 0 Z" /></g><g
       id="g18"><g
         clip-path="url(#clipPath24)"
         id="g20"><g
           transform="translate(84.7207,84.7686)"
           id="g26"><path
             id="path28"
             style="fill:#326699;fill-opacity:1;fill-rule:nonzero;stroke:none"
             d="m 0,0 c -1.348,0 -2.468,-0.473 -3.354,-1.424 -0.891,-0.946 -1.337,-2.163 -1.337,-3.647 0,-1.495 0.451,-2.724 1.359,-3.691 0.908,-0.963 2.022,-1.446 3.349,-1.446 1.364,0 2.5,0.473 3.397,1.424 0.902,0.946 1.354,2.19 1.354,3.729 0,1.506 -0.452,2.723 -1.354,3.659 C 2.517,-0.467 1.375,0 0,0 M 4.572,3.556 H 8.91 V -13.763 H 4.572 v 1.843 c -0.848,-0.805 -1.702,-1.381 -2.555,-1.734 -0.853,-0.354 -1.783,-0.534 -2.778,-0.534 -2.245,0 -4.18,0.865 -5.816,2.599 -1.636,1.729 -2.452,3.881 -2.452,6.452 0,2.669 0.794,4.855 2.376,6.562 1.582,1.701 3.501,2.554 5.762,2.554 1.043,0 2.016,-0.196 2.93,-0.582 C 2.952,3.012 3.794,2.425 4.572,1.653 Z" /></g><g
           transform="translate(97.9736,88.3242)"
           id="g30"><path
             id="path32"
             style="fill:#326699;fill-opacity:1;fill-rule:nonzero;stroke:none"
             d="m 0,0 h 4.337 v -2.022 c 0.745,0.82 1.571,1.434 2.485,1.836 0.907,0.409 1.902,0.61 2.978,0.61 1.082,0 2.066,-0.267 2.936,-0.8 0.875,-0.532 1.576,-1.315 2.109,-2.337 0.69,1.022 1.538,1.805 2.544,2.337 1.006,0.533 2.109,0.8 3.299,0.8 1.234,0 2.321,-0.288 3.256,-0.86 0.941,-0.57 1.609,-1.32 2.022,-2.239 0.408,-0.924 0.615,-2.424 0.615,-4.501 v -10.142 h -4.338 v 8.751 c 0,1.957 -0.244,3.283 -0.739,3.973 -0.495,0.691 -1.24,1.038 -2.224,1.038 -0.755,0 -1.429,-0.212 -2.022,-0.635 -0.597,-0.419 -1.044,-1.006 -1.332,-1.75 -0.287,-0.746 -0.434,-1.941 -0.434,-3.594 v -7.783 h -4.338 v 8.354 c 0,1.544 -0.114,2.663 -0.348,3.354 -0.228,0.696 -0.576,1.207 -1.033,1.549 -0.461,0.337 -1.022,0.505 -1.674,0.505 -0.728,0 -1.391,-0.212 -1.984,-0.641 C 5.517,-4.626 5.077,-5.225 4.778,-5.996 4.484,-6.768 4.337,-7.985 4.337,-9.644 v -7.674 H 0 Z" /></g><g
           transform="translate(136.9102,84.7686)"
           id="g34"><path
             id="path36"
             style="fill:#326699;fill-opacity:1;fill-rule:nonzero;stroke:none"
             d="m 0,0 c -1.348,0 -2.469,-0.473 -3.354,-1.424 -0.892,-0.946 -1.337,-2.163 -1.337,-3.647 0,-1.495 0.451,-2.724 1.359,-3.691 0.906,-0.963 2.021,-1.446 3.348,-1.446 1.365,0 2.5,0.473 3.398,1.424 0.902,0.946 1.354,2.19 1.354,3.729 0,1.506 -0.452,2.723 -1.354,3.659 C 2.516,-0.467 1.375,0 0,0 M 4.57,3.556 H 8.908 V -13.763 H 4.57 v 1.843 c -0.847,-0.805 -1.701,-1.381 -2.554,-1.734 -0.854,-0.354 -1.782,-0.534 -2.778,-0.534 -2.244,0 -4.179,0.865 -5.816,2.599 -1.635,1.729 -2.451,3.881 -2.451,6.452 0,2.669 0.793,4.855 2.375,6.562 1.582,1.701 3.502,2.554 5.761,2.554 1.045,0 2.018,-0.196 2.93,-0.582 C 2.951,3.012 3.793,2.425 4.57,1.653 Z" /></g><g
           transform="translate(150.1953,88.3242)"
           id="g38"><path
             id="path40"
             style="fill:#326699;fill-opacity:1;fill-rule:nonzero;stroke:none"
             d="m 0,0 h 4.338 v -1.783 c 0.982,0.826 1.881,1.396 2.68,1.722 0.798,0.322 1.619,0.485 2.457,0.485 1.716,0 3.179,-0.598 4.375,-1.794 1.005,-1.022 1.511,-2.527 1.511,-4.518 v -11.43 h -4.304 v 7.571 c 0,2.065 -0.094,3.435 -0.278,4.11 -0.185,0.679 -0.511,1.196 -0.968,1.549 -0.461,0.354 -1.034,0.532 -1.707,0.532 -0.879,0 -1.635,-0.293 -2.266,-0.88 C 5.207,-5.023 4.771,-5.839 4.527,-6.871 4.402,-7.415 4.338,-8.583 4.338,-10.383 v -6.935 H 0 Z" /></g><g
           transform="translate(169.7695,88.3242)"
           id="g42"><path
             id="path44"
             style="fill:#326699;fill-opacity:1;fill-rule:nonzero;stroke:none"
             d="m 0,0 h 4.402 v -8.328 c 0,-1.62 0.114,-2.745 0.338,-3.375 0.223,-0.631 0.58,-1.12 1.076,-1.474 0.495,-0.347 1.108,-0.521 1.832,-0.521 0.723,0 1.342,0.174 1.848,0.516 0.506,0.342 0.881,0.848 1.125,1.516 0.18,0.5 0.272,1.566 0.272,3.196 V 0 h 4.337 v -7.328 c 0,-3.022 -0.238,-5.088 -0.716,-6.202 -0.582,-1.359 -1.448,-2.397 -2.582,-3.125 -1.137,-0.724 -2.582,-1.088 -4.334,-1.088 -1.903,0 -3.434,0.425 -4.61,1.272 -1.174,0.848 -2,2.028 -2.478,3.544 C 0.168,-11.878 0,-9.97 0,-7.203 Z" /></g><g
           transform="translate(105.0103,155.1196)"
           id="g46"><path
             id="path48"
             style="fill:#ffcc00;fill-opacity:1;fill-rule:evenodd;stroke:none"
             d="m 0,0 c 0,-5.18 1.988,-10.453 5.773,-14.714 3.399,-3.827 7.336,-7.622 11.273,-11.418 l 2.528,-2.44 2.529,2.44 c 3.936,3.796 7.873,7.591 11.272,11.418 3.785,4.261 5.773,9.535 5.773,14.714 0,4.895 -1.803,9.719 -5.578,13.494 -3.863,3.864 -8.93,5.797 -13.996,5.797 -5.066,0 -10.132,-1.933 -13.996,-5.797 C 1.804,9.719 0,4.895 0,0 M 19.574,-35.577 C 13.729,-29.73 7.23,-23.885 2.038,-18.04 c -9.097,10.24 -9.686,25.389 0,35.074 9.685,9.685 25.387,9.685 35.073,0 9.685,-9.685 9.096,-24.833 0,-35.074 -5.194,-5.845 -11.692,-11.69 -17.537,-17.537" /></g><g
           transform="translate(120.9321,165.6392)"
           id="g50"><path
             id="path52"
             style="fill:#326699;fill-opacity:1;fill-rule:evenodd;stroke:none"
             d="m 0,0 h 7.304 v -7.304 h 7.305 v -7.304 H 7.304 v -7.304 H 0 v 7.304 h -7.304 v 7.304 H 0 Z" /></g><g
           transform="translate(130.9473,109.2871)"
           id="g54"><path
             id="path56"
             style="fill:#326699;fill-opacity:1;fill-rule:evenodd;stroke:none"
             d="M 0,0 -2.441,2.771 C -0.359,2.687 1.582,4.484 3.617,2.875 6.639,0.485 9.799,-1.227 16.699,-2.474 17.84,-2.68 16.068,-4.047 10.297,-3.579 5.443,-3.186 10.684,-4.61 4.582,-4.045 2.461,-3.848 3.596,-4.341 7.473,-5.073 9.416,-5.44 8.73,-7.138 -1.83,-6.485 c -7.164,0.442 -8.52,0.195 -17.927,-0.202 -3.159,-0.133 -8.199,1.276 -2.956,2.335 2.889,0.583 -7.039,1.203 -7.039,1.988 0,0.807 4.89,1.814 7.065,2.473 4.097,1.242 7.485,3.119 9.019,4.301 C -8.226,8.604 -6.965,3.478 0,0" /></g><g
           transform="translate(161.9023,105.8105)"
           id="g58"><path
             id="path60"
             style="fill:#ffcc00;fill-opacity:1;fill-rule:evenodd;stroke:none"
             d="m 0,0 c 4.381,-1.191 6.92,-2.606 6.92,-4.124 0,-4.241 -19.807,-7.678 -44.238,-7.678 -24.432,0 -44.238,3.437 -44.238,7.678 0,1.518 2.54,2.933 6.92,4.124 -2.218,-0.815 -3.453,-1.717 -3.453,-2.665 0,-3.65 18.254,-6.609 40.771,-6.609 22.517,0 40.771,2.959 40.771,6.609 C 3.453,-1.717 2.219,-0.815 0,0" /></g><g
           transform="translate(154.4414,106.2725)"
           id="g62"><path
             id="path64"
             style="fill:#ffcc00;fill-opacity:1;fill-rule:evenodd;stroke:none"
             d="m 0,0 c 3.504,-0.79 5.535,-1.728 5.535,-2.733 0,-2.81 -15.846,-5.088 -35.392,-5.088 -19.546,0 -35.393,2.278 -35.393,5.088 0,1.005 2.032,1.943 5.537,2.733 -1.775,-0.541 -2.763,-1.138 -2.763,-1.767 0,-2.419 14.604,-4.379 32.619,-4.379 18.015,0 32.619,1.96 32.619,4.379 C 2.762,-1.138 1.773,-0.541 0,0" /></g></g></g></g></svg>
