<?xml version="1.0" encoding="UTF-8" standalone="no"?>
<svg
   xmlns:dc="http://purl.org/dc/elements/1.1/"
   xmlns:cc="http://creativecommons.org/ns#"
   xmlns:rdf="http://www.w3.org/1999/02/22-rdf-syntax-ns#"
   xmlns:svg="http://www.w3.org/2000/svg"
   xmlns="http://www.w3.org/2000/svg"
   version="1.1"
   id="svg2"
   xml:space="preserve"
   width="231.41333"
   height="231.41199"
   viewBox="0 0 231.41333 231.41199"><metadata
     id="metadata8"><rdf:RDF><cc:Work
         rdf:about=""><dc:format>image/svg+xml</dc:format><dc:type
           rdf:resource="http://purl.org/dc/dcmitype/StillImage" /></cc:Work></rdf:RDF></metadata><defs
     id="defs6"><clipPath
       clipPathUnits="userSpaceOnUse"
       id="clipPath18"><path
         d="M 0,283.46 H 283.46 V 0 H 0 Z"
         id="path16" /></clipPath></defs><g
     id="g10"
     transform="matrix(1.3333333,0,0,-1.3333333,-73.266798,304.67919)"><g
       id="g12"><g
         id="g14"
         clip-path="url(#clipPath18)"><g
           id="g20"
           transform="translate(199.1143,199.1143)"><path
             d="M 0,0 C -14.695,14.691 -34.967,23.77 -57.387,23.771 -79.805,23.77 -100.074,14.691 -114.77,0 c -14.69,-14.695 -23.767,-34.968 -23.769,-57.388 0.002,-22.417 9.079,-42.687 23.769,-57.382 14.696,-14.69 34.965,-23.768 57.383,-23.769 22.42,10e-4 42.692,9.079 57.387,23.769 14.691,14.695 23.77,34.965 23.771,57.382 C 23.77,-34.968 14.69,-14.696 0,0"
             style="fill:#ffdc24;fill-opacity:1;fill-rule:nonzero;stroke:none"
             id="path22" /></g><g
           id="g24"
           transform="translate(123.5771,161.6094)"><path
             d="m 0,0 0.041,0.199 0.203,-0.08 c 1.938,-0.808 4.098,-0.508 5.938,0.1 l -0.393,0.83 1.44,2.73 0.164,0.268 0.234,-0.406 1.092,-2.329 c 1.052,0.555 1.736,1.038 1.756,1.051 l 0.154,0.114 0.103,-0.159 c 2.27,-3.484 2.569,-5.445 2.581,-5.527 l 0.023,-0.154 -0.164,-0.032 C 12.434,-3.529 11.768,-3.703 11.15,-3.893 l 1.073,-2.293 c 4.629,4.832 5.496,10.426 5.506,10.506 0.001,0.028 0.023,0.045 0.037,0.065 0.005,0.011 0.005,0.023 0.013,0.029 0.033,0.031 0.071,0.049 0.117,0.051 0.01,0 0.012,-0.006 0.012,-0.006 0.045,-0.002 0.082,-0.014 0.115,-0.037 0.01,-0.01 0.01,-0.022 0.018,-0.029 0.012,-0.02 0.035,-0.038 0.035,-0.063 1.067,-5.098 3.446,-8.642 5.954,-11.078 0.317,0.633 0.555,1.131 0.692,1.461 1.722,4.154 0.277,8.586 0.265,8.629 l -0.066,0.191 0.215,0.024 c 2.347,0.242 4.513,-0.118 6.435,-1.067 1.936,-0.926 3.498,-2.379 4.641,-4.32 l 0.105,-0.176 -0.211,-0.064 c -0.044,-0.012 -4.728,-1.463 -7.347,-5.18 -0.291,-0.416 -0.756,-1.172 -1.346,-2.166 2.645,-1.676 4.791,-2.227 4.838,-2.238 l 0.025,-0.02 c 0.039,-0.017 0.063,-0.043 0.08,-0.078 l 0.024,-0.023 -0.006,-0.02 c 0.004,-0.006 0.012,-0.012 0.012,-0.019 0,-0.047 -0.024,-0.09 -0.055,-0.122 l -0.004,-0.002 c -7.037,-6.001 -9.051,-12.465 -9.463,-16.991 l 5.004,-10.697 -1.806,-1.994 -0.161,-0.197 -0.257,0.441 -1.973,4.223 c -1.031,-1.842 -2.949,-4.133 -6.15,-4.133 -3.294,0 -5.23,2.432 -6.236,4.301 -1.92,-2.877 -3.117,-4.211 -3.666,-3.95 -0.902,0.44 0.983,4.836 5.309,13.225 -1.301,9.767 -9.391,15.692 -9.494,15.763 l -0.002,0.009 c -0.043,0.03 -0.071,0.073 -0.071,0.124 0,0.005 0.008,0.007 0.008,0.015 l -0.006,0.01 0.024,0.021 c 0.011,0.039 0.037,0.069 0.076,0.09 l 0.017,0.02 c 2.661,0.898 4.829,2.138 6.608,3.533 L 8.6,-4.945 C 5.326,-6.723 4.582,-9.09 4.572,-9.123 L 4.51,-9.342 4.307,-9.219 C -1.26,-5.869 -0.018,-0.057 0,0 m 22.483,-53.72 c 0,-0.031 0.012,-0.066 0.012,-0.093 v -13.801 c 0,-2.192 -1.914,-3.992 -4.251,-3.992 h -0.443 c -2.342,0 -4.248,1.8 -4.248,3.992 v 13.801 c 0,0.015 0.006,0.031 0.006,0.046 -5.241,-0.105 -10.479,-0.351 -15.705,-0.732 l 0.472,9.365 c 13.194,0.83 26.46,0.879 39.657,0.151 l 0.35,-9.33 c -5.275,0.343 -10.564,0.539 -15.85,0.593 m 1.621,-36.343 c -0.015,0.093 -0.056,0.179 -0.144,0.238 -0.018,0.012 -0.535,0.369 -1.242,1.137 1.304,0.554 7.383,3.24 13.422,7.974 8.908,6.986 13.293,15.065 12.683,23.356 -0.027,0.369 -0.365,0.646 -0.754,0.621 -0.39,-0.022 -0.683,-0.338 -0.66,-0.705 1.399,-19.055 -25.25,-30.028 -25.519,-30.137 -0.022,-0.012 -0.039,-0.025 -0.057,-0.039 -0.328,0.437 -0.666,0.949 -0.996,1.537 0.551,0.307 1.123,0.623 1.734,0.963 9.116,5.025 22.735,12.543 22.735,26.64 0,0.461 -0.014,0.926 -0.041,1.399 l -0.008,0.084 c 0,0.023 -0.004,0.041 -0.004,0.064 -0.004,0.053 -0.006,0.121 -0.008,0.2 -0.117,1.916 -0.678,11.203 -0.816,13.445 l -1.114,18.512 C 42.659,-13.689 42.03,-3.059 41.53,4.729 41.339,7.76 41.159,10.373 41.017,12.395 40.159,24.172 39.681,30.662 29.157,38.008 l -7.494,5.275 c -1.424,1.01 -2.661,1.889 -3.509,2.461 -0.847,-0.572 -2.082,-1.451 -3.511,-2.461 L 7.154,38.008 C -0.764,32.482 -2.994,27.441 -3.982,20.271 -4.025,20.26 -4.055,20.254 -4.055,20.254 -4.113,19.863 -4.268,18.016 -4.453,15.725 -4.488,15.342 -4.518,14.945 -4.547,14.543 -4.896,10.098 -5.295,4.729 -5.295,4.729 h 0.068 c -0.494,-7.786 -1.125,-18.415 -1.781,-29.503 l -1.113,-18.512 c -0.018,-0.277 -0.041,-0.656 -0.07,-1.117 l -0.752,-12.528 c 0,-0.023 0,-0.041 -0.004,-0.064 -0.006,-0.053 -0.006,-0.084 -0.006,-0.084 C -8.982,-57.552 -9,-58.017 -9,-58.478 c 0,-14.097 13.623,-21.615 22.734,-26.64 0.61,-0.34 1.172,-0.647 1.721,-0.949 -0.25,-0.52 -0.525,-1.01 -0.832,-1.477 -1.633,0.688 -26.787,11.574 -25.43,30.102 0.026,0.367 -0.273,0.683 -0.66,0.705 -0.387,0.025 -0.73,-0.252 -0.754,-0.621 -0.611,-8.291 3.772,-16.37 12.68,-23.356 5.855,-4.588 11.758,-7.26 13.309,-7.928 -0.422,-0.464 -0.889,-0.867 -1.405,-1.177 -0.093,-0.053 -0.14,-0.151 -0.154,-0.244 -9.672,5.371 -27.633,14.492 -26.469,33.269 1.594,25.621 3.367,57.388 4.254,69.53 0.887,12.143 1.592,20.629 13.99,29.276 12.399,8.65 12.516,9.146 14.17,9.146 1.652,0 1.769,-0.496 14.173,-9.146 12.395,-8.647 13.106,-17.133 13.986,-29.276 0.891,-12.142 2.661,-43.909 4.254,-69.53 1.166,-18.777 -16.795,-27.898 -26.463,-33.269 m -3.644,8.281 -0.027,-0.016 c 0,0 -0.475,-0.269 -1.111,-0.633 -0.49,1.692 -0.816,3.698 -0.816,6.071 0,0.179 -0.152,0.328 -0.344,0.334 -0.191,0 -0.35,-0.131 -0.363,-0.317 0,-0.053 -0.168,-2.873 -0.994,-5.986 -0.537,0.312 -0.928,0.531 -0.928,0.531 l -0.022,0.016 -0.025,0.011 c -2.225,1.227 -4.668,2.581 -7.064,4.104 -3.604,2.291 -7.079,4.982 -9.575,8.131 -1.248,1.57 -2.255,3.254 -2.955,5.074 -0.699,1.816 -1.093,3.775 -1.099,5.967 l 0.037,1.248 0.021,0.34 2.18,0.097 0.588,13.856 c -0.494,0 -1.192,-0.027 -1.93,-0.063 l 1.084,18.02 v 0.006 c 0.674,11.331 1.319,22.19 1.822,30.001 0.95,0.09 1.668,0.16 1.668,0.16 0,2.33 0.942,15.971 0.942,15.971 -0.33,0 -0.758,-0.037 -1.227,-0.096 0.192,1.129 0.428,2.172 0.715,3.139 0.606,2.002 1.436,3.703 2.748,5.412 1.313,1.699 3.152,3.424 5.83,5.295 l 2.373,1.668 c 1.383,-1.373 2.924,-3.204 3.996,-5.315 C 14.553,30.6 13.553,29.232 13.553,27.652 V 19.937 C 9.604,19.795 5.66,19.494 1.729,19.025 L 1.072,7.303 C 12.381,8.924 23.776,8.98 35.089,7.467 35.163,7.457 34.478,19.16 34.358,19.174 30.409,19.607 26.45,19.873 22.495,19.98 v 7.672 c 0,1.502 -0.91,2.801 -2.223,3.485 1.067,2.158 2.639,4.025 4.047,5.422 l 2.36,-1.657 0.008,-0.009 c 2.382,-1.663 4.105,-3.211 5.376,-4.729 0.959,-1.143 1.676,-2.268 2.245,-3.463 0.796,-1.66 1.304,-3.5 1.671,-5.664 -0.488,0.063 -0.945,0.104 -1.291,0.104 0,0 0.944,-13.641 0.944,-15.971 0,0 0.754,-0.078 1.746,-0.164 0.498,-7.813 1.143,-18.672 1.812,-29.997 v -0.006 l 1.088,-18.02 c -0.744,0.036 -1.439,0.063 -1.933,0.063 l 0.592,-13.856 2.179,-0.097 0.018,-0.34 0.041,-1.254 c -0.012,-2.926 -0.709,-5.437 -1.899,-7.734 -1.789,-3.457 -4.769,-6.44 -8.203,-9.008 -3.426,-2.567 -7.26,-4.688 -10.594,-6.528 z m 32.287,57.488 v -0.004 c -0.912,15.433 -1.775,29.999 -2.31,37.3 -0.221,3.031 -0.426,5.914 -0.831,8.727 -0.603,4.207 -1.673,8.294 -3.97,12.228 -2.285,3.936 -5.762,7.625 -10.848,11.172 l 0.012,-0.008 -7.449,5.248 0.011,-0.008 c -1.316,0.934 -2.34,1.657 -3.174,2.233 -1.255,0.861 -2.08,1.408 -3.07,1.855 -0.494,0.219 -1.053,0.397 -1.592,0.487 -0.54,0.093 -1.008,0.105 -1.372,0.105 -0.246,0 -0.529,-0.006 -0.857,-0.037 -0.576,-0.051 -1.26,-0.209 -1.85,-0.449 C 14.543,54.188 13.826,53.732 12.855,53.092 11.893,52.451 10.686,51.59 8.963,50.367 8.96,50.366 8.956,50.364 8.953,50.362 L 1.51,45.121 1.523,45.129 C -1.873,42.76 -4.541,40.342 -6.631,37.814 -9.768,34.031 -11.521,30.012 -12.51,25.895 -13.5,21.77 -13.793,17.547 -14.127,13 c -0.533,-7.299 -1.4,-21.865 -2.312,-37.298 v 0.004 l -1.946,-32.277 v 0.009 c -0.039,-0.667 -0.058,-1.33 -0.058,-1.98 -0.002,-4.783 1.117,-9.068 2.964,-12.799 2.782,-5.605 7.114,-9.945 11.6,-13.392 4.49,-3.444 9.188,-6.018 12.832,-8.03 1.475,-0.818 2.768,-1.531 3.75,-2.131 0.49,-0.294 0.901,-0.56 1.207,-0.779 0.303,-0.217 0.494,-0.392 0.549,-0.445 l -0.008,0.006 c 0.526,-0.551 1.184,-0.994 1.852,-1.244 0.672,-0.266 1.324,-0.352 1.849,-0.352 0.526,0 1.178,0.086 1.847,0.344 0.668,0.258 1.324,0.691 1.848,1.238 l 0.004,0.008 c 0.05,0.053 0.25,0.228 0.55,0.445 0.457,0.328 1.155,0.758 1.998,1.25 0.854,0.492 1.852,1.043 2.963,1.66 2.422,1.338 5.323,2.938 8.311,4.867 4.486,2.899 9.201,6.549 12.865,11.36 1.832,2.396 3.391,5.092 4.49,8.098 1.096,3.003 1.725,6.31 1.723,9.902 0,0.644 -0.014,1.307 -0.059,1.965 z M 43.12,23.043 c 0.067,-0.363 -0.193,-0.705 -0.578,-0.77 -0.389,-0.064 -0.752,0.178 -0.822,0.538 -1.342,7.168 -4.401,10.535 -7.418,13.369 -2.803,2.633 -11.424,8.408 -11.51,8.466 -0.316,0.215 -0.396,0.631 -0.164,0.93 0.225,0.297 0.67,0.369 0.986,0.156 0.358,-0.24 8.801,-5.898 11.69,-8.611 3.181,-2.984 6.402,-6.531 7.816,-14.078 M 13.771,45.576 c 0.227,-0.299 0.153,-0.715 -0.166,-0.93 -0.084,-0.058 -8.707,-5.833 -11.509,-8.466 -3.02,-2.834 -6.08,-6.201 -7.418,-13.369 -0.071,-0.36 -0.438,-0.602 -0.821,-0.538 -0.384,0.065 -0.642,0.407 -0.578,0.77 1.412,7.547 4.633,11.094 7.817,14.078 2.886,2.713 11.328,8.371 11.687,8.611 0.319,0.213 0.764,0.141 0.988,-0.156 M 75.537,-77.265 c -14.695,-14.69 -34.967,-23.768 -57.387,-23.769 -22.418,0.001 -42.687,9.079 -57.382,23.769 C -53.923,-62.57 -63,-42.3 -63.002,-19.883 -63,2.537 -53.923,22.81 -39.232,37.505 -24.537,52.196 -4.268,61.274 18.15,61.275 40.57,61.274 60.842,52.196 75.537,37.505 90.228,22.809 99.307,2.537 99.308,-19.883 99.307,-42.3 90.229,-62.57 75.537,-77.265 M 79.515,41.482 C 63.818,57.183 42.105,66.902 18.15,66.9 -5.803,66.902 -27.515,57.183 -43.21,41.482 -58.909,25.786 -68.628,4.072 -68.627,-19.883 c -0.001,-23.952 9.718,-45.664 25.417,-61.359 15.695,-15.699 37.407,-25.418 61.36,-25.417 23.955,-10e-4 45.668,9.718 61.364,25.417 15.7,15.694 25.42,37.406 25.419,61.359 10e-4,23.955 -9.719,45.669 -25.418,61.365"
             style="fill:#4d4c4e;fill-opacity:1;fill-rule:nonzero;stroke:none"
             id="path26" /></g></g></g></g></svg>