<?xml version="1.0" encoding="UTF-8" standalone="no"?>
<svg
   xmlns:dc="http://purl.org/dc/elements/1.1/"
   xmlns:cc="http://creativecommons.org/ns#"
   xmlns:rdf="http://www.w3.org/1999/02/22-rdf-syntax-ns#"
   xmlns:svg="http://www.w3.org/2000/svg"
   xmlns="http://www.w3.org/2000/svg"
   version="1.1"
   id="svg2"
   xml:space="preserve"
   width="231.41733"
   height="231.41199"
   viewBox="0 0 231.41733 231.41199"><metadata
     id="metadata8"><rdf:RDF><cc:Work
         rdf:about=""><dc:format>image/svg+xml</dc:format><dc:type
           rdf:resource="http://purl.org/dc/dcmitype/StillImage" /></cc:Work></rdf:RDF></metadata><defs
     id="defs6"><clipPath
       clipPathUnits="userSpaceOnUse"
       id="clipPath18"><path
         d="M 0,283.46 H 283.46 V 0 H 0 Z"
         id="path16" /></clipPath></defs><g
     id="g10"
     transform="matrix(1.3333333,0,0,-1.3333333,-73.264265,304.67946)"><g
       id="g12"><g
         id="g14"
         clip-path="url(#clipPath18)"><g
           id="g20"
           transform="translate(225.6992,141.7285)"><path
             d="m 0,0 c 0,-46.372 -37.598,-83.966 -83.971,-83.966 -46.373,0 -83.967,37.594 -83.967,83.966 0,46.375 37.594,83.969 83.967,83.969 C -37.598,83.969 0,46.375 0,0"
             style="fill:#ffdb00;fill-opacity:1;fill-rule:nonzero;stroke:none"
             id="path22" /></g><g
           id="g24"
           transform="translate(151.1982,61.1426)"><path
             d="m 0,0 -6.464,11.743 -2.754,-2.754 -24.471,24.623 18.619,18.619 0.043,-0.041 c 0.469,0.411 0.986,0.682 1.52,0.815 1.218,0.238 2.515,-0.207 3.515,-1.207 2.759,-2.758 -0.515,-9.391 -2.687,-11.561 l -0.002,-0.009 c -2.233,-2.235 -1.442,-3.426 -1.442,-3.426 6.952,6.951 10.116,10.793 11.144,15.785 0.494,2.064 0.605,4.25 0.449,6.828 l 0.08,-0.078 c -0.213,3.559 0.603,5.945 1.83,7.267 1.535,1.338 3.584,1.135 5.078,-0.361 C 7.286,63.415 3.962,57.11 1.7,54.618 L 1.618,54.521 C 1.271,54.142 1.001,53.796 0.802,53.481 -0.085,52.179 0.103,51.569 0.208,51.388 l 0.119,-0.137 c 9.563,9.562 11.803,14.105 11.32,22.186 -0.482,8.157 4.424,10.239 7.249,7.403 2.832,-2.833 -0.5,-9.534 -2.809,-11.843 -2.305,-2.301 -1.168,-3.307 -1.168,-3.307 11.059,11.053 11.668,14.115 11.168,22.341 -0.488,8.233 4.523,9.727 7.125,7.125 2.609,-2.605 -0.098,-9.133 -2.535,-11.572 -2.448,-2.443 -1.721,-3.705 -1.721,-3.705 1.4,1.396 3.729,3.728 7.463,7.457 14.92,14.928 4.371,20.602 11.152,27.383 6.012,6.011 6.662,10.982 6.735,12.043 l 0.007,0.111 -0.097,-0.006 c -1.061,-0.076 -6.035,-0.726 -12.047,-6.734 -6.785,-6.785 -12.453,3.763 -27.375,-11.156 -3.732,-3.735 -6.065,-6.059 -7.465,-7.461 0,0 1.272,-0.723 3.711,1.718 2.436,2.44 8.969,5.145 11.566,2.545 2.606,-2.603 1.106,-7.627 -7.125,-7.127 C 7.255,99.145 4.2,98.535 -6.858,87.484 c 0,0 1,-1.144 3.308,1.162 2.309,2.309 9.012,5.643 11.84,2.811 2.83,-2.832 0.754,-7.738 -7.402,-7.246 -0.254,0.016 -0.502,0.023 -0.75,0.039 L 0.009,84.252 C -7.542,84.516 -12.089,82.094 -21.3,72.884 l 0.129,-0.113 c 0.175,-0.106 0.789,-0.309 2.103,0.585 0.317,0.204 0.656,0.473 1.033,0.825 l 0.104,0.086 c 2.486,2.261 8.799,5.588 11.625,2.754 1.489,-1.487 1.7,-3.524 0.385,-5.059 -1.312,-1.238 -3.713,-2.065 -7.289,-1.848 l 0.074,-0.078 c -2.651,0.156 -4.887,0.037 -7,-0.5 -4.906,-1.057 -8.746,-4.232 -15.61,-11.098 l -0.007,-0.001 c 0,0 1.203,-0.795 3.441,1.447 2.168,2.172 8.803,5.437 11.559,2.687 0.992,-0.996 1.439,-2.283 1.211,-3.502 -0.165,-0.654 -0.528,-1.279 -1.102,-1.828 l 0.039,-0.035 -18.343,-18.337 -18.618,18.618 0.039,0.041 c -0.41,0.473 -0.681,0.989 -0.816,1.518 -0.235,1.221 0.211,2.519 1.213,3.517 2.754,2.754 9.386,-0.515 11.56,-2.685 l 0.006,-0.002 c 2.238,-2.234 3.432,-1.441 3.432,-1.441 -6.957,6.951 -10.801,10.117 -15.785,11.136 -2.073,0.5 -4.254,0.614 -6.833,0.455 l 0.079,0.08 c -3.557,-0.218 -5.95,0.6 -7.27,1.831 -1.338,1.535 -1.129,3.584 0.361,5.076 2.83,2.831 9.135,-0.494 11.627,-2.756 l 0.094,-0.082 c 0.383,-0.346 0.725,-0.619 1.043,-0.819 1.301,-0.886 1.914,-0.699 2.096,-0.587 l 0.135,0.115 c -9.559,9.561 -14.104,11.804 -22.188,11.319 -8.16,-0.488 -10.238,4.422 -7.402,7.246 2.832,2.834 9.535,-0.5 11.843,-2.808 2.305,-2.301 3.309,-1.164 3.309,-1.164 -8.636,8.637 -12.394,10.897 -17.544,11.237 0.266,1.166 0.554,2.324 0.87,3.471 1.639,-1.156 2.483,-0.673 2.483,-0.673 -0.542,0.542 -1.23,1.231 -2.082,2.083 3.883,13.155 10.991,24.924 20.441,34.377 14.695,14.691 34.966,23.769 57.385,23.77 22.419,-10e-4 42.691,-9.079 57.387,-23.77 14.691,-14.695 23.771,-34.966 23.771,-57.386 0,-22.418 -9.08,-42.689 -23.771,-57.384 C 35.322,10.612 18.627,2.165 0,0 m -38.937,28.357 24.613,-24.471 -2.758,-2.754 2.811,-1.546 c -14.791,0.863 -28.505,5.679 -40.12,13.416 z m -50.609,45.085 c -0.016,-0.252 -0.024,-0.5 -0.039,-0.746 v -0.129 c -0.266,-7.554 2.156,-12.101 11.363,-21.312 l 0.115,0.133 c 0.106,0.172 0.311,0.785 -0.586,2.101 -0.201,0.319 -0.471,0.658 -0.826,1.033 l -0.078,0.104 c -2.266,2.486 -5.59,8.793 -2.758,11.627 1.484,1.486 3.522,1.697 5.057,0.381 1.24,-1.313 2.068,-3.709 1.849,-7.289 l 0.082,0.076 c -0.164,-2.649 -0.043,-4.887 0.494,-7.002 1.057,-4.904 4.233,-8.742 11.098,-15.609 l 0.002,-0.006 c 0,0 0.795,1.201 -1.445,3.439 -2.172,2.172 -5.436,8.805 -2.692,11.561 1.004,0.99 2.289,1.439 3.504,1.209 0.656,-0.164 1.281,-0.524 1.828,-1.102 l 0.039,0.045 18.341,-18.35 -16.141,-16.233 c -2.272,1.831 -4.454,3.768 -6.516,5.829 -14.48,14.485 -23.488,34.391 -23.745,56.425 0.768,-1.411 1.219,-3.448 1.054,-6.185 m 141.44,68.508 c -15.696,15.699 -37.41,25.419 -61.364,25.417 -23.954,0.002 -45.667,-9.718 -61.362,-25.417 -15.7,-15.696 -25.419,-37.409 -25.418,-61.364 -0.001,-23.954 9.718,-45.666 25.418,-61.361 15.695,-15.7 37.407,-25.418 61.362,-25.417 23.954,-10e-4 45.668,9.717 61.364,25.417 15.701,15.695 25.42,37.407 25.419,61.361 10e-4,23.955 -9.718,45.668 -25.419,61.364"
             style="fill:#414142;fill-opacity:1;fill-rule:nonzero;stroke:none"
             id="path26" /></g></g></g></g></svg>